{
.appVersion = "3405";
.formatVersion = 3;
DisplayStrings = (
"/uni3000/_cross/uni3000 まみむめも
/_cross み/_cross 
/uni3000/_cross/uni3000 あみあみみ

/uni3000/uni3000/uni3000 あいうえお
/uni3000/uni3000/uni3000 かきくけこ
/uni3000/uni3000/uni3000 さしすせそ
/uni3000/uni3000/uni3000 たちつてと
/uni3000/uni3000/uni3000 なにぬねの
/uni3000/uni3000/uni3000 はひふへほ
/uni3000/uni3000/uni3000 まみ"
);
axes = (
{
name = Weight;
tag = wght;
}
);
customParameters = (
{
name = "Enforce Compatibility Check";
value = 1;
},
{
name = fsType;
value = (
);
}
);
date = "2025-02-03 07:01:27 +0000";
familyName = "M PLUS 3";
featurePrefixes = (
{
automatic = 1;
code = "languagesystem DFLT dflt;
";
name = Languagesystems;
},
{
code = "table BASE {
  HorizAxis.BaseTagList     icfb  icft  ideo  romn;
  HorizAxis.BaseScriptList  
                DFLT  ideo   -70   830  -120     0,
                hani  ideo   -70   830  -120     0,
                kana  ideo   -70   830  -120     0,
                latn  romn   -70   830  -120     0,
                cyrl  romn   -70   830  -120     0,
                grek  romn   -70   830  -120     0;

  VertAxis.BaseTagList      icfb  icft  ideo  romn;
  VertAxis.BaseScriptList 
                DFLT  ideo    46   954     0   120,
                hani  ideo    46   954     0   120,
                kana  ideo    46   954     0   120,
                latn  romn    46   954     0   120,
                cyrl  romn    46   954     0   120,
                grek  romn    46   954     0   120;
} BASE;";
name = BASE;
}
);
features = (
{
automatic = 1;
code = "feature sups;
feature frac;
feature pnum;
feature tnum;
feature fwid;
feature vert;
feature vkna;
feature vrt2;
";
tag = aalt;
},
{
automatic = 1;
code = "sub zero by zerosuperior;
sub one by onesuperior;
sub two by twosuperior;
sub three by threesuperior;
sub four by foursuperior;
";
tag = sups;
},
{
automatic = 1;
code = "sub one slash four by onequarter;
sub one slash two by onehalf;
sub three slash four by threequarters;
";
tag = frac;
},
{

glyphs = (
{
color = 10;
glyphname = A;
kernLeft = A;
kernRight = A;
lastChange = "2025-03-17 02:52:50 +0000";
layers = (
{
anchors = (
{
name = bottom;
pos = (342,0);
},
{
name = ogonek;
pos = (662,0);
},
{
name = top;
pos = (342,730);
},
{
name = top_ring;
pos = (342,640);
}
);
layerId = "D65C9A1E-0FCA-4B2D-8EDF-9F36CA9182A1";
metricLeft = "=H*.2";
shapes = (
{
closed = 1;
nodes = (
(44,0,l),
(341,711,l),
(343,711,l),
(640,0,l),
(662,0,l),
(356,730,l),
(328,730,l),
(22,0,l)
);
},
{
closed = 1;
nodes = (
(552,237,l),
(552,257,l),
(132,257,l),
(132,237,l)
);
}
);
width = 684;
},
{
anchors = (
{
name = bottom;
pos = (353,0);
},
{
name = ogonek;
pos = (693,0);
},
{
name = top;
pos = (353,730);
},
{
name = top_ring;
pos = (353,610);
}
);
layerId = "9527F797-22C1-480E-A1FE-2CDBEBE1FD4C";
shapes = (
{
closed = 1;
nodes = (
(134,0,l),
(352,636,l),
(354,636,l),
(572,0,l),
(693,0,l),
(428,730,l),
(279,730,l),
(13,0,l)
);
},
{
closed = 1;
nodes = (
(556,183,l),
(556,283,l),
(151,283,l),
(151,183,l)
);
}
);
width = 706;
},
{
anchors = (
{
name = bottom;
pos = (366,0);
},
{
name = ogonek;
pos = (726,0);
},
{
name = top;
pos = (366,730);
},
{
name = top_ring;
pos = (366,585);
}
);
layerId = "9E6B41AB-2970-4C41-8B35-4DBE0D296A43";
metricLeft = "=H*.1";
shapes = (
{
closed = 1;
nodes = (
(226,0,l),
(365,560,l),
(367,560,l),
(506,0,l),
(726,0,l),
(501,730,l),
(231,730,l),
(6,0,l)
);
},
{
closed = 1;
nodes = (
(561,135,l),
(561,300,l),
(171,300,l),
(171,135,l)
);
}
);
width = 732;
}
);
metricLeft = "=H*.15";
metricRight = "=|";
unicode = 65;
},
{
color = 10;
glyphname = AE;
kernLeft = A;
kernRight = E;
lastChange = "2025-03-17 02:52:50 +0000";
layers = (
{
anchors = (
{
name = bottom;
pos = (491,0);
},
{
name = top;
pos = (491,730);
}
);
layerId = "D65C9A1E-0FCA-4B2D-8EDF-9F36CA9182A1";
shapes = (
{
closed = 1;
nodes = (
(45,0,l),
(460,710,l),
(472,710,l),
(472,0,l),
(832,0,l),
(832,20,l),
(492,20,l),
(492,380,l),
(809,380,l),
(809,400,l),
(492,400,l),
(492,710,l),
(832,710,l),
(832,730,l),
(449,730,l),
(22,0,l)
);
},
{
closed = 1;
nodes = (
(482,237,l),
(482,257,l),
(178,257,l),
(178,237,l)
);
}
);
width = 915;
},
{
anchors = (
{
name = bottom;
pos = (484,0);
},
{
name = top;
pos = (484,730);
}
);
layerId = "9527F797-22C1-480E-A1FE-2CDBEBE1FD4C";
shapes = (
{
closed = 1;
nodes = (
(135,0,l),
(417,640,l),
(438,640,l),
(438,0,l),
(843,0,l),
(843,98,l),
(548,98,l),
(548,334,l),
(822,334,l),
(822,430,l),
(548,430,l),
(548,632,l),
(843,632,l),
(843,730,l),
(347,730,l),
(13,0,l)
);
},
{
closed = 1;
nodes = (
(498,183,l),
(498,283,l),
(169,283,l),
(169,183,l)
);
}
);
width = 911;
},
{
anchors = (
{
name = bottom;
pos = (479,0);
},
{
name = top;
pos = (479,730);
}
);
layerId = "9E6B41AB-2970-4C41-8B35-4DBE0D296A43";
shapes = (
{
closed = 1;
nodes = (
(226,0,l),
(376,570,l),
(406,570,l),
(406,0,l),
(856,0,l),
(856,160,l),
(606,160,l),
(606,298,l),
(836,298,l),
(836,452,l),
(606,452,l),
(606,570,l),
(856,570,l),
(856,730,l),
(246,730,l),
(6,0,l)
);
},
{
closed = 1;
nodes = (
(516,135,l),
(516,300,l),
(161,300,l),
(161,135,l)
);
}
);
width = 907;
}
);
metricLeft = "=A";
metricRight = "=E";
unicode = 198;
},
{
color = 10;
glyphname = B;
kernLeft = H;
kernRight = B;
lastChange = "2025-03-17 02:52:50 +0000";
layers = (
{
layerId = "9527F797-22C1-480E-A1FE-2CDBEBE1FD4C";
metricRight = "=|*.45";
shapes = (
{
closed = 1;
nodes = (
(515,-10,o),
(625,62,o),
(625,206,cs),
(625,309,o),
(569,370,o),
(458,387,c),
(458,389,l),
(546,407,o),
(595,465,o),
(595,552,cs),
(595,677,o),
(493,740,o),
(290,740,cs),
(233,740,o),
(161,735,o),
(85,726,c),
(85,4,l),
(148,-4,o),
(232,-10,o),
(295,-10,cs)
);
},
{
closed = 1;
nodes = (
(195,35,l),
(195,695,l),
(158,632,l),
(241,640,o),
(270,642,o),
(300,642,cs),
(424,642,o),
(485,607,o),
(485,534,cs),
(485,464,o),
(428,430,o),
(310,430,cs),
(140,430,l),
(140,335,l),
(310,335,ls),
(454,335,o),
(513,301,o),
(513,217,cs),
(513,128,o),
(446,88,o),
(300,88,cs),
(254,88,o),
(197,92,o),
(159,98,c)
);
}
);
width = 663;
},
{
layerId = "9E6B41AB-2970-4C41-8B35-4DBE0D296A43";
metricRight = "=|*.5";
shapes = (
{
closed = 1;
nodes = (
(531,-10,o),
(650,67,o),
(650,210,cs),
(650,310,o),
(592,370,o),
(480,384,c),
(480,386,l),
(574,400,o),
(630,462,o),
(630,550,cs),
(630,675,o),
(517,740,o),
(300,740,cs),
(234,740,o),
(137,734,o),
(60,726,c),
(60,4,l),
(154,-5,o),
(253,-10,o),
(310,-10,cs)
);
},
{
closed = 1;
nodes = (
(260,59,l),
(260,671,l),
(204,577,l),
(246,582,o),
(289,585,o),
(320,585,cs),
(399,585,o),
(430,565,o),
(430,514,cs),
(430,466,o),
(402,450,o),
(320,450,cs),
(160,450,l),
(160,300,l),
(320,300,ls),
(408,300,o),
(445,278,o),
(445,226,cs),
(445,171,o),
(405,145,o),
(320,145,cs),
(291,145,o),
(239,148,o),
(204,153,c)
);
}
);
width = 680;
},
{
layerId = "D65C9A1E-0FCA-4B2D-8EDF-9F36CA9182A1";
metricRight = "=|*.4";
shapes = (
{
closed = 1;
nodes = (
(497,-10,o),
(600,57,o),
(600,200,cs),
(600,308,o),
(541,369,o),
(416,390,c),
(416,392,l),
(512,414,o),
(560,467,o),
(560,555,cs),
(560,678,o),
(466,740,o),
(280,740,cs),
(239,740,o),
(201,737,o),
(110,726,c),
(110,4,l),
(178,-6,o),
(227,-10,o),
(280,-10,cs)
);
},
{
closed = 1;
nodes = (
(130,10,l),
(130,720,l),
(112,706,l),
(202,717,o),
(240,720,o),
(280,720,cs),
(455,720,o),
(540,665,o),
(540,555,cs),
(540,450,o),
(463,400,o),
(300,400,cs),
(120,400,l),
(120,380,l),
(300,380,ls),
(493,380,o),
(580,324,o),
(580,200,cs),
(580,70,o),
(487,10,o),
(280,10,cs),
(228,10,o),
(179,14,o),
(113,24,c)
);
}
);
width = 644;
}
);
metricLeft = "=H";
metricRight = "=|*.5";
unicode = 66;
},
{
color = 10;
glyphname = C;
kernLeft = O;
kernRight = C;
lastChange = "2025-03-17 02:52:50 +0000";
layers = (
{
anchors = (
{
name = bottom;
pos = (413,0);
},
{
name = cedi;
pos = (351,0);
},
{
name = top;
pos = (413,730);
}
);
layerId = "D65C9A1E-0FCA-4B2D-8EDF-9F36CA9182A1";
shapes = (
{
closed = 1;
nodes = (
(510,-10,o),
(588,12,o),
(655,55,c),
(644,72,l),
(580,31,o),
(506,10,o),
(424,10,cs),
(212,10,o),
(75,150,o),
(75,365,cs),
(75,580,o),
(212,720,o),
(424,720,cs),
(506,720,o),
(580,699,o),
(644,658,c),
(655,675,l),
(588,718,o),
(510,740,o),
(424,740,cs),
(201,740,o),
(55,591,o),
(55,365,cs),
(55,139,o),
(201,-10,o),
(424,-10,cs)
);
}
);
width = 721;
},
{
anchors = (
{
name = bottom;
pos = (405,0);
},
{
name = cedi;
pos = (331,0);
},
{
name = top;
pos = (405,730);
}
);
layerId = "9527F797-22C1-480E-A1FE-2CDBEBE1FD4C";
shapes = (
{
closed = 1;
nodes = (
(512,-10,o),
(593,10,o),
(663,50,c),
(636,148,l),
(566,109,o),
(498,90,o),
(427,90,cs),
(260,90,o),
(157,194,o),
(157,365,cs),
(157,536,o),
(260,640,o),
(427,640,cs),
(499,640,o),
(568,621,o),
(636,582,c),
(663,680,l),
(593,720,o),
(512,740,o),
(423,740,cs),
(186,740,o),
(43,599,o),
(43,365,cs),
(43,131,o),
(186,-10,o),
(423,-10,cs)
);
}
);
width = 714;
},
{
anchors = (
{
name = bottom;
pos = (396,0);
},
{
name = cedi;
pos = (311,0);
},
{
name = top;
pos = (396,730);
}
);
layerId = "9E6B41AB-2970-4C41-8B35-4DBE0D296A43";
shapes = (
{
closed = 1;
nodes = (
(514,-10,o),
(597,8,o),
(670,46,c),
(627,216,l),
(555,178,o),
(489,160,o),
(429,160,cs),
(307,160,o),
(238,234,o),
(238,365,cs),
(238,496,o),
(307,570,o),
(429,570,cs),
(489,570,o),
(555,552,o),
(627,514,c),
(670,684,l),
(597,722,o),
(514,740,o),
(421,740,cs),
(170,740,o),
(30,606,o),
(30,365,cs),
(30,124,o),
(170,-10,o),
(421,-10,cs)
);
}
);
width = 706;
}
);
metricLeft = "=O";
metricRight = "=H*.6";
unicode = 67;
},
{
color = 10;
glyphname = D;
kernLeft = H;
kernRight = O;
lastChange = "2025-03-17 02:52:50 +0000";
layers = (
{
anchors = (
{
name = bottom;
pos = (335,0);
},
{
name = center;
pos = (335,365);
},
{
name = top;
pos = (335,730);
}
);
layerId = "D65C9A1E-0FCA-4B2D-8EDF-9F36CA9182A1";
shapes = (
{
closed = 1;
nodes = (
(514,-10,o),
(650,121,o),
(650,365,cs),
(650,609,o),
(514,740,o),
(260,740,cs),
(215,740,o),
(170,736,o),
(110,726,c),
(110,4,l),
(170,-6,o),
(215,-10,o),
(260,-10,cs)
);
},
{
closed = 1;
nodes = (
(215,10,o),
(170,14,o),
(113,24,c),
(130,14,l),
(130,716,l),
(113,706,l),
(170,716,o),
(215,720,o),
(260,720,cs),
(503,720,o),
(630,598,o),
(630,365,cs),
(630,132,o),
(503,10,o),
(260,10,cs)
);
}
);
width = 705;
},
{
anchors = (
{
name = bottom;
pos = (335,0);
},
{
name = center;
pos = (335,365);
},
{
name = top;
pos = (335,730);
}
);
layerId = "9527F797-22C1-480E-A1FE-2CDBEBE1FD4C";
shapes = (
{
closed = 1;
nodes = (
(547,-10,o),
(665,107,o),
(665,365,cs),
(665,623,o),
(547,740,o),
(285,740,cs),
(231,740,o),
(157,735,o),
(85,726,c),
(85,4,l),
(157,-5,o),
(231,-10,o),
(285,-10,cs)
);
},
{
closed = 1;
nodes = (
(250,90,o),
(198,94,o),
(142,101,c),
(195,42,l),
(195,688,l),
(142,629,l),
(198,636,o),
(250,640,o),
(292,640,cs),
(478,640,o),
(553,561,o),
(553,365,cs),
(553,169,o),
(478,90,o),
(292,90,cs)
);
}
);
width = 708;
},
{
anchors = (
{
name = bottom;
pos = (335,0);
},
{
name = center;
pos = (335,365);
},
{
name = top;
pos = (335,730);
}
);
layerId = "9E6B41AB-2970-4C41-8B35-4DBE0D296A43";
shapes = (
{
closed = 1;
nodes = (
(579,-10,o),
(680,93,o),
(680,365,cs),
(680,637,o),
(579,740,o),
(310,740,cs),
(245,740,o),
(146,734,o),
(60,726,c),
(60,4,l),
(146,-4,o),
(245,-10,o),
(310,-10,cs)
);
},
{
closed = 1;
nodes = (
(295,150,o),
(251,152,o),
(170,158,c),
(260,70,l),
(260,660,l),
(170,572,l),
(251,578,o),
(295,580,o),
(323,580,cs),
(447,580,o),
(475,540,o),
(475,365,cs),
(475,190,o),
(447,150,o),
(323,150,cs)
);
}
);
width = 710;
}
);
metricLeft = "=H";
metricRight = "=O";
unicode = 68;
},
{
color = 10;
glyphname = Eth;
kernLeft = f;
kernRight = O;
lastChange = "2025-03-17 02:52:50 +0000";
layers = (
{
anchors = (
{
name = bottom;
pos = (387,0);
},
{
name = center;
pos = (387,365);
},
{
name = top;
pos = (387,730);
}
);
layerId = "D65C9A1E-0FCA-4B2D-8EDF-9F36CA9182A1";
shapes = (
{
closed = 1;
nodes = (
(446,355,l),
(446,375,l),
(36,375,l),
(36,355,l)
);
},
{
pos = (51,0);
ref = D;
}
);
width = 756;
},
{
anchors = (
{
name = bottom;
pos = (399,0);
},
{
name = center;
pos = (399,365);
},
{
name = top;
pos = (399,730);
}
);
layerId = "9527F797-22C1-480E-A1FE-2CDBEBE1FD4C";
shapes = (
{
closed = 1;
nodes = (
(446,320,l),
(446,410,l),
(28,410,l),
(28,320,l)
);
},
{
alignment = -1;
pos = (56,0);
ref = D;
}
);
width = 764;
},
{
anchors = (
{
name = bottom;
pos = (408,0);
},
{
name = center;
pos = (408,365);
},
{
name = top;
pos = (408,730);
}
);
layerId = "9E6B41AB-2970-4C41-8B35-4DBE0D296A43";
shapes = (
{
closed = 1;
nodes = (
(445,295,l),
(445,435,l),
(19,435,l),
(19,295,l)
);
},
{
pos = (59,0);
ref = D;
}
);
width = 769;
}
);
metricLeft = "=f*1.2";
metricRight = "=O";
unicode = 208;
},
{
color = 10;
glyphname = E;
kernLeft = H;
kernRight = E;
lastChange = "2025-03-17 02:52:50 +0000";
layers = (
{
anchors = (
{
name = bottom;
pos = (325,0);
},
{
name = ogonek;
pos = (540,0);
},
{
name = top;
pos = (325,730);
},
{
name = topleft;
pos = (-12,730);
}
);
layerId = "D65C9A1E-0FCA-4B2D-8EDF-9F36CA9182A1";
metricRight = "=H*.75";
shapes = (
{
closed = 1;
nodes = (
(540,0,l),
(540,20,l),
(130,20,l),
(130,380,l),
(520,380,l),
(520,400,l),
(130,400,l),
(130,710,l),
(540,710,l),
(540,730,l),
(110,730,l),
(110,0,l)
);
}
);
width = 623;
},
{
anchors = (
{
name = bottom;
pos = (325,0);
},
{
name = ogonek;
pos = (565,0);
},
{
name = top;
pos = (325,730);
},
{
name = topleft;
pos = (-1,730);
}
);
layerId = "9527F797-22C1-480E-A1FE-2CDBEBE1FD4C";
metricRight = "=H*.8";
shapes = (
{
closed = 1;
nodes = (
(565,0,l),
(565,98,l),
(195,98,l),
(195,334,l),
(545,334,l),
(545,430,l),
(195,430,l),
(195,632,l),
(565,632,l),
(565,730,l),
(85,730,l),
(85,0,l)
);
}
);
width = 633;
},
{
anchors = (
{
name = bottom;
pos = (325,0);
},
{
name = ogonek;
pos = (590,0);
},
{
name = top;
pos = (325,730);
},
{
name = topleft;
pos = (10,730);
}
);
layerId = "9E6B41AB-2970-4C41-8B35-4DBE0D296A43";
metricRight = "=H*.85";
shapes = (
{
closed = 1;
nodes = (
(590,0,l),
(590,160,l),
(260,160,l),
(260,298,l),
(570,298,l),
(570,452,l),
(260,452,l),
(260,570,l),
(590,570,l),
(590,730,l),
(60,730,l),
(60,0,l)
);
}
);
width = 641;
}
);
metricLeft = "=H";
metricRight = "=H*.85";
unicode = 69;
},
{
color = 10;
glyphname = Schwa;
kernLeft = O;
kernRight = O;
lastChange = "2025-03-17 02:52:50 +0000";
layers = (
{
layerId = "D65C9A1E-0FCA-4B2D-8EDF-9F36CA9182A1";
shapes = (
{
closed = 1;
nodes = (
(257,740,o),
(159,716,o),
(83,676,c),
(92,658,l),
(167,698,o),
(262,720,o),
(353,720,cs),
(573,720,o),
(693,596,o),
(693,365,c),
(693,365,l),
(693,139,o),
(579,10,o),
(383,10,cs),
(187,10,o),
(73,139,o),
(73,365,c),
(57,348,l),
(703,348,l),
(703,368,l),
(52,368,l),
(52,366,o),
(52,366,o),
(52,365,cs),
(52,129,o),
(175,-10,o),
(383,-10,cs),
(591,-10,o),
(713,129,o),
(713,365,cs),
(713,606,o),
(585,740,o),
(353,740,cs)
);
}
);
width = 768;
},
{
layerId = "9527F797-22C1-480E-A1FE-2CDBEBE1FD4C";
shapes = (
{
closed = 1;
nodes = (
(245,740,o),
(151,720,o),
(82,688,c),
(107,588,l),
(181,622,o),
(263,640,o),
(343,640,cs),
(524,640,o),
(611,559,o),
(611,396,c),
(611,354,l),
(611,180,o),
(531,90,o),
(381,90,cs),
(231,90,o),
(151,180,o),
(151,354,c),
(110,314,l),
(643,314,l),
(643,413,l),
(44,413,l),
(42,403,o),
(41,377,o),
(41,358,cs),
(41,126,o),
(166,-10,o),
(378,-10,cs),
(593,-10,o),
(721,130,o),
(721,365,cs),
(721,606,o),
(584,740,o),
(336,740,cs)
);
}
);
width = 764;
},
{
layerId = "9E6B41AB-2970-4C41-8B35-4DBE0D296A43";
shapes = (
{
closed = 1;
nodes = (
(232,740,o),
(142,725,o),
(81,701,c),
(116,536,l),
(187,559,o),
(257,570,o),
(332,570,cs),
(474,570,o),
(529,531,o),
(529,430,cs),
(529,343,ls),
(529,215,o),
(483,160,o),
(379,160,cs),
(275,160,o),
(229,215,o),
(229,343,c),
(162,290,l),
(583,290,l),
(583,448,l),
(34,448,l),
(31,433,o),
(29,384,o),
(29,351,cs),
(29,123,o),
(156,-10,o),
(372,-10,cs),
(594,-10,o),
(729,131,o),
(729,365,cs),
(729,606,o),
(582,740,o),
(319,740,cs)
);
}
);
width = 759;
}
);
metricLeft = "=O*.95";
metricRight = "=O";
unicode = 399;
},
{
color = 10;
glyphname = F;
kernLeft = H;
kernRight = F;
lastChange = "2025-03-17 02:52:50 +0000";
layers = (
{
layerId = "D65C9A1E-0FCA-4B2D-8EDF-9F36CA9182A1";
metricRight = "=H*.55";
shapes = (
{
closed = 1;
nodes = (
(130,0,l),
(130,355,l),
(550,355,l),
(550,375,l),
(130,375,l),
(130,710,l),
(570,710,l),
(570,730,l),
(110,730,l),
(110,0,l)
);
}
);
width = 631;
},
{
layerId = "9527F797-22C1-480E-A1FE-2CDBEBE1FD4C";
metricRight = "=H*.65";
shapes = (
{
closed = 1;
nodes = (
(195,0,l),
(195,309,l),
(565,309,l),
(565,407,l),
(195,407,l),
(195,630,l),
(585,630,l),
(585,730,l),
(85,730,l),
(85,0,l)
);
}
);
width = 640;
},
{
layerId = "9E6B41AB-2970-4C41-8B35-4DBE0D296A43";
metricRight = "=H*.75";
shapes = (
{
closed = 1;
nodes = (
(260,0,l),
(260,270,l),
(580,270,l),
(580,430,l),
(260,430,l),
(260,565,l),
(600,565,l),
(600,730,l),
(60,730,l),
(60,0,l)
);
}
);
width = 645;
}
);
metricLeft = "=H";
metricRight = "=H*.75";
unicode = 70;
},
{
color = 10;
glyphname = G;
kernLeft = O;
kernRight = G;
lastChange = "2025-03-17 02:52:50 +0000";
layers = (
{
anchors = (
{
name = bottom;
pos = (386,0);
},
{
name = top;
pos = (386,730);
}
);
layerId = "9527F797-22C1-480E-A1FE-2CDBEBE1FD4C";
shapes = (
{
closed = 1;
nodes = (
(532,-10,o),
(632,11,o),
(703,47,c),
(703,421,l),
(348,421,l),
(348,327,l),
(593,327,l),
(593,88,l),
(610,127,l),
(563,103,o),
(501,90,o),
(438,90,cs),
(262,90,o),
(161,190,o),
(161,365,cs),
(161,538,o),
(262,640,o),
(432,640,cs),
(506,640,o),
(582,621,o),
(639,587,c),
(665,682,l),
(602,720,o),
(520,740,o),
(432,740,cs),
(190,740,o),
(43,598,o),
(43,365,cs),
(43,131,o),
(191,-10,o),
(438,-10,cs)
);
}
);
width = 775;
},
{
anchors = (
{
name = bottom;
pos = (379,0);
},
{
name = top;
pos = (379,730);
}
);
layerId = "9E6B41AB-2970-4C41-8B35-4DBE0D296A43";
shapes = (
{
closed = 1;
nodes = (
(538,-10,o),
(637,11,o),
(710,50,c),
(710,446,l),
(350,446,l),
(350,281,l),
(510,281,l),
(510,131,l),
(533,177,l),
(502,161,o),
(477,155,o),
(438,155,cs),
(306,155,o),
(240,225,o),
(240,365,cs),
(240,503,o),
(305,575,o),
(427,575,cs),
(493,575,o),
(571,554,o),
(621,524,c),
(663,684,l),
(599,721,o),
(519,740,o),
(427,740,cs),
(178,740,o),
(30,600,o),
(30,365,cs),
(30,128,o),
(181,-10,o),
(438,-10,cs)
);
}
);
width = 761;
},
{
anchors = (
{
name = bottom;
pos = (393,0);
},
{
name = top;
pos = (393,730);
}
);
layerId = "D65C9A1E-0FCA-4B2D-8EDF-9F36CA9182A1";
shapes = (
{
closed = 1;
nodes = (
(527,-10,o),
(627,11,o),
(695,44,c),
(695,395,l),
(345,395,l),
(345,375,l),
(675,375,l),
(675,45,l),
(686,62,l),
(621,30,o),
(524,10,o),
(437,10,cs),
(212,10,o),
(75,145,o),
(75,365,cs),
(75,585,o),
(212,720,o),
(437,720,cs),
(522,720,o),
(595,701,o),
(657,663,c),
(667,680,l),
(602,720,o),
(525,740,o),
(437,740,cs),
(201,740,o),
(55,596,o),
(55,365,cs),
(55,134,o),
(201,-10,o),
(437,-10,cs)
);
}
);
width = 789;
}
);
metricLeft = "=O";
metricRight = "=H*.85";
unicode = 71;
},
{
color = 10;
glyphname = H;
kernLeft = H;
kernRight = H;
lastChange = "2025-03-24 08:44:07 +0000";
layers = (
{
anchors = (
{
name = bottom;
pos = (331,0);
},
{
name = center;
pos = (331,365);
},
{
name = top;
pos = (331,730);
},
{
name = topleft;
pos = (-19,730);
}
);
layerId = "D65C9A1E-0FCA-4B2D-8EDF-9F36CA9182A1";
shapes = (
{
closed = 1;
nodes = (
(586,0,l),
(586,730,l),
(566,730,l),
(566,0,l)
);
},
{
closed = 1;
nodes = (
(96,0,l),
(96,730,l),
(76,730,l),
(76,0,l)
);
},
{
closed = 1;
nodes = (
(576,380,l),
(576,400,l),
(86,400,l),
(86,380,l)
);
}
);
width = 662;
},
{
anchors = (
{
name = bottom;
pos = (346,0);
},
{
name = center;
pos = (346,365);
},
{
name = top;
pos = (346,730);
},
{
name = topleft;
pos = (-9,730);
}
);
layerId = "9527F797-22C1-480E-A1FE-2CDBEBE1FD4C";
shapes = (
{
closed = 1;
nodes = (
(626,0,l),
(626,730,l),
(516,730,l),
(516,0,l)
);
},
{
closed = 1;
nodes = (
(176,0,l),
(176,730,l),
(66,730,l),
(66,0,l)
);
},
{
closed = 1;
nodes = (
(571,332,l),
(571,432,l),
(121,432,l),
(121,332,l)
);
}
);
width = 692;
},
{
anchors = (
{
name = bottom;
pos = (361,0);
},
{
name = center;
pos = (361,365);
},
{
name = top;
pos = (361,730);
},
{
name = topleft;
pos = (1,730);
}
);
layerId = "9E6B41AB-2970-4C41-8B35-4DBE0D296A43";
shapes = (
{
closed = 1;
nodes = (
(666,0,l),
(666,730,l),
(466,730,l),
(466,0,l)
);
},
{
closed = 1;
nodes = (
(256,0,l),
(256,730,l),
(56,730,l),
(56,0,l)
);
},
{
closed = 1;
nodes = (
(566,290,l),
(566,460,l),
(156,460,l),
(156,290,l)
);
}
);
width = 722;
}
);
metricRight = "=|";
unicode = 72;
},
{
color = 10;
glyphname = Hbar;
kernLeft = W;
kernRight = W;
lastChange = "2025-03-17 02:52:50 +0000";
layers = (
{
layerId = "D65C9A1E-0FCA-4B2D-8EDF-9F36CA9182A1";
shapes = (
{
closed = 1;
nodes = (
(775,586,l),
(775,606,l),
(35,606,l),
(35,586,l)
);
},
{
pos = (35,0);
ref = H;
}
);
width = 810;
},
{
layerId = "9527F797-22C1-480E-A1FE-2CDBEBE1FD4C";
shapes = (
{
closed = 1;
nodes = (
(804,551,l),
(804,641,l),
(30,641,l),
(30,551,l)
);
},
{
alignment = -1;
pos = (42,0);
ref = H;
}
);
width = 834;
},
{
layerId = "9E6B41AB-2970-4C41-8B35-4DBE0D296A43";
shapes = (
{
closed = 1;
nodes = (
(834,526,l),
(834,666,l),
(24,666,l),
(24,526,l)
);
},
{
pos = (49,0);
ref = H;
}
);
width = 858;
}
);
metricLeft = "=W";
metricRight = "=|";
unicode = 294;
},
{
color = 10;
glyphname = I;
kernLeft = I;
kernRight = I;
lastChange = "2025-03-17 02:52:50 +0000";
layers = (
{
anchors = (
{
name = bottom;
pos = (131,0);
},
{
name = ogonek;
pos = (141,0);
},
{
name = top;
pos = (131,730);
},
{
name = topleft;
pos = (36,730);
}
);
layerId = "D65C9A1E-0FCA-4B2D-8EDF-9F36CA9182A1";
shapes = (
{
closed = 1;
nodes = (
(141,0,l),
(141,730,l),
(121,730,l),
(121,0,l)
);
}
);
width = 262;
},
{
anchors = (
{
name = bottom;
pos = (151,0);
},
{
name = ogonek;
pos = (208,0);
},
{
name = top;
pos = (151,730);
},
{
name = topleft;
pos = (26,730);
}
);
layerId = "9527F797-22C1-480E-A1FE-2CDBEBE1FD4C";
shapes = (
{
closed = 1;
nodes = (
(208,0,l),
(208,730,l),
(94,730,l),
(94,0,l)
);
}
);
width = 302;
},
{
anchors = (
{
name = bottom;
pos = (171,0);
},
{
name = ogonek;
pos = (276,0);
},
{
name = top;
pos = (171,730);
},
{
name = topleft;
pos = (14,730);
}
);
layerId = "9E6B41AB-2970-4C41-8B35-4DBE0D296A43";
shapes = (
{
closed = 1;
nodes = (
(276,0,l),
(276,730,l),
(66,730,l),
(66,0,l)
);
}
);
width = 342;
}
);
metricLeft = "=H*1.1";
metricRight = "=|";
unicode = 73;
},
{
color = 10;
glyphname = J;
kernLeft = J;
kernRight = U;
lastChange = "2025-03-17 02:52:50 +0000";
layers = (
{
anchors = (
{
name = bottom;
pos = (300,0);
},
{
name = top;
pos = (300,730);
}
);
layerId = "9527F797-22C1-480E-A1FE-2CDBEBE1FD4C";
metricLeft = "=H*.2";
shapes = (
{
closed = 1;
nodes = (
(437,-10,o),
(527,87,o),
(527,290,cs),
(527,730,l),
(414,730,l),
(414,310,ls),
(414,153,o),
(364,92,o),
(240,92,cs),
(175,92,o),
(114,109,o),
(39,148,c),
(17,50,l),
(85,10,o),
(161,-10,o),
(247,-10,cs)
);
}
);
width = 604;
},
{
anchors = (
{
name = bottom;
pos = (297,0);
},
{
name = top;
pos = (297,730);
}
);
layerId = "9E6B41AB-2970-4C41-8B35-4DBE0D296A43";
metricLeft = "=H*.1";
shapes = (
{
closed = 1;
nodes = (
(450,-10,o),
(546,88,o),
(546,300,cs),
(546,730,l),
(341,730,l),
(341,340,ls),
(341,204,o),
(316,165,o),
(230,165,cs),
(180,165,o),
(132,178,o),
(36,214,c),
(6,39,l),
(83,6,o),
(159,-10,o),
(243,-10,cs)
);
}
);
width = 600;
},
{
anchors = (
{
name = bottom;
pos = (309,0);
},
{
name = top;
pos = (309,730);
}
);
layerId = "D65C9A1E-0FCA-4B2D-8EDF-9F36CA9182A1";
metricLeft = "=H*.3";
shapes = (
{
closed = 1;
nodes = (
(429,-10,o),
(513,85,o),
(513,280,cs),
(513,730,l),
(493,730,l),
(493,280,ls),
(493,96,o),
(417,10,o),
(256,10,cs),
(173,10,o),
(102,32,o),
(45,76,c),
(33,60,l),
(93,14,o),
(169,-10,o),
(256,-10,cs)
);
}
);
width = 612;
}
);
metricLeft = "=H*.05";
metricRight = "=U";
unicode = 74;
},
{
color = 10;
glyphname = K;
kernLeft = H;
kernRight = K;
lastChange = "2025-03-17 02:52:50 +0000";
layers = (
{
anchors = (
{
name = bottom;
pos = (325,0);
},
{
name = top;
pos = (325,730);
}
);
layerId = "D65C9A1E-0FCA-4B2D-8EDF-9F36CA9182A1";
metricRight = "=H*.3";
shapes = (
{
closed = 1;
nodes = (
(130,0,l),
(130,376,l),
(132,376,l),
(618,0,l),
(650,0,l),
(146,390,l),
(640,730,l),
(606,730,l),
(132,404,l),
(130,404,l),
(130,730,l),
(110,730,l),
(110,0,l)
);
}
);
width = 683;
},
{
anchors = (
{
name = bottom;
pos = (338,0);
},
{
name = top;
pos = (338,730);
}
);
layerId = "9527F797-22C1-480E-A1FE-2CDBEBE1FD4C";
metricRight = "=H*.25";
shapes = (
{
closed = 1;
nodes = (
(195,0,l),
(195,351,l),
(197,351,l),
(545,0,l),
(685,0,l),
(306,382,l),
(675,730,l),
(535,730,l),
(197,413,l),
(195,413,l),
(195,730,l),
(85,730,l),
(85,0,l)
);
}
);
width = 706;
},
{
anchors = (
{
name = bottom;
pos = (350,0);
},
{
name = top;
pos = (350,730);
}
);
layerId = "9E6B41AB-2970-4C41-8B35-4DBE0D296A43";
metricRight = "=H*.2";
shapes = (
{
closed = 1;
nodes = (
(260,0,l),
(260,335,l),
(262,335,l),
(490,0,l),
(720,0,l),
(465,375,l),
(710,730,l),
(480,730,l),
(262,415,l),
(260,415,l),
(260,730,l),
(60,730,l),
(60,0,l)
);
}
);
width = 732;
}
);
metricLeft = "=H";
metricRight = "=H*.2";
unicode = 75;
},
{
color = 10;
glyphname = L;
kernLeft = H;
kernRight = L;
lastChange = "2025-03-17 02:52:50 +0000";
layers = (
{
anchors = (
{
name = bottom;
pos = (322,0);
},
{
name = center;
pos = (322,375);
},
{
name = pdcenter;
pos = (550,375);
},
{
name = top;
pos = (322,730);
},
{
name = topright;
pos = (593,730);
}
);
layerId = "D65C9A1E-0FCA-4B2D-8EDF-9F36CA9182A1";
metricRight = "=H*.5";
shapes = (
{
closed = 1;
nodes = (
(580,0,l),
(580,20,l),
(130,20,l),
(130,730,l),
(110,730,l),
(110,0,l)
);
}
);
width = 635;
},
{
anchors = (
{
name = bottom;
pos = (318,0);
},
{
name = center;
pos = (318,375);
},
{
name = pdcenter;
pos = (535,375);
},
{
name = top;
pos = (318,730);
},
{
name = topright;
pos = (611,730);
}
);
layerId = "9527F797-22C1-480E-A1FE-2CDBEBE1FD4C";
metricRight = "=H*.45";
shapes = (
{
closed = 1;
nodes = (
(595,0,l),
(595,100,l),
(198,100,l),
(198,730,l),
(85,730,l),
(85,0,l)
);
}
);
width = 633;
},
{
anchors = (
{
name = bottom;
pos = (316,0);
},
{
name = center;
pos = (316,375);
},
{
name = pdcenter;
pos = (520,375);
},
{
name = top;
pos = (316,730);
},
{
name = topright;
pos = (611,730);
}
);
layerId = "9E6B41AB-2970-4C41-8B35-4DBE0D296A43";
metricRight = "=H*.4";
shapes = (
{
closed = 1;
nodes = (
(610,0,l),
(610,170,l),
(265,170,l),
(265,730,l),
(60,730,l),
(60,0,l)
);
}
);
width = 634;
}
);
metricLeft = "=H";
metricRight = "=H*.4";
unicode = 76;
},
{
color = 10;
glyphname = Lslash;
kernLeft = t;
kernRight = L;
lastChange = "2025-03-17 02:52:50 +0000";
layers = (
{
layerId = "D65C9A1E-0FCA-4B2D-8EDF-9F36CA9182A1";
shapes = (
{
closed = 1;
nodes = (
(359,431,l),
(351,449,l),
(21,299,l),
(29,281,l)
);
},
{
pos = (65,0);
ref = L;
}
);
width = 700;
},
{
layerId = "9527F797-22C1-480E-A1FE-2CDBEBE1FD4C";
shapes = (
{
closed = 1;
nodes = (
(445,407,l),
(409,491,l),
(9,323,l),
(45,239,l)
);
},
{
pos = (79,0);
ref = L;
}
);
width = 712;
},
{
layerId = "9E6B41AB-2970-4C41-8B35-4DBE0D296A43";
shapes = (
{
closed = 1;
nodes = (
(531,393,l),
(476,523,l),
(7,337,l),
(62,207,l)
);
},
{
pos = (99,0);
ref = L;
}
);
width = 733;
}
);
metricLeft = "=t*.5";
metricRight = "=L";
unicode = 321;
},
{
color = 10;
glyphname = M;
kernLeft = A;
kernRight = A;
lastChange = "2025-03-17 02:52:50 +0000";
layers = (
{
layerId = "D65C9A1E-0FCA-4B2D-8EDF-9F36CA9182A1";
metricLeft = "=A*3.0";
shapes = (
{
closed = 1;
nodes = (
(87,0,l),
(175,704,l),
(176,704,l),
(420,80,l),
(452,80,l),
(696,704,l),
(697,704,l),
(785,0,l),
(806,0,l),
(714,730,l),
(684,730,l),
(437,97,l),
(435,97,l),
(188,730,l),
(158,730,l),
(66,0,l)
);
}
);
width = 872;
},
{
layerId = "9527F797-22C1-480E-A1FE-2CDBEBE1FD4C";
metricLeft = "=A*3.6";
shapes = (
{
closed = 1;
nodes = (
(159,0,l),
(216,562,l),
(218,562,l),
(384,80,l),
(500,80,l),
(666,562,l),
(668,562,l),
(725,0,l),
(837,0,l),
(747,730,l),
(611,730,l),
(443,219,l),
(441,219,l),
(273,730,l),
(137,730,l),
(47,0,l)
);
}
);
width = 884;
},
{
layerId = "9E6B41AB-2970-4C41-8B35-4DBE0D296A43";
metricLeft = "=A*4.2";
shapes = (
{
closed = 1;
nodes = (
(225,0,l),
(254,460,l),
(256,460,l),
(345,80,l),
(545,80,l),
(634,460,l),
(636,460,l),
(665,0,l),
(865,0,l),
(777,730,l),
(537,730,l),
(446,280,l),
(444,280,l),
(353,730,l),
(113,730,l),
(25,0,l)
);
}
);
width = 890;
}
);
metricLeft = "=H";
metricRight = "=|";
unicode = 77;
},
{
color = 10;
glyphname = N;
kernLeft = H;
kernRight = H;
lastChange = "2025-03-17 02:52:50 +0000";
layers = (
{
anchors = (
{
name = bottom;
pos = (380,0);
},
{
name = top;
pos = (380,730);
}
);
layerId = "D65C9A1E-0FCA-4B2D-8EDF-9F36CA9182A1";
shapes = (
{
closed = 1;
nodes = (
(130,0,l),
(130,709,l),
(132,709,l),
(619,0,l),
(650,0,l),
(650,730,l),
(630,730,l),
(630,21,l),
(628,21,l),
(141,730,l),
(110,730,l),
(110,0,l)
);
}
);
width = 760;
},
{
anchors = (
{
name = bottom;
pos = (375,0);
},
{
name = top;
pos = (375,730);
}
);
layerId = "9527F797-22C1-480E-A1FE-2CDBEBE1FD4C";
shapes = (
{
closed = 1;
nodes = (
(195,0,l),
(195,550,l),
(197,550,l),
(545,0,l),
(665,0,l),
(665,730,l),
(555,730,l),
(555,180,l),
(553,180,l),
(205,730,l),
(85,730,l),
(85,0,l)
);
}
);
width = 750;
},
{
anchors = (
{
name = bottom;
pos = (370,0);
},
{
name = top;
pos = (370,730);
}
);
layerId = "9E6B41AB-2970-4C41-8B35-4DBE0D296A43";
shapes = (
{
closed = 1;
nodes = (
(260,0,l),
(260,390,l),
(262,390,l),
(480,0,l),
(680,0,l),
(680,730,l),
(480,730,l),
(480,340,l),
(478,340,l),
(260,730,l),
(60,730,l),
(60,0,l)
);
}
);
width = 740;
}
);
metricLeft = "=H";
metricRight = "=|";
unicode = 78;
},
{
color = 10;
glyphname = Eng;
kernLeft = H;
kernRight = H;
lastChange = "2025-03-17 02:52:50 +0000";
layers = (
{
anchors = (
{
name = bottom;
pos = (380,0);
},
{
name = top;
pos = (380,730);
}
);
layerId = "D65C9A1E-0FCA-4B2D-8EDF-9F36CA9182A1";
shapes = (
{
closed = 1;
nodes = (
(607,-211,o),
(650,-164,o),
(650,-61,cs),
(650,730,l),
(630,730,l),
(630,21,l),
(628,21,l),
(141,730,l),
(110,730,l),
(110,0,l),
(130,0,l),
(130,709,l),
(132,709,l),
(641,-32,l),
(630,0,l),
(630,-61,ls),
(630,-153,o),
(595,-191,o),
(510,-191,cs),
(485,-191,o),
(459,-186,o),
(437,-177,c),
(430,-196,l),
(454,-205,o),
(483,-211,o),
(510,-211,cs)
);
}
);
width = 760;
},
{
anchors = (
{
name = bottom;
pos = (375,0);
},
{
name = top;
pos = (375,730);
}
);
layerId = "9527F797-22C1-480E-A1FE-2CDBEBE1FD4C";
shapes = (
{
closed = 1;
nodes = (
(613,-221,o),
(665,-163,o),
(665,-26,cs),
(665,730,l),
(555,730,l),
(555,180,l),
(553,180,l),
(205,730,l),
(85,730,l),
(85,0,l),
(195,0,l),
(195,550,l),
(197,550,l),
(571,-41,l),
(557,9,l),
(557,-26,ls),
(557,-97,o),
(531,-126,o),
(467,-126,cs),
(442,-126,o),
(416,-122,o),
(392,-114,c),
(375,-205,l),
(413,-216,o),
(451,-221,o),
(489,-221,cs)
);
}
);
width = 750;
},
{
anchors = (
{
name = bottom;
pos = (370,0);
},
{
name = top;
pos = (370,730);
}
);
layerId = "9E6B41AB-2970-4C41-8B35-4DBE0D296A43";
shapes = (
{
closed = 1;
nodes = (
(625,-229,o),
(680,-169,o),
(680,0,cs),
(680,730,l),
(480,730,l),
(480,340,l),
(478,340,l),
(260,730,l),
(60,730,l),
(60,0,l),
(260,0,l),
(260,390,l),
(262,390,l),
(524,-79,l),
(480,90,l),
(480,0,l),
(480,-55,o),
(468,-70,o),
(425,-70,cs),
(404,-70,o),
(370,-66,o),
(342,-59,c),
(322,-214,l),
(370,-223,o),
(420,-229,o),
(468,-229,cs)
);
}
);
width = 740;
}
);
metricLeft = "=N";
metricRight = "=N";
unicode = 330;
},
{
color = 10;
glyphname = O;
kernLeft = O;
kernRight = O;
lastChange = "2025-03-17 02:52:50 +0000";
layers = (
{
anchors = (
{
name = bottom;
pos = (425,0);
},
{
name = center;
pos = (425,365);
},
{
name = ogonek;
pos = (475,0);
},
{
name = top;
pos = (425,730);
},
{
name = topleft;
pos = (47,730);
},
{
name = topright;
pos = (632,640);
}
);
layerId = "D65C9A1E-0FCA-4B2D-8EDF-9F36CA9182A1";
shapes = (
{
closed = 1;
nodes = (
(645,-10,o),
(795,142,o),
(795,365,cs),
(795,588,o),
(645,740,o),
(425,740,cs),
(205,740,o),
(55,588,o),
(55,365,cs),
(55,142,o),
(205,-10,o),
(425,-10,cs)
);
},
{
closed = 1;
nodes = (
(216,10,o),
(75,153,o),
(75,365,cs),
(75,577,o),
(216,720,o),
(425,720,cs),
(634,720,o),
(775,577,o),
(775,365,cs),
(775,153,o),
(634,10,o),
(425,10,cs)
);
}
);
width = 850;
},
{
anchors = (
{
name = bottom;
pos = (418,0);
},
{
name = center;
pos = (418,365);
},
{
name = ogonek;
pos = (485,0);
},
{
name = top;
pos = (418,730);
},
{
name = topleft;
pos = (36,730);
},
{
name = topright;
pos = (623,650);
}
);
layerId = "9527F797-22C1-480E-A1FE-2CDBEBE1FD4C";
shapes = (
{
closed = 1;
nodes = (
(647,-10,o),
(793,136,o),
(793,365,cs),
(793,594,o),
(647,740,o),
(418,740,cs),
(189,740,o),
(43,594,o),
(43,365,cs),
(43,136,o),
(189,-10,o),
(418,-10,cs)
);
},
{
closed = 1;
nodes = (
(255,90,o),
(156,195,o),
(156,365,cs),
(156,535,o),
(255,640,o),
(418,640,cs),
(580,640,o),
(680,535,o),
(680,365,cs),
(680,195,o),
(580,90,o),
(418,90,cs)
);
}
);
width = 836;
},
{
anchors = (
{
name = bottom;
pos = (410,0);
},
{
name = center;
pos = (410,365);
},
{
name = ogonek;
pos = (493,0);
},
{
name = top;
pos = (410,730);
},
{
name = topleft;
pos = (23,730);
},
{
name = topright;
pos = (622,640);
}
);
layerId = "9E6B41AB-2970-4C41-8B35-4DBE0D296A43";
shapes = (
{
closed = 1;
nodes = (
(649,-10,o),
(790,129,o),
(790,365,cs),
(790,601,o),
(649,740,o),
(410,740,cs),
(171,740,o),
(30,601,o),
(30,365,cs),
(30,129,o),
(171,-10,o),
(410,-10,cs)
);
},
{
closed = 1;
nodes = (
(294,160,o),
(235,229,o),
(235,365,cs),
(235,501,o),
(294,570,o),
(410,570,cs),
(526,570,o),
(585,501,o),
(585,365,cs),
(585,229,o),
(526,160,o),
(410,160,cs)
);
}
);
width = 820;
}
);
metricLeft = "=H*.5";
metricRight = "=|";
unicode = 79;
},
{
color = 10;
glyphname = Oogonek;
kernLeft = O;
kernRight = O;
lastChange = "2025-03-17 02:52:50 +0000";
layers = (
{
layerId = "D65C9A1E-0FCA-4B2D-8EDF-9F36CA9182A1";
shapes = (
{
closed = 1;
nodes = (
(450,-220,o),
(472,-214,o),
(490,-203,c),
(482,-185,l),
(463,-195,o),
(444,-200,o),
(426,-200,cs),
(378,-200,o),
(353,-178,o),
(353,-135,cs),
(353,-91,o),
(389,-26,o),
(515,-1,c),
(505.446,16.196,l),
(373.27,-12.948,o),
(333,-82.124,o),
(333,-135,cs),
(333,-191,o),
(365,-220,o),
(426,-220,cs)
);
},
{
ref = O;
}
);
width = 850;
},
{
layerId = "9527F797-22C1-480E-A1FE-2CDBEBE1FD4C";
shapes = (
{
closed = 1;
nodes = (
(458,-217,o),
(484,-213,o),
(507,-205,c),
(490,-120,l),
(477,-127,o),
(463,-130,o),
(448,-130,cs),
(423,-130,o),
(410,-117,o),
(410,-93,cs),
(410,-67,o),
(445,-19,o),
(505,-2,c),
(398.434,25.767,l),
(338.517,-9.633,o),
(308,-61.707,o),
(308,-107,cs),
(308,-177,o),
(352,-217,o),
(429,-217,cs)
);
},
{
ref = O;
}
);
width = 836;
},
{
layerId = "9E6B41AB-2970-4C41-8B35-4DBE0D296A43";
shapes = (
{
closed = 1;
nodes = (
(498,-220,o),
(522,-217,o),
(545,-210,c),
(530,-75,l),
(515,-81,o),
(496,-85,o),
(482,-85,cs),
(454,-85,o),
(441,-75,o),
(441,-53,cs),
(441,-32,o),
(457,-16,o),
(493,-3,c),
(356.535,46.257,l),
(292.899,0.742,o),
(265,-36.087,o),
(265,-82,cs),
(265,-170,o),
(338,-220,o),
(470,-220,cs)
);
},
{
ref = O;
}
);
width = 820;
}
);
unicode = 490;
},
{
color = 10;
glyphname = Oslash;
kernLeft = O;
kernRight = O;
lastChange = "2025-03-17 02:52:50 +0000";
layers = (
{
anchors = (
{
name = bottom;
pos = (418,0);
},
{
name = top;
pos = (418,730);
}
);
layerId = "D65C9A1E-0FCA-4B2D-8EDF-9F36CA9182A1";
shapes = (
{
closed = 1;
nodes = (
(205,63,l),
(205,63,l),
(647,655,l),
(647,655,l),
(706,734,l),
(690,746,l),
(631,667,l),
(631,667,l),
(189,75,l),
(189,75,l),
(130,-4,l),
(146,-16,l)
);
},
{
ref = O;
}
);
width = 794;
},
{
anchors = (
{
name = bottom;
pos = (415,0);
},
{
name = top;
pos = (415,730);
}
);
layerId = "9527F797-22C1-480E-A1FE-2CDBEBE1FD4C";
shapes = (
{
closed = 1;
nodes = (
(230,41,l),
(230,41,l),
(670,629,l),
(670,629,l),
(732,713,l),
(659,768,l),
(601,689,l),
(601,689,l),
(161,101,l),
(161,101,l),
(98,18,l),
(171,-38,l)
);
},
{
alignment = -1;
ref = O;
}
);
width = 804;
},
{
anchors = (
{
name = bottom;
pos = (413,0);
},
{
name = top;
pos = (413,730);
}
);
layerId = "9E6B41AB-2970-4C41-8B35-4DBE0D296A43";
shapes = (
{
closed = 1;
nodes = (
(255,28,l),
(243,37,l),
(679,621,l),
(691,612,l),
(753,695,l),
(633,785,l),
(571,702,l),
(583,693,l),
(147,109,l),
(135,118,l),
(73,35,l),
(193,-55,l)
);
},
{
ref = O;
}
);
width = 814;
}
);
unicode = 216;
},
{
color = 10;
glyphname = OE;
kernLeft = O;
kernRight = E;
lastChange = "2025-03-17 02:52:50 +0000";
layers = (
{
layerId = "D65C9A1E-0FCA-4B2D-8EDF-9F36CA9182A1";
shapes = (
{
closed = 1;
nodes = (
(471,-10,o),
(541,-4,o),
(587,4,c),
(577.863,22.926,l),
(532.788,15.09,o),
(468.29,10,o),
(425,10,cs),
(221,10,o),
(75,158,o),
(75,365,cs),
(75,572,o),
(221,720,o),
(425,720,cs),
(468.29,720,o),
(532.788,714.91,o),
(577.863,707.074,c),
(587,726,l),
(541,734,o),
(471,740,o),
(425,740,cs),
(210,740,o),
(55,583,o),
(55,365,cs),
(55,147,o),
(210,-10,o),
(425,-10,cs)
);
},
{
pos = (450,0);
ref = E;
}
);
width = 1073;
},
{
layerId = "9527F797-22C1-480E-A1FE-2CDBEBE1FD4C";
shapes = (
{
closed = 1;
nodes = (
(500,-10,o),
(573,11,o),
(632,49,c),
(557.112,127.323,l),
(518.203,103.35,o),
(471.105,90,o),
(418,90,cs),
(263,90,o),
(156,202,o),
(156,365,cs),
(156,528,o),
(263,640,o),
(418,640,cs),
(471.105,640,o),
(518.203,626.65,o),
(557.112,602.677,c),
(632,681,l),
(573,719,o),
(500,740,o),
(418,740,cs),
(196,740,o),
(43,587,o),
(43,365,cs),
(43,143,o),
(196,-10,o),
(418,-10,cs)
);
},
{
alignment = -1;
pos = (427,0);
ref = E;
}
);
width = 1060;
},
{
layerId = "9E6B41AB-2970-4C41-8B35-4DBE0D296A43";
shapes = (
{
closed = 1;
nodes = (
(526,-10,o),
(622,28,o),
(688,95,c),
(549.846,231.786,l),
(518.734,185.764,o),
(470.808,160,o),
(410,160,cs),
(304,160,o),
(235,241,o),
(235,365,cs),
(235,489,o),
(304,570,o),
(410,570,cs),
(470.808,570,o),
(518.734,544.236,o),
(549.846,498.214,c),
(688,635,l),
(622,702,o),
(526,740,o),
(410,740,cs),
(181,740,o),
(30,591,o),
(30,365,cs),
(30,139,o),
(181,-10,o),
(410,-10,cs)
);
},
{
pos = (448,0);
ref = E;
}
);
width = 1089;
}
);
metricLeft = "=O";
metricRight = "=E";
unicode = 338;
},
{
color = 10;
glyphname = P;
kernLeft = H;
kernRight = P;
lastChange = "2025-03-17 02:52:50 +0000";
layers = (
{
layerId = "D65C9A1E-0FCA-4B2D-8EDF-9F36CA9182A1";
metricRight = "=H*.3";
shapes = (
{
closed = 1;
nodes = (
(110,0,l),
(130,0,l),
(130,716,l),
(113,706,l),
(179,716,o),
(235,720,o),
(287,720,cs),
(487,720,o),
(570,658,o),
(570,510,cs),
(570,362,o),
(487,300,o),
(287,300,cs),
(240,300,o),
(199,303,o),
(123,314,c),
(120,294,l),
(194,284,o),
(237,280,o),
(287,280,cs),
(498,280,o),
(590,350,o),
(590,510,cs),
(590,670,o),
(498,740,o),
(287,740,cs),
(237,740,o),
(181,736,o),
(110,726,c)
);
}
);
width = 623;
},
{
layerId = "9527F797-22C1-480E-A1FE-2CDBEBE1FD4C";
metricRight = "=H*.35";
shapes = (
{
closed = 1;
nodes = (
(85,0,l),
(195,0,l),
(195,688,l),
(142,627,l),
(197,636,o),
(253,640,o),
(297,640,cs),
(444,640,o),
(503,596,o),
(503,488,cs),
(503,380,o),
(443,335,o),
(297,335,cs),
(259,335,o),
(219,338,o),
(142,348,c),
(140,249,l),
(217,239,o),
(265,235,o),
(310,235,cs),
(515,235,o),
(615,319,o),
(615,488,cs),
(615,659,o),
(513,740,o),
(295,740,cs),
(241,740,o),
(161,735,o),
(85,726,c)
);
}
);
width = 645;
},
{
layerId = "9E6B41AB-2970-4C41-8B35-4DBE0D296A43";
metricRight = "=H*.4";
shapes = (
{
closed = 1;
nodes = (
(60,0,l),
(260,0,l),
(260,660,l),
(170,566,l),
(225,575,o),
(274,580,o),
(307,580,cs),
(395,580,o),
(435,544,o),
(435,465,cs),
(435,386,o),
(395,350,o),
(307,350,cs),
(271,350,o),
(210,356,o),
(160,364,c),
(160,204,l),
(224,195,o),
(288,190,o),
(333,190,cs),
(532,190,o),
(640,287,o),
(640,465,cs),
(640,648,o),
(527,740,o),
(302,740,cs),
(245,740,o),
(141,734,o),
(60,726,c)
);
}
);
width = 664;
}
);
metricLeft = "=H";
metricRight = "=H*.4";
unicode = 80;
},
{
color = 10;
glyphname = Thorn;
kernLeft = H;
kernRight = O;
lastChange = "2025-03-17 02:52:50 +0000";
layers = (
{
layerId = "D65C9A1E-0FCA-4B2D-8EDF-9F36CA9182A1";
shapes = (
{
closed = 1;
nodes = (
(498,145,o),
(590,215,o),
(590,375,cs),
(590,535,o),
(498,605,o),
(287,605,cs),
(237,605,o),
(194,601,o),
(120,591,c),
(123,571,l),
(199,582,o),
(240,585,o),
(287,585,cs),
(487,585,o),
(570,523,o),
(570,375,cs),
(570,227,o),
(487,165,o),
(287,165,cs),
(240,165,o),
(199,168,o),
(123,179,c),
(120,159,l),
(194,149,o),
(237,145,o),
(287,145,cs)
);
},
{
closed = 1;
nodes = (
(130,0,l),
(130,730,l),
(110,730,l),
(110,0,l)
);
}
);
width = 623;
},
{
layerId = "9527F797-22C1-480E-A1FE-2CDBEBE1FD4C";
shapes = (
{
closed = 1;
nodes = (
(515,122,o),
(615,206,o),
(615,375,cs),
(615,544,o),
(515,628,o),
(310,628,cs),
(265,628,o),
(217,624,o),
(140,614,c),
(142,515,l),
(219,525,o),
(259,528,o),
(297,528,cs),
(443,528,o),
(503,483,o),
(503,375,cs),
(503,267,o),
(443,222,o),
(297,222,cs),
(259,222,o),
(219,225,o),
(142,235,c),
(140,136,l),
(217,126,o),
(265,122,o),
(310,122,cs)
);
},
{
closed = 1;
nodes = (
(195,0,l),
(195,730,l),
(85,730,l),
(85,0,l)
);
}
);
width = 645;
},
{
layerId = "9E6B41AB-2970-4C41-8B35-4DBE0D296A43";
shapes = (
{
closed = 1;
nodes = (
(532,100,o),
(640,197,o),
(640,375,cs),
(640,553,o),
(532,650,o),
(333,650,cs),
(288,650,o),
(224,645,o),
(160,636,c),
(160,476,l),
(210,484,o),
(271,490,o),
(307,490,cs),
(395,490,o),
(435,454,o),
(435,375,cs),
(435,296,o),
(395,260,o),
(307,260,cs),
(271,260,o),
(210,266,o),
(160,274,c),
(160,114,l),
(224,105,o),
(288,100,o),
(333,100,cs)
);
},
{
closed = 1;
nodes = (
(260,0,l),
(260,730,l),
(60,730,l),
(60,0,l)
);
}
);
width = 664;
}
);
metricLeft = "=P";
metricRight = "=P";
unicode = 222;
},
{
color = 10;
glyphname = Q;
kernLeft = O;
kernRight = O;
lastChange = "2025-03-17 02:52:50 +0000";
layers = (
{
layerId = "D65C9A1E-0FCA-4B2D-8EDF-9F36CA9182A1";
metricRight = "=O";
shapes = (
{
closed = 1;
nodes = (
(791,-102,l),
(730,-46,o),
(641,-11,o),
(528,2,c),
(528,4,l),
(691,47,o),
(795,187,o),
(795,365,cs),
(795,583,o),
(640,740,o),
(425,740,cs),
(210,740,o),
(55,583,o),
(55,365,cs),
(55,147,o),
(210,-10,o),
(425,-10,cs),
(583,-10,o),
(702,-46,o),
(775,-116,c)
);
},
{
closed = 1;
nodes = (
(221,10,o),
(75,158,o),
(75,365,cs),
(75,572,o),
(221,720,o),
(425,720,cs),
(629,720,o),
(775,572,o),
(775,365,cs),
(775,158,o),
(629,10,o),
(425,10,cs)
);
}
);
width = 850;
},
{
layerId = "9E6B41AB-2970-4C41-8B35-4DBE0D296A43";
metricRight = "=O-12";
shapes = (
{
closed = 1;
nodes = (
(800,-40,l),
(769,9,o),
(711,55,o),
(656,74,c),
(656,76,l),
(745,145,o),
(790,242,o),
(790,365,cs),
(790,591,o),
(639,740,o),
(410,740,cs),
(181,740,o),
(30,591,o),
(30,365,cs),
(30,139,o),
(181,-10,o),
(410,-10,cs),
(521,-10,o),
(572,-41,o),
(640,-150,c)
);
},
{
closed = 1;
nodes = (
(304,160,o),
(235,241,o),
(235,365,cs),
(235,489,o),
(304,570,o),
(410,570,cs),
(516,570,o),
(585,489,o),
(585,365,cs),
(585,241,o),
(516,160,o),
(410,160,cs)
);
}
);
width = 818;
},
{
layerId = "9527F797-22C1-480E-A1FE-2CDBEBE1FD4C";
metricRight = "=O-11";
shapes = (
{
closed = 1;
nodes = (
(796,-71,l),
(750,-19,o),
(676,22,o),
(592,38,c),
(592,40,l),
(722,97,o),
(793,214,o),
(793,365,cs),
(793,587,o),
(640,740,o),
(418,740,cs),
(196,740,o),
(43,587,o),
(43,365,cs),
(43,143,o),
(196,-10,o),
(418,-10,cs),
(552,-10,o),
(637,-44,o),
(708,-133,c)
);
},
{
closed = 1;
nodes = (
(263,90,o),
(156,202,o),
(156,365,cs),
(156,528,o),
(263,640,o),
(418,640,cs),
(573,640,o),
(680,528,o),
(680,365,cs),
(680,202,o),
(573,90,o),
(418,90,cs)
);
}
);
width = 828;
}
);
metricLeft = "=O";
metricRight = "=O-12";
unicode = 81;
},
{
color = 10;
glyphname = R;
kernLeft = H;
kernRight = R;
lastChange = "2025-03-17 02:52:50 +0000";
layers = (
{
anchors = (
{
name = bottom;
pos = (345,0);
},
{
name = top;
pos = (345,730);
}
);
layerId = "9527F797-22C1-480E-A1FE-2CDBEBE1FD4C";
shapes = (
{
closed = 1;
nodes = (
(85,0,l),
(195,0,l),
(195,688,l),
(142,627,l),
(216,636,o),
(266,640,o),
(310,640,cs),
(446,640,o),
(503,602,o),
(503,512,cs),
(503,422,o),
(446,384,o),
(310,384,cs),
(266,384,o),
(216,388,o),
(142,397,c),
(123,298,l),
(184,292,o),
(253,288,o),
(305,288,cs),
(520,288,o),
(615,357,o),
(615,514,cs),
(615,671,o),
(520,740,o),
(305,740,cs),
(242,740,o),
(154,734,o),
(85,726,c)
);
},
{
closed = 1;
nodes = (
(655,0,l),
(279,345,l),
(140,345,l),
(511,0,l)
);
}
);
width = 689;
},
{
anchors = (
{
name = bottom;
pos = (357,0);
},
{
name = top;
pos = (347,730);
}
);
layerId = "9E6B41AB-2970-4C41-8B35-4DBE0D296A43";
shapes = (
{
closed = 1;
nodes = (
(60,0,l),
(260,0,l),
(260,660,l),
(170,566,l),
(219,574,o),
(286,580,o),
(322,580,cs),
(400,580,o),
(435,552,o),
(435,489,cs),
(435,426,o),
(400,398,o),
(322,398,cs),
(286,398,o),
(219,404,o),
(170,412,c),
(162,258,l),
(207,255,o),
(268,252,o),
(312,252,cs),
(537,252,o),
(640,329,o),
(640,496,cs),
(640,663,o),
(537,740,o),
(312,740,cs),
(251,740,o),
(145,734,o),
(60,726,c)
);
},
{
closed = 1;
nodes = (
(690,0,l),
(421,327,l),
(203,327,l),
(462,0,l)
);
}
);
width = 714;
},
{
anchors = (
{
name = bottom;
pos = (332,0);
},
{
name = top;
pos = (322,730);
}
);
layerId = "D65C9A1E-0FCA-4B2D-8EDF-9F36CA9182A1";
shapes = (
{
closed = 1;
nodes = (
(110,0,l),
(130,0,l),
(130,716,l),
(113,706,l),
(190,716,o),
(243,720,o),
(297,720,cs),
(492,720,o),
(570,667,o),
(570,540,cs),
(570,413,o),
(492,360,o),
(297,360,cs),
(243,360,o),
(194,364,o),
(121,373,c),
(118,353,l),
(192,344,o),
(244,340,o),
(297,340,cs),
(502,340,o),
(590,400,o),
(590,540,cs),
(590,680,o),
(502,740,o),
(297,740,cs),
(238,740,o),
(181,735,o),
(110,726,c)
);
},
{
closed = 1;
nodes = (
(620,0,l),
(150,363,l),
(117,363,l),
(587,0,l)
);
}
);
width = 664;
}
);
metricLeft = "=H";
metricRight = "=H*.4";
unicode = 82;
},
{
color = 10;
glyphname = S;
kernLeft = S;
kernRight = S;
lastChange = "2025-03-17 02:52:50 +0000";
layers = (
{
anchors = (
{
name = bottom;
pos = (309,0);
},
{
name = cedi;
pos = (261,-1);
},
{
name = top;
pos = (309,730);
}
);
layerId = "D65C9A1E-0FCA-4B2D-8EDF-9F36CA9182A1";
metricLeft = "=H*.7";
shapes = (
{
closed = 1;
nodes = (
(461,-10,o),
(554,62,o),
(554,183,cs),
(554,323,o),
(430,357,o),
(315,388,cs),
(203,418,o),
(100,446,o),
(100,561,cs),
(100,662,o),
(180,720,o),
(320,720,cs),
(396,720,o),
(479,703,o),
(527,677,c),
(537,695,l),
(485,722,o),
(398,740,o),
(320,740,cs),
(170,740,o),
(80,674,o),
(80,561,cs),
(80,431,o),
(198,399,o),
(310,369,cs),
(425,338,o),
(534,308,o),
(534,183,cs),
(534,73,o),
(450,10,o),
(304,10,cs),
(228,10,o),
(141,27,o),
(85,53,c),
(77,35,l),
(135,8,o),
(225,-10,o),
(304,-10,cs)
);
}
);
width = 631;
},
{
anchors = (
{
name = bottom;
pos = (325,0);
},
{
name = cedi;
pos = (244,0);
},
{
name = top;
pos = (325,730);
}
);
layerId = "9E6B41AB-2970-4C41-8B35-4DBE0D296A43";
metricLeft = "=H*.6";
shapes = (
{
closed = 1;
nodes = (
(517,-10,o),
(630,69,o),
(630,210,cs),
(630,320,o),
(562,384,o),
(392,434,cs),
(273,469,o),
(246,488,o),
(246,526,cs),
(246,560,o),
(277,575,o),
(344,575,cs),
(420,575,o),
(502,556,o),
(574,522,c),
(616,692,l),
(545,722,o),
(444,740,o),
(347,740,cs),
(147,740,o),
(36,663,o),
(36,525,cs),
(36,413,o),
(107,340,o),
(264,297,cs),
(390,262,o),
(420,245,o),
(420,210,cs),
(420,174,o),
(389,155,o),
(330,155,cs),
(256,155,o),
(147,185,o),
(78,224,c),
(36,54,l),
(101,14,o),
(207,-10,o),
(317,-10,cs)
);
}
);
width = 666;
},
{
anchors = (
{
name = bottom;
pos = (316,0);
},
{
name = cedi;
pos = (253,0);
},
{
name = top;
pos = (316,730);
}
);
layerId = "9527F797-22C1-480E-A1FE-2CDBEBE1FD4C";
metricLeft = "=H*.65";
shapes = (
{
closed = 1;
nodes = (
(488,-10,o),
(591,66,o),
(591,197,cs),
(591,324,o),
(494,375,o),
(351,415,cs),
(237,447,o),
(172,468,o),
(172,542,cs),
(172,605,o),
(227,640,o),
(331,640,cs),
(406,640,o),
(487,622,o),
(547,594,c),
(575,694,l),
(514,722,o),
(420,740,o),
(332,740,cs),
(157,740,o),
(57,669,o),
(57,543,cs),
(57,420,o),
(150,365,o),
(284,329,cs),
(405,296,o),
(476,275,o),
(476,198,cs),
(476,129,o),
(418,90,o),
(316,90,cs),
(239,90,o),
(148,112,o),
(83,145,c),
(55,45,l),
(117,11,o),
(215,-10,o),
(309,-10,cs)
);
}
);
width = 646;
}
);
metricLeft = "=H*.6";
metricRight = "=|";
unicode = 83;
},
{
color = 10;
glyphname = Germandbls;
kernLeft = H;
kernRight = B;
lastChange = "2025-03-17 02:52:50 +0000";
layers = (
{
layerId = "D65C9A1E-0FCA-4B2D-8EDF-9F36CA9182A1";
shapes = (
{
closed = 1;
nodes = (
(110,0,l),
(130,0,l),
(130,485,ls),
(130,647,o),
(204,720,o),
(368,720,cs),
(436,720,o),
(510,706,o),
(570,658,c),
(587,672,l),
(521,724,o),
(442,740,o),
(368,740,cs),
(194,740,o),
(110,660,o),
(110,490,cs)
);
},
{
closed = 1;
nodes = (
(541,-10,o),
(630,58,o),
(630,180,cs),
(630,302,o),
(540,370,o),
(379,370,c),
(379,372,l),
(587,672,l),
(567,681,l),
(352,369,l),
(364,350,l),
(384,350,ls),
(531,350,o),
(610,290,o),
(610,180,cs),
(610,70,o),
(530,10,o),
(381,10,cs),
(337,10,o),
(299,15,o),
(262,26,c),
(256,7,l),
(297,-5,o),
(338,-10,o),
(381,-10,cs)
);
}
);
width = 661;
},
{
layerId = "9527F797-22C1-480E-A1FE-2CDBEBE1FD4C";
shapes = (
{
closed = 1;
nodes = (
(85,0,l),
(195,0,l),
(195,453,ls),
(195,576,o),
(259,640,o),
(382,640,cs),
(449,640,o),
(507,616,o),
(551,571,c),
(639,662,l),
(567,713,o),
(479,740,o),
(382,740,cs),
(187,740,o),
(85,645,o),
(85,463,cs)
);
},
{
closed = 1;
nodes = (
(573,-10,o),
(660,70,o),
(660,215,cs),
(660,339,o),
(597,412,o),
(479,423,c),
(479,425,l),
(639,661,l),
(509,659,l),
(335,400,l),
(360,340,l),
(360,340,l),
(489,340,o),
(548,301,o),
(548,215,cs),
(548,135,o),
(495,90,o),
(401,90,cs),
(367,90,o),
(338,95,o),
(298,111,c),
(283,11,l),
(326,-3,o),
(369,-10,o),
(416,-10,cs)
);
}
);
width = 687;
},
{
layerId = "9E6B41AB-2970-4C41-8B35-4DBE0D296A43";
shapes = (
{
closed = 1;
nodes = (
(60,0,l),
(260,0,l),
(260,460,l),
(260,539,o),
(292,570,o),
(375,570,cs),
(444,570,o),
(493,548,o),
(550,490,c),
(670,620,l),
(600,699,o),
(498,740,o),
(375,740,cs),
(165,740,o),
(60,647,o),
(60,460,c)
);
},
{
closed = 1;
nodes = (
(608,-10,o),
(690,65,o),
(690,210,cs),
(690,313,o),
(633,376,o),
(523,395,c),
(523,397,l),
(670,620,l),
(507,659,l),
(335,400,l),
(384,280,l),
(384,280,l),
(450,280,o),
(485,258,o),
(485,216,cs),
(485,179,o),
(463,160,o),
(420,160,cs),
(396,160,o),
(369,166,o),
(335,180,c),
(310,15,l),
(352,-1,o),
(400,-10,o),
(450,-10,cs)
);
}
);
width = 711;
}
);
metricLeft = "=B";
metricRight = "=B*.7";
unicode = 7838;
},
{
color = 10;
glyphname = T;
kernLeft = T;
kernRight = T;
lastChange = "2025-03-17 02:52:50 +0000";
layers = (
{
anchors = (
{
name = bottom;
pos = (333,0);
},
{
name = cedi;
pos = (323,0);
},
{
name = center;
pos = (333,365);
},
{
name = top;
pos = (333,730);
}
);
layerId = "D65C9A1E-0FCA-4B2D-8EDF-9F36CA9182A1";
metricLeft = "=H*.3";
shapes = (
{
closed = 1;
nodes = (
(343,0,l),
(343,710,l),
(633,710,l),
(633,730,l),
(33,730,l),
(33,710,l),
(323,710,l),
(323,0,l)
);
}
);
width = 666;
},
{
anchors = (
{
name = bottom;
pos = (335,0);
},
{
name = cedi;
pos = (278,0);
},
{
name = center;
pos = (335,365);
},
{
name = top;
pos = (335,730);
}
);
layerId = "9527F797-22C1-480E-A1FE-2CDBEBE1FD4C";
metricLeft = "=H*.35";
shapes = (
{
closed = 1;
nodes = (
(392,0,l),
(392,630,l),
(640,630,l),
(640,730,l),
(30,730,l),
(30,630,l),
(278,630,l),
(278,0,l)
);
}
);
width = 670;
},
{
anchors = (
{
name = bottom;
pos = (334,0);
},
{
name = cedi;
pos = (231,0);
},
{
name = center;
pos = (334,365);
},
{
name = top;
pos = (334,730);
}
);
layerId = "9E6B41AB-2970-4C41-8B35-4DBE0D296A43";
metricLeft = "=H*.4";
shapes = (
{
closed = 1;
nodes = (
(437,0,l),
(437,560,l),
(644,560,l),
(644,730,l),
(24,730,l),
(24,560,l),
(231,560,l),
(231,0,l)
);
}
);
width = 668;
}
);
metricLeft = "=H*0.4";
metricRight = "=|";
unicode = 84;
},
{
color = 10;
glyphname = Tbar;
kernLeft = W;
kernRight = W;
lastChange = "2025-03-17 02:52:50 +0000";
layers = (
{
layerId = "D65C9A1E-0FCA-4B2D-8EDF-9F36CA9182A1";
shapes = (
{
closed = 1;
nodes = (
(571,305,l),
(571,325,l),
(151,325,l),
(151,305,l)
);
},
{
pos = (33,0);
ref = T;
}
);
width = 732;
},
{
layerId = "9527F797-22C1-480E-A1FE-2CDBEBE1FD4C";
shapes = (
{
closed = 1;
nodes = (
(593,270,l),
(593,360,l),
(133,360,l),
(133,270,l)
);
},
{
alignment = -1;
pos = (30,0);
ref = T;
}
);
width = 730;
},
{
layerId = "9E6B41AB-2970-4C41-8B35-4DBE0D296A43";
shapes = (
{
closed = 1;
nodes = (
(610,245,l),
(610,385,l),
(110,385,l),
(110,245,l)
);
},
{
pos = (24,0);
ref = T;
}
);
width = 716;
}
);
metricLeft = "=T*2";
metricRight = "=|";
unicode = 358;
},
{
color = 10;
glyphname = U;
kernLeft = U;
kernRight = U;
lastChange = "2025-03-17 02:52:50 +0000";
layers = (
{
anchors = (
{
name = bottom;
pos = (369,0);
},
{
name = ogonek;
pos = (427,0);
},
{
name = top;
pos = (369,730);
},
{
name = top_ring;
pos = (369,700);
},
{
name = topright;
pos = (619,690);
}
);
layerId = "D65C9A1E-0FCA-4B2D-8EDF-9F36CA9182A1";
shapes = (
{
closed = 1;
nodes = (
(554,-10,o),
(639,81,o),
(639,280,cs),
(639,730,l),
(619,730,l),
(619,280,ls),
(619,92,o),
(543,10,o),
(369,10,cs),
(195,10,o),
(119,92,o),
(119,280,cs),
(119,730,l),
(99,730,l),
(99,280,ls),
(99,81,o),
(184,-10,o),
(369,-10,cs)
);
}
);
width = 738;
},
{
anchors = (
{
name = bottom;
pos = (367,0);
},
{
name = ogonek;
pos = (447,0);
},
{
name = top;
pos = (367,730);
},
{
name = top_ring;
pos = (367,710);
},
{
name = topright;
pos = (602,690);
}
);
layerId = "9527F797-22C1-480E-A1FE-2CDBEBE1FD4C";
shapes = (
{
closed = 1;
nodes = (
(564,-10,o),
(657,86,o),
(657,290,cs),
(657,730,l),
(547,730,l),
(547,310,ls),
(547,149,o),
(499,90,o),
(367,90,cs),
(235,90,o),
(187,149,o),
(187,310,cs),
(187,730,l),
(77,730,l),
(77,290,ls),
(77,86,o),
(170,-10,o),
(367,-10,cs)
);
}
);
width = 734;
},
{
anchors = (
{
name = bottom;
pos = (364,0);
},
{
name = ogonek;
pos = (447,0);
},
{
name = top;
pos = (364,730);
},
{
name = top_ring;
pos = (364,720);
},
{
name = topright;
pos = (594,690);
}
);
layerId = "9E6B41AB-2970-4C41-8B35-4DBE0D296A43";
shapes = (
{
closed = 1;
nodes = (
(573,-10,o),
(674,91,o),
(674,300,cs),
(674,730,l),
(474,730,l),
(474,340,ls),
(474,198,o),
(451,160,o),
(364,160,cs),
(277,160,o),
(254,198,o),
(254,340,cs),
(254,730,l),
(54,730,l),
(54,300,ls),
(54,91,o),
(155,-10,o),
(364,-10,cs)
);
}
);
width = 728;
}
);
metricLeft = "=H*.9";
metricRight = "=|";
unicode = 85;
},
{
color = 10;
glyphname = Uogonek;
kernLeft = U;
kernRight = U;
lastChange = "2025-03-17 02:52:50 +0000";
layers = (
{
layerId = "D65C9A1E-0FCA-4B2D-8EDF-9F36CA9182A1";
shapes = (
{
closed = 1;
nodes = (
(410,-220,o),
(432,-214,o),
(450,-203,c),
(442,-185,l),
(423,-195,o),
(404,-200,o),
(386,-200,cs),
(338,-200,o),
(313,-178,o),
(313,-135,cs),
(313,-90,o),
(349,-23,o),
(475,3,c),
(466.333,20.334,l),
(333.45,-9.713,o),
(293,-81.025,o),
(293,-135,cs),
(293,-191,o),
(325,-220,o),
(386,-220,cs)
);
},
{
ref = U;
}
);
width = 738;
},
{
layerId = "9527F797-22C1-480E-A1FE-2CDBEBE1FD4C";
shapes = (
{
closed = 1;
nodes = (
(408,-217,o),
(434,-213,o),
(457,-205,c),
(440,-120,l),
(427,-127,o),
(413,-130,o),
(398,-130,cs),
(373,-130,o),
(360,-117,o),
(360,-93,cs),
(360,-67,o),
(395,-19,o),
(455,-2,c),
(348.434,25.767,l),
(288.517,-9.633,o),
(258,-61.707,o),
(258,-107,cs),
(258,-177,o),
(302,-217,o),
(379,-217,cs)
);
},
{
ref = U;
}
);
width = 734;
},
{
layerId = "9E6B41AB-2970-4C41-8B35-4DBE0D296A43";
shapes = (
{
closed = 1;
nodes = (
(448,-220,o),
(472,-217,o),
(495,-210,c),
(480,-75,l),
(465,-81,o),
(446,-85,o),
(432,-85,cs),
(404,-85,o),
(391,-75,o),
(391,-53,cs),
(391,-32,o),
(407,-17,o),
(443,-4,c),
(306.357,46.129,l),
(242.847,0.673,o),
(215,-36.13,o),
(215,-82,cs),
(215,-170,o),
(288,-220,o),
(420,-220,cs)
);
},
{
ref = U;
}
);
width = 728;
}
);
unicode = 370;
},
{
color = 10;
glyphname = V;
kernLeft = V;
kernRight = V;
lastChange = "2025-03-17 02:52:50 +0000";
layers = (
{
layerId = "D65C9A1E-0FCA-4B2D-8EDF-9F36CA9182A1";
shapes = (
{
closed = 1;
nodes = (
(357,0,l),
(662,730,l),
(640,730,l),
(343,18,l),
(341,18,l),
(44,730,l),
(22,730,l),
(327,0,l)
);
}
);
width = 684;
},
{
layerId = "9527F797-22C1-480E-A1FE-2CDBEBE1FD4C";
shapes = (
{
closed = 1;
nodes = (
(420,0,l),
(683,730,l),
(562,730,l),
(349,110,l),
(347,110,l),
(134,730,l),
(13,730,l),
(276,0,l)
);
}
);
width = 696;
},
{
layerId = "9E6B41AB-2970-4C41-8B35-4DBE0D296A43";
shapes = (
{
closed = 1;
nodes = (
(486,0,l),
(706,730,l),
(486,730,l),
(357,200,l),
(355,200,l),
(226,730,l),
(6,730,l),
(226,0,l)
);
}
);
width = 712;
}
);
metricLeft = "=A";
metricRight = "=|";
unicode = 86;
},
{
color = 10;
glyphname = W;
kernLeft = W;
kernRight = W;
lastChange = "2025-03-17 02:52:50 +0000";
layers = (
{
anchors = (
{
name = bottom;
pos = (450,0);
},
{
name = top;
pos = (450,730);
}
);
layerId = "D65C9A1E-0FCA-4B2D-8EDF-9F36CA9182A1";
metricLeft = "=V*1.6";
shapes = (
{
closed = 1;
nodes = (
(256,0,l),
(449,650,l),
(451,650,l),
(644,0,l),
(676,0,l),
(865,730,l),
(844,730,l),
(661,20,l),
(659,20,l),
(466,670,l),
(434,670,l),
(241,20,l),
(239,20,l),
(56,730,l),
(35,730,l),
(224,0,l)
);
}
);
width = 900;
},
{
anchors = (
{
name = bottom;
pos = (468,0);
},
{
name = top;
pos = (468,730);
}
);
layerId = "9527F797-22C1-480E-A1FE-2CDBEBE1FD4C";
metricLeft = "=V*2.3";
shapes = (
{
closed = 1;
nodes = (
(336,0,l),
(467,515,l),
(469,515,l),
(600,0,l),
(736,0,l),
(906,730,l),
(793,730,l),
(667,155,l),
(665,155,l),
(536,670,l),
(400,670,l),
(271,155,l),
(269,155,l),
(143,730,l),
(30,730,l),
(200,0,l)
);
}
);
width = 936;
},
{
anchors = (
{
name = bottom;
pos = (484,0);
},
{
name = top;
pos = (484,730);
}
);
layerId = "9E6B41AB-2970-4C41-8B35-4DBE0D296A43";
metricLeft = "=V*4";
shapes = (
{
closed = 1;
nodes = (
(414,0,l),
(483,460,l),
(485,460,l),
(554,0,l),
(794,0,l),
(944,730,l),
(739,730,l),
(670,210,l),
(668,210,l),
(604,670,l),
(364,670,l),
(300,210,l),
(298,210,l),
(229,730,l),
(24,730,l),
(174,0,l)
);
}
);
width = 968;
}
);
metricLeft = "=V*3";
metricRight = "=|";
unicode = 87;
},
{
color = 10;
glyphname = X;
kernLeft = X;
kernRight = X;
lastChange = "2025-03-17 02:52:50 +0000";
layers = (
{
layerId = "D65C9A1E-0FCA-4B2D-8EDF-9F36CA9182A1";
shapes = (
{
closed = 1;
nodes = (
(98,0,l),
(362,351,l),
(364,351,l),
(628,0,l),
(653,0,l),
(375,369,l),
(647,730,l),
(622,730,l),
(364,387,l),
(362,387,l),
(104,730,l),
(79,730,l),
(351,369,l),
(73,0,l)
);
}
);
width = 726;
},
{
layerId = "9527F797-22C1-480E-A1FE-2CDBEBE1FD4C";
shapes = (
{
closed = 1;
nodes = (
(171,0,l),
(355,304,l),
(357,304,l),
(541,0,l),
(666,0,l),
(437,367,l),
(663,730,l),
(538,730,l),
(357,431,l),
(355,431,l),
(174,730,l),
(49,730,l),
(275,367,l),
(46,0,l)
);
}
);
width = 712;
},
{
layerId = "9E6B41AB-2970-4C41-8B35-4DBE0D296A43";
shapes = (
{
closed = 1;
nodes = (
(251,0,l),
(355,255,l),
(357,255,l),
(461,0,l),
(686,0,l),
(506,365,l),
(686,730,l),
(461,730,l),
(357,475,l),
(355,475,l),
(251,730,l),
(26,730,l),
(206,365,l),
(26,0,l)
);
}
);
width = 712;
}
);
metricLeft = "=|K*2.2";
metricRight = "=|";
unicode = 88;
},
{
color = 10;
glyphname = Y;
kernLeft = Y;
kernRight = Y;
lastChange = "2025-03-17 02:52:50 +0000";
layers = (
{
anchors = (
{
name = bottom;
pos = (333,0);
},
{
name = top;
pos = (333,730);
},
{
name = topleft;
pos = (41,730);
}
);
layerId = "D65C9A1E-0FCA-4B2D-8EDF-9F36CA9182A1";
shapes = (
{
closed = 1;
nodes = (
(343,0,l),
(343,297,l),
(653,730,l),
(628,730,l),
(334,318,l),
(332,318,l),
(38,730,l),
(13,730,l),
(323,297,l),
(323,0,l)
);
}
);
width = 666;
},
{
anchors = (
{
name = bottom;
pos = (343,0);
},
{
name = top;
pos = (343,730);
},
{
name = topleft;
pos = (30,730);
}
);
layerId = "9527F797-22C1-480E-A1FE-2CDBEBE1FD4C";
shapes = (
{
closed = 1;
nodes = (
(400,0,l),
(400,274,l),
(678,730,l),
(552,730,l),
(344,373,l),
(342,373,l),
(134,730,l),
(8,730,l),
(286,274,l),
(286,0,l)
);
}
);
width = 686;
},
{
anchors = (
{
name = bottom;
pos = (354,0);
},
{
name = top;
pos = (354,730);
},
{
name = topleft;
pos = (20,730);
}
);
layerId = "9E6B41AB-2970-4C41-8B35-4DBE0D296A43";
shapes = (
{
closed = 1;
nodes = (
(459,0,l),
(459,250,l),
(704,730,l),
(484,730,l),
(355,420,l),
(353,420,l),
(224,730,l),
(4,730,l),
(249,250,l),
(249,0,l)
);
}
);
width = 708;
}
);
metricLeft = "=V*.6";
metricRight = "=|";
unicode = 89;
},
{
color = 10;
glyphname = Z;
kernLeft = Z;
kernRight = Z;
lastChange = "2025-03-17 02:52:50 +0000";
layers = (
{
anchors = (
{
name = bottom;
pos = (338,0);
},
{
name = center;
pos = (338,365);
},
{
name = top;
pos = (338,730);
}
);
layerId = "D65C9A1E-0FCA-4B2D-8EDF-9F36CA9182A1";
shapes = (
{
closed = 1;
nodes = (
(588,0,l),
(588,20,l),
(113,20,l),
(113,22,l),
(588,710,l),
(588,730,l),
(88,730,l),
(88,710,l),
(563,710,l),
(563,708,l),
(88,20,l),
(88,0,l)
);
}
);
width = 676;
},
{
anchors = (
{
name = bottom;
pos = (328,0);
},
{
name = center;
pos = (328,365);
},
{
name = top;
pos = (328,730);
}
);
layerId = "9527F797-22C1-480E-A1FE-2CDBEBE1FD4C";
shapes = (
{
closed = 1;
nodes = (
(588,0,l),
(588,100,l),
(203,100,l),
(203,102,l),
(588,630,l),
(588,730,l),
(68,730,l),
(68,630,l),
(453,630,l),
(453,628,l),
(68,100,l),
(68,0,l)
);
}
);
width = 656;
},
{
anchors = (
{
name = bottom;
pos = (318,0);
},
{
name = center;
pos = (318,365);
},
{
name = top;
pos = (318,730);
}
);
layerId = "9E6B41AB-2970-4C41-8B35-4DBE0D296A43";
shapes = (
{
closed = 1;
nodes = (
(588,0,l),
(588,165,l),
(283,165,l),
(283,167,l),
(588,565,l),
(588,730,l),
(48,730,l),
(48,565,l),
(353,565,l),
(353,563,l),
(48,165,l),
(48,0,l)
);
}
);
width = 636;
}
);
metricLeft = "=H*.8";
metricRight = "=|";
unicode = 90;
},
{
glyphname = a;
kernLeft = a;
kernRight = a;
lastChange = "2025-03-24 08:56:04 +0000";
layers = (
{
anchors = (
{
name = bottom;
pos = (256,0);
},
{
name = ogonek;
pos = (476,0);
},
{
name = top;
pos = (246,520);
}
);
layerId = "D65C9A1E-0FCA-4B2D-8EDF-9F36CA9182A1";
shapes = (
{
closed = 1;
nodes = (
(302,-10,o),
(377,45,o),
(409,128,c),
(411,128,l),
(416,82,o),
(430,43,o),
(459,-10,c),
(476,0,l),
(437,69,o),
(426,112,o),
(426,200,cs),
(426,325,ls),
(426,470,o),
(376,530,o),
(255,530,cs),
(183,530,o),
(105,512,o),
(48,481,c),
(58,463,l),
(111,492,o),
(185,510,o),
(255,510,cs),
(364,510,o),
(406,460,o),
(406,325,c),
(163,325,o),
(36,263,o),
(36,138,cs),
(36,49,o),
(104,-10,o),
(205,-10,cs)
);
},
{
closed = 1;
nodes = (
(114,10,o),
(56,61,o),
(56,138,cs),
(56,247,o),
(171,305,o),
(406,305,c),
(406,220,ls),
(406,97,o),
(321,10,o),
(205,10,cs)
);
}
);
width = 517;
},
{
anchors = (
{
name = bottom;
pos = (276,0);
},
{
name = ogonek;
pos = (521,1);
},
{
name = top;
pos = (266,520);
}
);
background = {
shapes = (
{
closed = 1;
nodes = (
(279,-10,o),
(333,15,o),
(379,69,c),
(381,69,l),
(388,42,o),
(398,19,o),
(416,-14,c),
(521,29,l),
(483,95,o),
(471,148,o),
(471,250,cs),
(470,328,ls),
(470,476,o),
(418,530,o),
(275,530,cs),
(192,530,o),
(107,512,o),
(44,481,c),
(63,394,l),
(121,423,o),
(189,440,o),
(253,440,cs),
(334,440,o),
(363,413,o),
(363,337,c),
(146,337,o),
(31,270,o),
(31,144,cs),
(31,48,o),
(97,-10,o),
(207,-10,cs)
);
},
{
closed = 1;
nodes = (
(173,78,o),
(139,108,o),
(139,156,cs),
(139,222,o),
(214,255,o),
(363,255,c),
(363,204,ls),
(363,132,o),
(305,78,o),
(228,78,cs)
);
}
);
};
layerId = "9527F797-22C1-480E-A1FE-2CDBEBE1FD4C";
shapes = (
{
closed = 1;
nodes = (
(279,-10,o),
(331,15,o),
(379,72,c),
(381,72,l),
(391,38,o),
(400,15,o),
(416,-14,c),
(521,29,l),
(483,95,o),
(471,148,o),
(471,250,cs),
(470,328,ls),
(470,476,o),
(418,530,o),
(275,530,cs),
(192,530,o),
(107,512,o),
(44,481,c),
(63,394,l),
(121,423,o),
(189,440,o),
(253,440,cs),
(334,440,o),
(363,413,o),
(363,337,c),
(146,337,o),
(31,270,o),
(31,144,cs),
(31,48,o),
(97,-10,o),
(207,-10,cs)
);
},
{
closed = 1;
nodes = (
(173,78,o),
(139,109,o),
(139,158,cs),
(139,224,o),
(214,257,o),
(363,257,c),
(363,204,ls),
(363,129,o),
(308,78,o),
(228,78,cs)
);
}
);
width = 533;
},
{
anchors = (
{
name = bottom;
pos = (296,0);
},
{
name = ogonek;
pos = (566,2);
},
{
name = top;
pos = (286,520);
}
);
layerId = "9E6B41AB-2970-4C41-8B35-4DBE0D296A43";
shapes = (
{
closed = 1;
nodes = (
(238,-10,o),
(300,19,o),
(338,65,c),
(340,65,l),
(349,32,o),
(360,5,o),
(374,-18,c),
(566,58,l),
(530,120,o),
(516,188,o),
(516,300,cs),
(516,330,ls),
(516,477,o),
(456,530,o),
(290,530,cs),
(196,530,o),
(110,513,o),
(38,480,c),
(68,344,l),
(128,374,o),
(192,390,o),
(251,390,cs),
(304,390,o),
(320,376,o),
(320,330,c),
(130,330,o),
(26,265,o),
(26,147,cs),
(26,55,o),
(89,-10,o),
(178,-10,cs)
);
},
{
closed = 1;
nodes = (
(222,125,o),
(202,143,o),
(202,170,cs),
(202,206,o),
(242,224,o),
(320,224,c),
(320,195,ls),
(320,152,o),
(294,125,o),
(252,125,cs)
);
}
);
width = 576;
},
{
anchors = (
{
name = bottom;
pos = (263,0);
},
{
name = ogonek;
pos = (492,0);
},
{
name = top;
pos = (253,520);
}
);
associatedMasterId = "D65C9A1E-0FCA-4B2D-8EDF-9F36CA9182A1";
attr = {
coordinates = (
232
);
};
background = {
anchors = (
{
name = bottom;
pos = (263,0);
},
{
name = ogonek;
pos = (492,0);
},
{
name = top;
pos = (253,520);
}
);
};
layerId = "51904E7D-07A9-4B4F-8153-155B1F9B55E2";
name = "Feb 27, 25 at 21:12";
shapes = (
{
closed = 1;
nodes = (
(291,-10,o),
(363,28,o),
(403,93,c),
(405,93,l),
(412,59,o),
(424,29,o),
(446,-11,c),
(492,10,l),
(453,78,o),
(442,125,o),
(442,217,cs),
(442,326,ls),
(442,472,o),
(391,530,o),
(262,530,cs),
(186,530,o),
(107,513,o),
(47,481,c),
(60,440,l),
(115,469,o),
(187,487,o),
(255,487,cs),
(355,487,o),
(393,444,o),
(393,329,c),
(158,329,o),
(35,266,o),
(35,140,cs),
(35,49,o),
(102,-10,o),
(207,-10,cs)
);
},
{
closed = 1;
nodes = (
(135,32,o),
(84,77,o),
(84,144,cs),
(84,239,o),
(186,289,o),
(393,289,c),
(393,214,ls),
(393,108,o),
(317,32,o),
(213,32,cs)
);
}
);
width = 506;
}
);
metricLeft = "=o*1.2";
metricRight = "=d*.9";
unicode = 97;
},
{
color = 10;
glyphname = ae;
kernLeft = a;
kernRight = o;
lastChange = "2025-03-19 05:50:49 +0000";
layers = (
{
anchors = (
{
name = bottom;
pos = (464,0);
},
{
name = top;
pos = (464,520);
}
);
layerId = "D65C9A1E-0FCA-4B2D-8EDF-9F36CA9182A1";
shapes = (
{
closed = 1;
nodes = (
(118,10,o),
(60,62,o),
(60,145,cs),
(60,249,o),
(154,305,o),
(334,305,cs),
(430,305,l),
(430,190,ls),
(430,89,o),
(336,10,o),
(216,10,cs)
);
},
{
closed = 1;
nodes = (
(347,-10,o),
(450,78,o),
(450,190,cs),
(450,325,ls),
(450,471,o),
(394,530,o),
(257,530,cs),
(190,530,o),
(133,517,o),
(83,490,c),
(94,474,l),
(140,498,o),
(193,510,o),
(257,510,cs),
(383,510,o),
(430,460,o),
(430,325,c),
(334,325,ls),
(143,325,o),
(40,262,o),
(40,145,cs),
(40,50,o),
(108,-10,o),
(216,-10,cs)
);
},
{
closed = 1;
nodes = (
(744,-13,o),
(810,8,o),
(860,47,c),
(848,63,l),
(801,26,o),
(740,7,o),
(672,7,cs),
(529,7,o),
(450,94,o),
(450,257,c),
(450,257,l),
(450,415,o),
(530,507,o),
(665,507,cs),
(793,507,o),
(860,425,o),
(860,265,c),
(870,275,l),
(440,275,l),
(440,255,l),
(880,255,l),
(880,260,o),
(880,260,o),
(880,265,cs),
(880,435,o),
(805,527,o),
(665,527,cs),
(518,527,o),
(430,425,o),
(430,257,cs),
(430,84,o),
(517,-13,o),
(672,-13,cs)
);
}
);
width = 928;
},
{
anchors = (
{
name = bottom;
pos = (456,0);
},
{
name = top;
pos = (456,520);
}
);
layerId = "9527F797-22C1-480E-A1FE-2CDBEBE1FD4C";
shapes = (
{
closed = 1;
nodes = (
(174,78,o),
(139,108,o),
(139,158,cs),
(139,223,o),
(200,256,o),
(323,256,cs),
(383,256,l),
(383,188,ls),
(383,127,o),
(318,78,o),
(237,78,cs)
);
},
{
closed = 1;
nodes = (
(380,-10,o),
(489,95,o),
(489,250,cs),
(489,328,ls),
(489,474,o),
(429,530,o),
(270,530,cs),
(195,530,o),
(133,519,o),
(75,496,c),
(95,406,l),
(148,430,o),
(199,440,o),
(257,440,cs),
(349,440,o),
(383,412,o),
(383,338,c),
(308,338,ls),
(131,338,o),
(31,269,o),
(31,148,cs),
(31,48,o),
(100,-10,o),
(219,-10,cs)
);
},
{
closed = 1;
nodes = (
(729,-10,o),
(797,8,o),
(848,39,c),
(829,126,l),
(779,97,o),
(717,80,o),
(655,80,cs),
(545,80,o),
(489,134,o),
(489,240,cs),
(489,270,l),
(489,382,o),
(540,442,o),
(636,442,cs),
(727,442,o),
(772,387,o),
(772,274,c),
(789,300,l),
(443,300,l),
(443,215,l),
(871,215,l),
(872,227,o),
(873,251,o),
(873,269,cs),
(873,436,o),
(788,530,o),
(636,530,cs),
(478,530,o),
(383,428,o),
(383,260,cs),
(383,87,o),
(480,-10,o),
(654,-10,cs)
);
}
);
width = 910;
},
{
anchors = (
{
name = bottom;
pos = (444,0);
},
{
name = top;
pos = (444,520);
}
);
layerId = "9E6B41AB-2970-4C41-8B35-4DBE0D296A43";
shapes = (
{
closed = 1;
nodes = (
(219,125,o),
(198,141,o),
(198,170,cs),
(198,208,o),
(233,225,o),
(312,225,cs),
(336,225,l),
(336,185,ls),
(336,148,o),
(305,125,o),
(258,125,cs)
);
},
{
closed = 1;
nodes = (
(409,-10,o),
(527,114,o),
(527,310,cs),
(527,330,ls),
(527,476,o),
(462,530,o),
(283,530,cs),
(199,530,o),
(133,521,o),
(67,501,c),
(87,361,l),
(143,380,o),
(202,390,o),
(256,390,cs),
(316,390,o),
(336,375,o),
(336,330,c),
(282,330,ls),
(116,330,o),
(22,265,o),
(22,150,cs),
(22,49,o),
(96,-10,o),
(222,-10,cs)
);
},
{
closed = 1;
nodes = (
(711,-10,o),
(786,5,o),
(835,28,c),
(815,168,l),
(768,146,o),
(696,130,o),
(637,130,cs),
(560,130,o),
(527,157,o),
(527,220,cs),
(527,280,ls),
(527,367,o),
(551,405,o),
(605,405,cs),
(659,405,o),
(683,367,o),
(683,280,c),
(706,315,l),
(445,315,l),
(445,200,l),
(861,200,l),
(863,211,o),
(865,246,o),
(865,270,cs),
(865,434,o),
(769,530,o),
(605,530,cs),
(437,530,o),
(335,428,o),
(335,260,cs),
(335,87,o),
(443,-10,o),
(635,-10,cs)
);
}
);
width = 891;
}
);
metricLeft = "=a";
metricRight = "=e";
unicode = 230;
},
{
glyphname = b;
kernLeft = h;
kernRight = o;
lastChange = "2025-03-24 08:56:08 +0000";
layers = (
{
layerId = "D65C9A1E-0FCA-4B2D-8EDF-9F36CA9182A1";
shapes = (
{
closed = 1;
nodes = (
(96,0,l),
(96,82,l),
(98,82,l),
(137,26,o),
(213,-10,o),
(292,-10,cs),
(422,-10,o),
(496,88,o),
(496,260,cs),
(496,432,o),
(422,530,o),
(292,530,cs),
(213,530,o),
(137,494,o),
(98,438,c),
(96,438,l),
(96,730,l),
(76,730,l),
(76,0,l)
);
},
{
closed = 1;
nodes = (
(199,10,o),
(96,67,o),
(96,152,cs),
(96,368,ls),
(96,453,o),
(199,510,o),
(292,510,cs),
(409,510,o),
(476,422,o),
(476,260,cs),
(476,98,o),
(409,10,o),
(292,10,cs)
);
}
);
width = 558;
},
{
layerId = "9527F797-22C1-480E-A1FE-2CDBEBE1FD4C";
name = Medium;
shapes = (
{
closed = 1;
nodes = (
(173,0,l),
(174,70,l),
(176,70,l),
(222,15,o),
(274,-10,o),
(341,-10,cs),
(473,-10,o),
(546,87,o),
(546,260,cs),
(546,433,o),
(473,530,o),
(341,530,cs),
(275,530,o),
(223,505,o),
(176,450,c),
(174,450,l),
(174,730,l),
(66,730,l),
(66,0,l)
);
},
{
closed = 1;
nodes = (
(241,84,o),
(174,145,o),
(174,217,cs),
(174,303,ls),
(174,375,o),
(241,436,o),
(321,436,cs),
(396,436,o),
(440,371,o),
(440,260,cs),
(440,149,o),
(396,84,o),
(321,84,cs)
);
}
);
width = 582;
},
{
associatedMasterId = "D65C9A1E-0FCA-4B2D-8EDF-9F36CA9182A1";
attr = {
coordinates = (
232
);
};
layerId = "224B9E35-8107-461C-9404-30749D2F6E5F";
name = "Mar 19, 25 at 16:45";
shapes = (
{
closed = 1;
nodes = (
(121,0,l),
(122,70,l),
(124,70,l),
(165,20,o),
(234,-10,o),
(308,-10,cs),
(440,-10,o),
(513,86,o),
(513,260,cs),
(513,434,o),
(440,530,o),
(308,530,cs),
(234,530,o),
(165,500,o),
(124,450,c),
(122,450,l),
(122,730,l),
(73,730,l),
(73,0,l)
);
},
{
closed = 1;
nodes = (
(206,37,o),
(122,99,o),
(122,170,cs),
(122,350,ls),
(122,421,o),
(206,483,o),
(300,483,cs),
(405,483,o),
(464,403,o),
(464,260,cs),
(464,117,o),
(405,37,o),
(300,37,cs)
);
}
);
width = 554;
},
{
layerId = "9E6B41AB-2970-4C41-8B35-4DBE0D296A43";
name = Black;
shapes = (
{
closed = 1;
nodes = (
(250,0,l),
(252,70,l),
(254,70,l),
(288,15,o),
(333,-10,o),
(399,-10,cs),
(527,-10,o),
(596,84,o),
(596,260,cs),
(596,436,o),
(527,530,o),
(399,530,cs),
(333,530,o),
(288,505,o),
(254,450,c),
(252,450,l),
(252,730,l),
(56,730,l),
(56,0,l)
);
},
{
closed = 1;
nodes = (
(287,135,o),
(252,171,o),
(252,217,cs),
(252,303,ls),
(252,349,o),
(287,385,o),
(332,385,cs),
(380,385,o),
(404,343,o),
(404,260,cs),
(404,177,o),
(380,135,o),
(332,135,cs)
);
}
);
width = 627;
}
);
metricLeft = "=h";
metricRight = "=o*1.4";
unicode = 98;
},
{
glyphname = c;
kernLeft = o;
kernRight = c;
lastChange = "2025-03-24 08:46:01 +0000";
layers = (
{
anchors = (
{
name = bottom;
pos = (266,0);
},
{
name = cedi;
pos = (207,0);
},
{
name = top;
pos = (266,520);
}
);
layerId = "9527F797-22C1-480E-A1FE-2CDBEBE1FD4C";
shapes = (
{
closed = 1;
nodes = (
(361,-10,o),
(416,1,o),
(466,23,c),
(447,110,l),
(405,90,o),
(360,80,o),
(313,80,cs),
(196,80,o),
(136,141,o),
(136,260,cs),
(136,379,o),
(196,440,o),
(313,440,cs),
(360,440,o),
(405,430,o),
(447,410,c),
(466,497,l),
(416,519,o),
(361,530,o),
(300,530,cs),
(122,530,o),
(26,435,o),
(26,260,cs),
(26,85,o),
(122,-10,o),
(300,-10,cs)
);
}
);
width = 514;
},
{
anchors = (
{
name = bottom;
pos = (250,0);
},
{
name = cedi;
pos = (206,0);
},
{
name = top;
pos = (250,520);
}
);
layerId = "D65C9A1E-0FCA-4B2D-8EDF-9F36CA9182A1";
shapes = (
{
closed = 1;
nodes = (
(336,-10,o),
(384,0,o),
(430,20,c),
(422,38,l),
(378,19,o),
(334,10,o),
(284,10,cs),
(133,10,o),
(50,99,o),
(50,260,cs),
(50,421,o),
(133,510,o),
(284,510,cs),
(334,510,o),
(378,501,o),
(422,482,c),
(430,500,l),
(384,520,o),
(336,530,o),
(284,530,cs),
(122,530,o),
(30,432,o),
(30,260,cs),
(30,88,o),
(122,-10,o),
(284,-10,cs)
);
}
);
width = 485;
},
{
anchors = (
{
name = bottom;
pos = (282,0);
},
{
name = cedi;
pos = (208,0);
},
{
name = top;
pos = (282,520);
}
);
layerId = "9E6B41AB-2970-4C41-8B35-4DBE0D296A43";
name = Black;
shapes = (
{
closed = 1;
nodes = (
(377,-10,o),
(448,3,o),
(502,26,c),
(472,162,l),
(425,141,o),
(380,130,o),
(340,130,cs),
(260,130,o),
(222,172,o),
(222,260,cs),
(222,348,o),
(260,390,o),
(340,390,cs),
(380,390,o),
(425,379,o),
(472,358,c),
(502,494,l),
(448,517,o),
(377,530,o),
(307,530,cs),
(120,530,o),
(22,437,o),
(22,260,cs),
(22,83,o),
(120,-10,o),
(307,-10,cs)
);
}
);
width = 543;
}
);
metricLeft = "=o";
metricRight = "=h*.9";
unicode = 99;
},
{
glyphname = d;
kernLeft = o;
kernRight = d;
lastChange = "2025-03-24 08:56:12 +0000";
layers = (
{
layerId = "D65C9A1E-0FCA-4B2D-8EDF-9F36CA9182A1";
metricRight = "=|h*.6";
shapes = (
{
closed = 1;
nodes = (
(361,-10,o),
(439,36,o),
(469,98,c),
(471,98,l),
(478,64,o),
(491,31,o),
(514,-10,c),
(532,0,l),
(493,68,o),
(482,112,o),
(482,199,cs),
(482,730,l),
(462,730,l),
(462,438,l),
(460,438,l),
(423,494,o),
(351,530,o),
(276,530,cs),
(140,530,o),
(62,432,o),
(62,260,cs),
(62,88,o),
(140,-10,o),
(276,-10,cs)
);
},
{
closed = 1;
nodes = (
(152,10,o),
(82,98,o),
(82,260,cs),
(82,422,o),
(152,510,o),
(276,510,cs),
(374,510,o),
(462,442,o),
(462,368,cs),
(462,152,ls),
(462,78,o),
(374,10,o),
(276,10,cs)
);
}
);
width = 578;
},
{
layerId = "9E6B41AB-2970-4C41-8B35-4DBE0D296A43";
metricRight = "=|h*.2";
shapes = (
{
closed = 1;
nodes = (
(293,-10,o),
(346,14,o),
(393,65,c),
(395,65,l),
(404,32,o),
(415,6,o),
(429,-18,c),
(621,58,l),
(585,120,o),
(571,188,o),
(571,300,cs),
(571,730,l),
(375,730,l),
(375,450,l),
(373,450,l),
(339,505,o),
(294,530,o),
(228,530,cs),
(100,530,o),
(31,436,o),
(31,260,cs),
(31,84,o),
(100,-10,o),
(228,-10,cs)
);
},
{
closed = 1;
nodes = (
(247,135,o),
(223,177,o),
(223,260,cs),
(223,343,o),
(247,385,o),
(295,385,cs),
(340,385,o),
(375,349,o),
(375,303,cs),
(375,217,ls),
(375,171,o),
(340,135,o),
(295,135,cs)
);
}
);
width = 632;
},
{
associatedMasterId = "D65C9A1E-0FCA-4B2D-8EDF-9F36CA9182A1";
attr = {
coordinates = (
232
);
};
layerId = "B4AAD0EF-2F8B-401C-AEC0-E53A33AE0A71";
name = "Feb 28, 25 at 16:12";
shapes = (
{
closed = 1;
nodes = (
(329,-10,o),
(407,28,o),
(443,85,c),
(445,85,l),
(451,54,o),
(464,22,o),
(484,-11,c),
(531,10,l),
(492,79,o),
(481,125,o),
(481,216,cs),
(481,730,l),
(432,730,l),
(432,450,l),
(430,450,l),
(389,500,o),
(320,530,o),
(246,530,cs),
(114,530,o),
(41,434,o),
(41,260,cs),
(41,86,o),
(114,-10,o),
(246,-10,cs)
);
},
{
closed = 1;
nodes = (
(149,37,o),
(90,117,o),
(90,260,cs),
(90,403,o),
(149,483,o),
(254,483,cs),
(348,483,o),
(432,421,o),
(432,350,cs),
(432,170,ls),
(432,99,o),
(348,37,o),
(254,37,cs)
);
}
);
width = 546;
},
{
layerId = "9527F797-22C1-480E-A1FE-2CDBEBE1FD4C";
name = Medium;
shapes = (
{
closed = 1;
nodes = (
(316,-10,o),
(377,21,o),
(422,82,c),
(424,82,l),
(428,52,o),
(440,21,o),
(461,-14,c),
(566,29,l),
(528,98,o),
(516,151,o),
(516,250,cs),
(516,730,l),
(408,730,l),
(408,450,l),
(406,450,l),
(359,505,o),
(307,530,o),
(241,530,cs),
(109,530,o),
(36,433,o),
(36,260,cs),
(36,87,o),
(109,-10,o),
(241,-10,cs)
);
},
{
closed = 1;
nodes = (
(186,84,o),
(142,149,o),
(142,260,cs),
(142,371,o),
(186,436,o),
(261,436,cs),
(341,436,o),
(408,375,o),
(408,303,cs),
(408,217,ls),
(408,145,o),
(341,84,o),
(261,84,cs)
);
}
);
width = 579;
}
);
metricLeft = "=|b";
metricRight = "=|h*.2";
unicode = 100;
},
{
color = 10;
glyphname = dcroat;
kernLeft = o;
kernRight = W;
lastChange = "2025-03-19 05:50:49 +0000";
layers = (
{
layerId = "D65C9A1E-0FCA-4B2D-8EDF-9F36CA9182A1";
shapes = (
{
closed = 1;
nodes = (
(587,605,l),
(587,625,l),
(167,625,l),
(167,605,l)
);
},
{
ref = d;
}
);
width = 622;
},
{
layerId = "9527F797-22C1-480E-A1FE-2CDBEBE1FD4C";
shapes = (
{
closed = 1;
nodes = (
(633,570,l),
(633,660,l),
(213,660,l),
(213,570,l)
);
},
{
alignment = -1;
ref = d;
}
);
width = 663;
},
{
layerId = "9E6B41AB-2970-4C41-8B35-4DBE0D296A43";
shapes = (
{
closed = 1;
nodes = (
(679,545,l),
(679,685,l),
(259,685,l),
(259,545,l)
);
},
{
ref = d;
}
);
width = 703;
}
);
metricLeft = "=d";
metricRight = "=W";
unicode = 273;
},
{
color = 10;
glyphname = eth;
kernLeft = o;
kernRight = o;
lastChange = "2025-03-19 05:50:49 +0000";
layers = (
{
layerId = "D65C9A1E-0FCA-4B2D-8EDF-9F36CA9182A1";
metricRight = "=d*.3";
shapes = (
{
closed = 1;
nodes = (
(430,-10,o),
(520,84,o),
(520,235,cs),
(520,445,o),
(341,735,o),
(177,790,c),
(170,772,l),
(286,733,o),
(414,566,o),
(471,399,c),
(469,398,l),
(428,451,o),
(365,480,o),
(285,480,cs),
(140,480,o),
(50,386,o),
(50,235,cs),
(50,84,o),
(140,-10,o),
(285,-10,cs)
);
},
{
closed = 1;
nodes = (
(151,10,o),
(70,95,o),
(70,235,cs),
(70,375,o),
(151,460,o),
(285,460,cs),
(419,460,o),
(500,375,o),
(500,235,cs),
(500,95,o),
(419,10,o),
(285,10,cs)
);
},
{
closed = 1;
nodes = (
(551,697,l),
(543,715,l),
(103,540,l),
(111,522,l)
);
}
);
width = 581;
},
{
layerId = "9527F797-22C1-480E-A1FE-2CDBEBE1FD4C";
metricRight = "=d*.5";
shapes = (
{
closed = 1;
nodes = (
(458,-10,o),
(549,88,o),
(549,263,cs),
(549,544,o),
(384,758,o),
(144,790,c),
(124,700,l),
(262,681,o),
(375,579,o),
(418,435,c),
(416,434,l),
(383,465,o),
(338,480,o),
(279,480,cs),
(130,480,o),
(39,391,o),
(39,243,cs),
(39,84,o),
(134,-10,o),
(294,-10,cs)
);
},
{
closed = 1;
nodes = (
(201,80,o),
(147,140,o),
(147,243,cs),
(147,341,o),
(196,390,o),
(294,390,cs),
(392,390,o),
(441,341,o),
(441,243,cs),
(441,140,o),
(387,80,o),
(294,80,cs)
);
},
{
closed = 1;
nodes = (
(559,665,l),
(523,749,l),
(83,574,l),
(119,490,l)
);
}
);
width = 598;
},
{
layerId = "9E6B41AB-2970-4C41-8B35-4DBE0D296A43";
metricRight = "=d*.7";
shapes = (
{
closed = 1;
nodes = (
(488,-10,o),
(577,84,o),
(577,280,cs),
(577,601,o),
(419,776,o),
(117,790,c),
(77,660,l),
(241,652,o),
(358,575,o),
(364,471,c),
(362,470,l),
(338,476,o),
(306,480,o),
(272,480,cs),
(116,480,o),
(27,397,o),
(27,250,cs),
(27,89,o),
(131,-10,o),
(302,-10,cs)
);
},
{
closed = 1;
nodes = (
(246,125,o),
(221,163,o),
(221,250,cs),
(221,337,o),
(246,375,o),
(302,375,cs),
(358,375,o),
(383,337,o),
(383,250,cs),
(383,163,o),
(358,125,o),
(302,125,cs)
);
},
{
closed = 1;
nodes = (
(562,643,l),
(507,773,l),
(67,598,l),
(122,468,l)
);
}
);
width = 615;
},
{
associatedMasterId = "D65C9A1E-0FCA-4B2D-8EDF-9F36CA9182A1";
attr = {
coordinates = (
232
);
};
layerId = "7EB7DD1D-0E67-4B53-AED1-36A39ED50BF4";
metricRight = "=d*.3";
name = "{232}";
shapes = (
{
closed = 1;
nodes = (
(439,-10,o),
(529,85,o),
(529,244,cs),
(529,478,o),
(355,743,o),
(165,790,c),
(150,749,l),
(272,720,o),
(395,578,o),
(450,423,c),
(448,422,l),
(409,459,o),
(353,480,o),
(282,480,cs),
(136,480,o),
(46,388,o),
(46,238,cs),
(46,84,o),
(137,-10,o),
(287,-10,cs)
);
},
{
closed = 1;
nodes = (
(167,33,o),
(95,110,o),
(95,238,cs),
(95,364,o),
(165,437,o),
(287,437,cs),
(409,437,o),
(480,364,o),
(480,238,cs),
(480,110,o),
(408,33,o),
(287,33,cs)
);
},
{
closed = 1;
nodes = (
(553,686,l),
(536,726,l),
(96,551,l),
(113,511,l)
);
}
);
width = 581;
}
);
metricLeft = "=o";
metricRight = "=d*.6";
unicode = 240;
},
{
glyphname = e;
kernLeft = o;
kernRight = o;
lastChange = "2025-03-24 08:45:12 +0000";
layers = (
{
anchors = (
{
name = bottom;
pos = (267,0);
},
{
name = ogonek;
pos = (474,31);
},
{
name = top;
pos = (267,520);
}
);
layerId = "9527F797-22C1-480E-A1FE-2CDBEBE1FD4C";
shapes = (
{
closed = 1;
nodes = (
(362,-10,o),
(427,4,o),
(473,29,c),
(454,116,l),
(409,93,o),
(348,80,o),
(293,80,cs),
(184,80,o),
(132,131,o),
(132,235,c),
(132,270,l),
(132,386,o),
(180,446,o),
(269,446,cs),
(353,446,o),
(395,390,o),
(395,274,c),
(418,304,l),
(85,304,l),
(85,222,l),
(494,222,l),
(495,233,o),
(496,256,o),
(496,269,cs),
(496,437,o),
(415,530,o),
(269,530,cs),
(117,530,o),
(26,429,o),
(26,260,cs),
(26,85,o),
(120,-10,o),
(294,-10,cs)
);
}
);
width = 522;
},
{
anchors = (
{
name = bottom;
pos = (246,0);
},
{
name = ogonek;
pos = (425,33);
},
{
name = top;
pos = (246,520);
}
);
layerId = "D65C9A1E-0FCA-4B2D-8EDF-9F36CA9182A1";
shapes = (
{
closed = 1;
nodes = (
(336,-10,o),
(397,5,o),
(440,30,c),
(430,47,l),
(390,24,o),
(333,10,o),
(272,10,cs),
(125,10,o),
(50,92,o),
(50,260,c),
(50,260,l),
(50,419,o),
(126,510,o),
(255,510,cs),
(376,510,o),
(440,429,o),
(440,268,c),
(450,278,l),
(40,278,l),
(40,258,l),
(460,258,l),
(460,263,o),
(460,263,o),
(460,268,cs),
(460,439,o),
(389,530,o),
(255,530,cs),
(114,530,o),
(30,429,o),
(30,260,cs),
(30,82,o),
(113,-10,o),
(272,-10,cs)
);
}
);
width = 490;
},
{
anchors = (
{
name = bottom;
pos = (287,0);
},
{
name = ogonek;
pos = (522,28);
},
{
name = top;
pos = (287,520);
}
);
layerId = "9E6B41AB-2970-4C41-8B35-4DBE0D296A43";
name = Black;
shapes = (
{
closed = 1;
nodes = (
(388,-10,o),
(458,4,o),
(505,28,c),
(475,164,l),
(432,144,o),
(366,130,o),
(314,130,cs),
(243,130,o),
(214,156,o),
(214,220,cs),
(214,280,ls),
(214,368,o),
(234,405,o),
(282,405,cs),
(329,405,o),
(350,366,o),
(350,280,c),
(386,315,l),
(130,315,l),
(130,200,l),
(528,200,l),
(530,211,o),
(532,246,o),
(532,270,cs),
(532,434,o),
(439,530,o),
(282,530,cs),
(120,530,o),
(22,428,o),
(22,260,cs),
(22,87,o),
(127,-10,o),
(316,-10,cs)
);
}
);
width = 554;
}
);
metricLeft = "=o";
metricRight = "=|";
unicode = 101;
},
{
glyphname = f;
kernLeft = f;
kernRight = f;
lastChange = "2025-03-24 08:45:13 +0000";
layers = (
{
layerId = "9527F797-22C1-480E-A1FE-2CDBEBE1FD4C";
shapes = (
{
closed = 1;
nodes = (
(275,0,l),
(275,400,l),
(485,400,l),
(485,490,l),
(275,490,l),
(275,585,ls),
(275,653,o),
(308,680,o),
(392,680,cs),
(420,680,o),
(441,677,o),
(471,668,c),
(490,755,l),
(452,765,o),
(411,770,o),
(372,770,cs),
(235,770,o),
(166,708,o),
(166,585,cs),
(166,490,l),
(20,490,l),
(20,400,l),
(166,400,l),
(166,0,l)
);
}
);
width = 510;
},
{
layerId = "D65C9A1E-0FCA-4B2D-8EDF-9F36CA9182A1";
shapes = (
{
closed = 1;
nodes = (
(223,0,l),
(223,460,l),
(468,460,l),
(468,480,l),
(223,480,l),
(223,620,ls),
(223,710,o),
(269,750,o),
(379,750,cs),
(412,750,o),
(434,747,o),
(467,736,c),
(473,755,l),
(439,766,o),
(414,770,o),
(379,770,cs),
(259,770,o),
(203,722,o),
(203,620,cs),
(203,480,l),
(23,480,l),
(23,460,l),
(203,460,l),
(203,0,l)
);
}
);
width = 496;
},
{
layerId = "9E6B41AB-2970-4C41-8B35-4DBE0D296A43";
name = Black;
shapes = (
{
closed = 1;
nodes = (
(326,0,l),
(326,360,l),
(502,360,l),
(502,500,l),
(326,500,l),
(326,550,ls),
(326,611,o),
(344,630,o),
(402,630,cs),
(425,630,o),
(447,627,o),
(477,620,c),
(507,755,l),
(465,764,o),
(408,770,o),
(365,770,cs),
(211,770,o),
(128,693,o),
(128,550,cs),
(128,500,l),
(17,500,l),
(17,360,l),
(128,360,l),
(128,0,l)
);
}
);
width = 524;
}
);
metricLeft = "=h*.3";
metricRight = "=|";
unicode = 102;
},
{
glyphname = g;
kernLeft = o;
kernRight = g;
lastChange = "2025-03-24 08:56:17 +0000";
layers = (
{
anchors = (
{
name = bottom;
pos = (305,-140);
},
{
name = top;
pos = (305,520);
}
);
associatedMasterId = "D65C9A1E-0FCA-4B2D-8EDF-9F36CA9182A1";
attr = {
coordinates = (
232
);
};
background = {
anchors = (
{
name = bottom;
pos = (305,-140);
},
{
name = top;
pos = (305,520);
}
);
};
layerId = "2CB2E316-DF26-4020-8926-4C268D4E13F3";
name = "{232}";
shapes = (
{
closed = 1;
nodes = (
(364,-206,o),
(481,-89,o),
(481,101,cs),
(481,520,l),
(432,520,l),
(432,450,l),
(430,450,l),
(398,498,o),
(322,530,o),
(244,530,cs),
(114,530,o),
(41,440,o),
(41,279,cs),
(41,118,o),
(114,28,o),
(244,28,cs),
(322,28,o),
(398,60,o),
(430,108,c),
(432,108,l),
(432,90,ls),
(432,-77,o),
(334,-161,o),
(139,-169,c),
(146,-211,l)
);
},
{
closed = 1;
nodes = (
(150,72,o),
(90,146,o),
(90,279,cs),
(90,412,o),
(150,486,o),
(254,486,cs),
(348,486,o),
(432,424,o),
(432,355,cs),
(432,203,ls),
(432,134,o),
(348,72,o),
(254,72,cs)
);
}
);
width = 554;
},
{
anchors = (
{
name = bottom;
pos = (299,-140);
},
{
name = top;
pos = (299,520);
}
);
layerId = "9527F797-22C1-480E-A1FE-2CDBEBE1FD4C";
name = Medium;
shapes = (
{
closed = 1;
nodes = (
(385,-205,o),
(516,-92,o),
(516,99,cs),
(516,520,l),
(409,520,l),
(408,450,l),
(406,450,l),
(369,502,o),
(310,530,o),
(237,530,cs),
(107,530,o),
(36,440,o),
(36,275,cs),
(36,111,o),
(108,20,o),
(237,20,cs),
(310,20,o),
(369,48,o),
(406,100,c),
(408,100,l),
(408,95,ls),
(408,-47,o),
(322,-117,o),
(135,-127,c),
(154,-214,l)
);
},
{
closed = 1;
nodes = (
(186,114,o),
(142,173,o),
(142,275,cs),
(142,377,o),
(186,436,o),
(261,436,cs),
(340,436,o),
(408,380,o),
(408,315,cs),
(408,235,ls),
(408,170,o),
(340,114,o),
(261,114,cs)
);
}
);
width = 582;
},
{
anchors = (
{
name = bottom;
pos = (327,-140);
},
{
name = top;
pos = (327,520);
}
);
layerId = "D65C9A1E-0FCA-4B2D-8EDF-9F36CA9182A1";
name = Thin;
shapes = (
{
closed = 1;
nodes = (
(361,-210,o),
(482,-93,o),
(482,102,cs),
(482,520,l),
(462,520,l),
(462,438,l),
(460,438,l),
(420,496,o),
(347,530,o),
(266,530,cs),
(135,530,o),
(62,440,o),
(62,280,cs),
(62,120,o),
(135,30,o),
(266,30,cs),
(347,30,o),
(420,64,o),
(460,122,c),
(462,122,l),
(462,102,ls),
(462,-82,o),
(350,-190,o),
(160,-190,c),
(160,-210,l)
);
},
{
closed = 1;
nodes = (
(147,50,o),
(82,130,o),
(82,280,cs),
(82,430,o),
(147,510,o),
(266,510,cs),
(383,510,o),
(462,439,o),
(462,367,cs),
(462,193,ls),
(462,121,o),
(383,50,o),
(266,50,cs)
);
}
);
width = 558;
},
{
anchors = (
{
name = bottom;
pos = (292,-140);
},
{
name = top;
pos = (292,520);
}
);
layerId = "9E6B41AB-2970-4C41-8B35-4DBE0D296A43";
name = Black;
shapes = (
{
closed = 1;
nodes = (
(425,-209,o),
(571,-96,o),
(571,95,cs),
(571,520,l),
(377,520,l),
(375,450,l),
(373,450,l),
(339,505,o),
(295,530,o),
(228,530,cs),
(100,530,o),
(31,439,o),
(31,270,cs),
(31,101,o),
(100,10,o),
(228,10,cs),
(294,10,o),
(339,34,o),
(373,87,c),
(375,87,l),
(375,87,l),
(375,-27,o),
(317,-69,o),
(139,-82,c),
(169,-218,l)
);
},
{
closed = 1;
nodes = (
(247,155,o),
(223,194,o),
(223,270,cs),
(223,346,o),
(247,385,o),
(295,385,cs),
(340,385,o),
(375,352,o),
(375,310,cs),
(375,230,ls),
(375,188,o),
(340,155,o),
(295,155,cs)
);
}
);
width = 627;
}
);
metricLeft = "=d";
metricRight = "=|h";
unicode = 103;
},
{
glyphname = h;
kernLeft = h;
kernRight = h;
lastChange = "2025-03-24 08:44:31 +0000";
layers = (
{
anchors = (
{
name = bottom;
pos = (276,0);
},
{
name = center;
pos = (276,430);
},
{
name = top;
pos = (276,520);
}
);
layerId = "D65C9A1E-0FCA-4B2D-8EDF-9F36CA9182A1";
shapes = (
{
closed = 1;
nodes = (
(96,0,l),
(96,360,ls),
(96,384,o),
(186,510,o),
(310,510,cs),
(399,510,o),
(456,438,o),
(456,320,cs),
(456,0,l),
(476,0,l),
(476,320,ls),
(476,448,o),
(411,530,o),
(310,530,cs),
(233,530,o),
(150,482,o),
(98,407,c),
(96,407,l),
(96,730,l),
(76,730,l),
(76,0,l)
);
}
);
width = 537;
},
{
anchors = (
{
name = bottom;
pos = (291,0);
},
{
name = center;
pos = (291,430);
},
{
name = top;
pos = (291,520);
}
);
layerId = "9527F797-22C1-480E-A1FE-2CDBEBE1FD4C";
shapes = (
{
closed = 1;
nodes = (
(174,0,l),
(174,294,ls),
(174,356,o),
(247,434,o),
(325,434,cs),
(382,434,o),
(409,392,o),
(409,305,cs),
(409,0,l),
(516,0,l),
(516,305,ls),
(516,456,o),
(464,530,o),
(359,530,cs),
(292,530,o),
(226,500,o),
(176,450,c),
(174,450,l),
(174,730,l),
(66,730,l),
(66,0,l)
);
}
);
width = 569;
},
{
anchors = (
{
name = bottom;
pos = (306,0);
},
{
name = center;
pos = (306,430);
},
{
name = top;
pos = (306,520);
}
);
layerId = "9E6B41AB-2970-4C41-8B35-4DBE0D296A43";
name = Black;
shapes = (
{
closed = 1;
nodes = (
(252,0,l),
(252,320,ls),
(252,343,o),
(292,370,o),
(326,370,cs),
(354,370,o),
(362,352,o),
(362,290,cs),
(362,0,l),
(556,0,l),
(556,290,ls),
(556,457,o),
(511,530,o),
(409,530,cs),
(349,530,o),
(301,505,o),
(254,450,c),
(252,450,l),
(252,730,l),
(56,730,l),
(56,0,l)
);
}
);
width = 601;
}
);
metricLeft = "=H";
metricRight = "=|*.8";
unicode = 104;
},
{
color = 10;
glyphname = hbar;
kernLeft = W;
kernRight = h;
lastChange = "2025-03-19 05:50:49 +0000";
layers = (
{
anchors = (
{
name = bottom;
pos = (340,0);
},
{
name = center;
pos = (340,430);
},
{
name = top;
pos = (340,750);
}
);
layerId = "D65C9A1E-0FCA-4B2D-8EDF-9F36CA9182A1";
shapes = (
{
closed = 1;
nodes = (
(455,625,l),
(35,625,l),
(35,605,l),
(455,605,l)
);
},
{
pos = (70,0);
ref = h;
}
);
width = 658;
},
{
anchors = (
{
name = bottom;
pos = (358,0);
},
{
name = center;
pos = (358,430);
},
{
name = top;
pos = (358,750);
}
);
layerId = "9527F797-22C1-480E-A1FE-2CDBEBE1FD4C";
shapes = (
{
closed = 1;
nodes = (
(450,660,l),
(30,660,l),
(30,570,l),
(450,570,l)
);
},
{
alignment = -1;
pos = (68,0);
ref = h;
}
);
width = 677;
},
{
anchors = (
{
name = bottom;
pos = (375,0);
},
{
name = center;
pos = (375,430);
},
{
name = top;
pos = (375,750);
}
);
layerId = "9E6B41AB-2970-4C41-8B35-4DBE0D296A43";
shapes = (
{
closed = 1;
nodes = (
(444,685,l),
(24,685,l),
(24,545,l),
(444,545,l)
);
},
{
pos = (65,0);
ref = h;
}
);
width = 692;
}
);
metricLeft = "=W";
metricRight = "=h";
unicode = 295;
},
{
glyphname = i;
kernLeft = i;
kernRight = i;
lastChange = "2025-03-24 08:45:17 +0000";
layers = (
{
anchors = (
{
name = bottom;
pos = (139,0);
}
);
background = {
anchors = (
{
name = bottom;
pos = (138,0);
}
);
};
layerId = "9527F797-22C1-480E-A1FE-2CDBEBE1FD4C";
shapes = (
{
closed = 1;
nodes = (
(194,0,l),
(194,520,l),
(84,520,l),
(84,0,l)
);
},
{
closed = 1;
nodes = (
(186,584,o),
(220,617,o),
(220,662,cs),
(220,707,o),
(186,740,o),
(139,740,cs),
(92,740,o),
(58,707,o),
(58,662,cs),
(58,617,o),
(92,584,o),
(139,584,cs)
);
}
);
width = 278;
},
{
anchors = (
{
name = bottom;
pos = (160,0);
}
);
layerId = "9E6B41AB-2970-4C41-8B35-4DBE0D296A43";
shapes = (
{
closed = 1;
nodes = (
(260,0,l),
(260,480,l),
(60,480,l),
(60,0,l)
);
},
{
closed = 1;
nodes = (
(224,530,o),
(270,574,o),
(270,635,cs),
(270,696,o),
(224,740,o),
(160,740,cs),
(96,740,o),
(50,696,o),
(50,635,cs),
(50,574,o),
(96,530,o),
(160,530,cs)
);
}
);
width = 320;
},
{
anchors = (
{
name = bottom;
pos = (118,0);
}
);
layerId = "D65C9A1E-0FCA-4B2D-8EDF-9F36CA9182A1";
shapes = (
{
closed = 1;
nodes = (
(128,0,l),
(128,520,l),
(108,520,l),
(108,0,l)
);
},
{
closed = 1;
nodes = (
(147,640,o),
(169,662,o),
(169,690,cs),
(169,718,o),
(147,740,o),
(118,740,cs),
(89,740,o),
(67,718,o),
(67,690,cs),
(67,662,o),
(89,640,o),
(118,640,cs)
);
}
);
width = 236;
}
);
metricLeft = "=l*.8";
metricRight = "=|";
unicode = 105;
},
{
color = 10;
glyphname = idotless;
kernLeft = l;
kernRight = l;
lastChange = "2025-03-19 05:50:49 +0000";
layers = (
{
anchors = (
{
name = bottom;
pos = (119,0);
},
{
name = ogonek;
pos = (129,0);
},
{
name = top;
pos = (119,520);
}
);
layerId = "D65C9A1E-0FCA-4B2D-8EDF-9F36CA9182A1";
shapes = (
{
closed = 1;
nodes = (
(129,0,l),
(129,520,l),
(109,520,l),
(109,0,l)
);
}
);
width = 238;
},
{
anchors = (
{
name = bottom;
pos = (140,0);
},
{
name = ogonek;
pos = (195,0);
},
{
name = top;
pos = (140,520);
}
);
layerId = "9527F797-22C1-480E-A1FE-2CDBEBE1FD4C";
shapes = (
{
closed = 1;
nodes = (
(195,0,l),
(195,520,l),
(85,520,l),
(85,0,l)
);
}
);
width = 280;
},
{
anchors = (
{
name = bottom;
pos = (159,0);
},
{
name = ogonek;
pos = (259,0);
},
{
name = top;
pos = (159,520);
}
);
layerId = "9E6B41AB-2970-4C41-8B35-4DBE0D296A43";
shapes = (
{
closed = 1;
nodes = (
(259,0,l),
(259,520,l),
(59,520,l),
(59,0,l)
);
}
);
width = 318;
}
);
metricLeft = "=l";
metricRight = "=|";
unicode = 305;
},
{
glyphname = j;
kernLeft = j;
kernRight = i;
lastChange = "2025-03-24 08:47:12 +0000";
layers = (
{
background = {
shapes = (
{
closed = 0;
nodes = (
(-54,-131,l),
(-35,-218,l)
);
}
);
};
layerId = "9527F797-22C1-480E-A1FE-2CDBEBE1FD4C";
metricLeft = "=l-127";
shapes = (
{
closed = 1;
nodes = (
(208,584,o),
(242,617,o),
(242,662,cs),
(242,707,o),
(208,740,o),
(161,740,cs),
(114,740,o),
(80,707,o),
(80,662,cs),
(80,617,o),
(114,584,o),
(161,584,cs)
);
},
{
closed = 1;
nodes = (
(129,-197,o),
(216,-76,o),
(216,130,cs),
(216,520,l),
(106,520,l),
(106,130,ls),
(106,-34,o),
(59,-111,o),
(-54,-131,c),
(-35,-218,l)
);
}
);
width = 300;
},
{
layerId = "D65C9A1E-0FCA-4B2D-8EDF-9F36CA9182A1";
metricLeft = "=l-142";
shapes = (
{
closed = 1;
nodes = (
(161,640,o),
(183,662,o),
(183,690,cs),
(183,718,o),
(161,740,o),
(132,740,cs),
(103,740,o),
(81,718,o),
(81,690,cs),
(81,662,o),
(103,640,o),
(132,640,cs)
);
},
{
closed = 1;
nodes = (
(74,-197,o),
(142,-76,o),
(142,130,cs),
(142,520,l),
(122,520,l),
(122,130,ls),
(122,-68,o),
(58,-179,o),
(-58,-198,c),
(-55,-218,l)
);
}
);
width = 250;
},
{
layerId = "9E6B41AB-2970-4C41-8B35-4DBE0D296A43";
metricLeft = "=i-112";
name = Black;
shapes = (
{
closed = 1;
nodes = (
(242,530,o),
(288,574,o),
(288,635,cs),
(288,696,o),
(242,740,o),
(178,740,cs),
(114,740,o),
(68,696,o),
(68,635,cs),
(68,574,o),
(114,530,o),
(178,530,cs)
);
},
{
closed = 1;
nodes = (
(171,-197,o),
(278,-77,o),
(278,130,cs),
(278,480,l),
(78,480,l),
(78,130,ls),
(78,-11,o),
(49,-54,o),
(-62,-78,c),
(-31,-218,l)
);
}
);
width = 338;
}
);
metricLeft = "=i";
metricRight = "=i";
unicode = 106;
},
{
color = 10;
glyphname = jdotless;
kernLeft = l;
kernRight = g;
lastChange = "2025-03-19 05:50:49 +0000";
layers = (
{
anchors = (
{
name = bottom;
pos = (114,-160);
},
{
name = top;
pos = (149,520);
}
);
layerId = "D65C9A1E-0FCA-4B2D-8EDF-9F36CA9182A1";
shapes = (
{
closed = 1;
nodes = (
(-89,-220,l),
(104,-198,o),
(159,-142,o),
(159,35,cs),
(159,520,l),
(139,520,l),
(139,35,ls),
(139,-131,o),
(92,-179,o),
(-91,-200,c)
);
}
);
width = 268;
},
{
anchors = (
{
name = bottom;
pos = (141,-160);
},
{
name = top;
pos = (170,520);
}
);
layerId = "9527F797-22C1-480E-A1FE-2CDBEBE1FD4C";
shapes = (
{
closed = 1;
nodes = (
(-69,-220,l),
(160,-199,o),
(225,-139,o),
(225,53,cs),
(225,520,l),
(115,520,l),
(115,53,ls),
(115,-79,o),
(81,-109,o),
(-85,-126,c)
);
}
);
width = 310;
},
{
anchors = (
{
name = bottom;
pos = (167,-160);
},
{
name = top;
pos = (189,520);
}
);
layerId = "9E6B41AB-2970-4C41-8B35-4DBE0D296A43";
shapes = (
{
closed = 1;
nodes = (
(-51,-220,l),
(214,-200,o),
(289,-136,o),
(289,70,cs),
(289,520,l),
(89,520,l),
(89,70,ls),
(89,-39,o),
(69,-56,o),
(-81,-70,c)
);
}
);
width = 348;
}
);
metricLeft = "=j";
metricRight = "=j";
unicode = 567;
},
{
glyphname = k;
kernLeft = h;
kernRight = x;
lastChange = "2025-03-24 08:48:08 +0000";
layers = (
{
anchors = (
{
name = bottom;
pos = (274,0);
},
{
name = top;
pos = (274,730);
}
);
background = {
shapes = (
{
closed = 1;
nodes = (
(174,730,l),
(66,730,l),
(66,0,l),
(174,0,l)
);
},
{
closed = 1;
nodes = (
(188,273,l),
(431,0,l),
(556,0,l),
(275,320,l)
);
},
{
closed = 1;
nodes = (
(245,254,l),
(556,520,l),
(417,520,l),
(118,280,l),
(141,179,l),
(245,268,l)
);
}
);
};
layerId = "9527F797-22C1-480E-A1FE-2CDBEBE1FD4C";
shapes = (
{
closed = 1;
nodes = (
(174,0,l),
(174,207,l),
(215,242,l),
(215,242,l),
(431,0,l),
(556,0,l),
(295,297,l),
(556,520,l),
(417,520,l),
(176,326,l),
(174,326,l),
(174,730,l),
(66,730,l),
(66,0,l)
);
}
);
width = 569;
},
{
anchors = (
{
name = bottom;
pos = (287,0);
},
{
name = top;
pos = (287,730);
}
);
background = {
shapes = (
{
closed = 1;
nodes = (
(361,209,l),
(616,520,l),
(380,520,l),
(183,280,l),
(183,112,l),
(361,329,l)
);
},
{
closed = 1;
nodes = (
(252,730,l),
(56,730,l),
(56,0,l),
(252,0,l)
);
},
{
closed = 1;
nodes = (
(194,362,l),
(400,0,l),
(616,0,l),
(392,362,l)
);
}
);
};
layerId = "9E6B41AB-2970-4C41-8B35-4DBE0D296A43";
shapes = (
{
closed = 1;
nodes = (
(252,0,l),
(252,196,l),
(272,221,l),
(274,221,l),
(400,0,l),
(616,0,l),
(433,296,l),
(616,520,l),
(380,520,l),
(254,366,l),
(252,366,l),
(252,730,l),
(56,730,l),
(56,0,l)
);
}
);
width = 627;
},
{
anchors = (
{
name = bottom;
pos = (262,0);
},
{
name = top;
pos = (262,730);
}
);
background = {
shapes = (
{
closed = 1;
nodes = (
(96,730,l),
(76,730,l),
(76,0,l),
(96,0,l)
);
},
{
closed = 1;
nodes = (
(86,252,l),
(496,520,l),
(459,520,l),
(83,274,l)
);
},
{
closed = 1;
nodes = (
(496,0,l),
(149,305,l),
(135,291,l),
(466,0,l)
);
}
);
};
layerId = "D65C9A1E-0FCA-4B2D-8EDF-9F36CA9182A1";
name = Thin;
shapes = (
{
closed = 1;
nodes = (
(96,0,l),
(96,259,l),
(140,287,l),
(140,287,l),
(466,0,l),
(496,0,l),
(157,298,l),
(496,520,l),
(459,520,l),
(98,284,l),
(96,284,l),
(96,730,l),
(76,730,l),
(76,0,l)
);
}
);
width = 511;
}
);
metricLeft = "=h";
metricRight = "=|*.2";
unicode = 107;
},
{
color = 10;
glyphname = kgreenlandic;
kernLeft = n;
kernRight = x;
lastChange = "2025-03-19 05:50:49 +0000";
layers = (
{
anchors = (
{
name = bottom;
pos = (249,0);
},
{
name = top;
pos = (249,520);
}
);
layerId = "D65C9A1E-0FCA-4B2D-8EDF-9F36CA9182A1";
shapes = (
{
closed = 1;
nodes = (
(121,0,l),
(121,262,l),
(123,262,l),
(485,0,l),
(519,0,l),
(146,270,l),
(502,520,l),
(468,520,l),
(123,278,l),
(121,278,l),
(121,520,l),
(99,520,l),
(99,0,l)
);
}
);
width = 559;
},
{
anchors = (
{
name = bottom;
pos = (273,0);
},
{
name = top;
pos = (273,520);
}
);
layerId = "9527F797-22C1-480E-A1FE-2CDBEBE1FD4C";
shapes = (
{
closed = 1;
nodes = (
(186,0,l),
(186,235,l),
(188,235,l),
(428,0,l),
(567,0,l),
(281,270,l),
(556,520,l),
(417,520,l),
(188,306,l),
(186,306,l),
(186,520,l),
(77,520,l),
(77,0,l)
);
}
);
width = 590;
},
{
anchors = (
{
name = bottom;
pos = (295,0);
},
{
name = top;
pos = (295,520);
}
);
layerId = "9E6B41AB-2970-4C41-8B35-4DBE0D296A43";
shapes = (
{
closed = 1;
nodes = (
(250,0,l),
(250,215,l),
(252,215,l),
(389,0,l),
(614,0,l),
(414,270,l),
(609,520,l),
(384,520,l),
(252,325,l),
(250,325,l),
(250,520,l),
(54,520,l),
(54,0,l)
);
}
);
width = 625;
}
);
metricLeft = "=k";
metricRight = "=k";
unicode = 312;
},
{
glyphname = l;
kernLeft = l;
kernRight = l;
lastChange = "2025-03-24 08:44:36 +0000";
layers = (
{
anchors = (
{
name = bottom;
pos = (94,0);
},
{
name = center;
pos = (94,430);
},
{
name = pdcenter;
pos = (355,375);
},
{
name = top;
pos = (94,730);
},
{
name = topright;
pos = (239,730);
}
);
layerId = "D65C9A1E-0FCA-4B2D-8EDF-9F36CA9182A1";
shapes = (
{
closed = 1;
nodes = (
(104,0,l),
(104,730,l),
(84,730,l),
(84,0,l)
);
}
);
width = 188;
},
{
anchors = (
{
name = bottom;
pos = (128,0);
},
{
name = center;
pos = (128,430);
},
{
name = pdcenter;
pos = (389,375);
},
{
name = top;
pos = (128,730);
},
{
name = topright;
pos = (273,730);
}
);
layerId = "9527F797-22C1-480E-A1FE-2CDBEBE1FD4C";
shapes = (
{
closed = 1;
nodes = (
(183,0,l),
(183,730,l),
(73,730,l),
(73,0,l)
);
}
);
width = 256;
},
{
anchors = (
{
name = bottom;
pos = (162,0);
},
{
name = center;
pos = (162,430);
},
{
name = pdcenter;
pos = (423,375);
},
{
name = top;
pos = (162,730);
},
{
name = topright;
pos = (307,730);
}
);
layerId = "9E6B41AB-2970-4C41-8B35-4DBE0D296A43";
name = Black;
shapes = (
{
closed = 1;
nodes = (
(262,0,l),
(262,730,l),
(62,730,l),
(62,0,l)
);
}
);
width = 324;
}
);
metricLeft = "=h*1.1";
metricRight = "=|";
unicode = 108;
},
{
color = 10;
glyphname = lslash;
kernLeft = o;
kernRight = f;
lastChange = "2025-03-19 05:50:49 +0000";
layers = (
{
layerId = "D65C9A1E-0FCA-4B2D-8EDF-9F36CA9182A1";
metricLeft = "=t*.9";
shapes = (
{
closed = 1;
nodes = (
(376,431,l),
(368,449,l),
(38,299,l),
(46,281,l)
);
},
{
pos = (103,0);
ref = l;
}
);
width = 414;
},
{
layerId = "9527F797-22C1-480E-A1FE-2CDBEBE1FD4C";
metricLeft = "=t*.7";
shapes = (
{
closed = 1;
nodes = (
(449,407,l),
(413,491,l),
(13,323,l),
(49,239,l)
);
},
{
alignment = -1;
pos = (97,0);
ref = l;
}
);
width = 462;
},
{
layerId = "9E6B41AB-2970-4C41-8B35-4DBE0D296A43";
metricLeft = "=t*.5";
shapes = (
{
closed = 1;
nodes = (
(531,393,l),
(476,523,l),
(7,337,l),
(62,207,l)
);
},
{
pos = (104,0);
ref = l;
}
);
width = 538;
}
);
metricLeft = "=t*.5";
metricRight = "=|";
unicode = 322;
},
{
glyphname = m;
kernLeft = m;
kernRight = h;
lastChange = "2025-03-24 08:56:24 +0000";
layers = (
{
layerId = "D65C9A1E-0FCA-4B2D-8EDF-9F36CA9182A1";
shapes = (
{
closed = 1;
nodes = (
(116,0,l),
(116,368,ls),
(116,426,o),
(175,510,o),
(278,510,cs),
(364,510,o),
(397,452,o),
(397,320,cs),
(396,0,l),
(416,0,l),
(416,368,ls),
(416,426,o),
(475,510,o),
(578,510,cs),
(660,510,o),
(696,452,o),
(696,320,cs),
(696,0,l),
(716,0,l),
(716,320,ls),
(716,464,o),
(673,530,o),
(578,530,cs),
(503,530,o),
(439,489,o),
(409,422,c),
(407,422,l),
(389,495,o),
(347,530,o),
(278,530,cs),
(203,530,o),
(139,489,o),
(109,422,c),
(107,422,l),
(100,456,o),
(87,489,o),
(64,530,c),
(46,520,l),
(85,452,o),
(96,408,o),
(96,321,cs),
(96,0,l)
);
}
);
width = 777;
},
{
layerId = "9527F797-22C1-480E-A1FE-2CDBEBE1FD4C";
shapes = (
{
closed = 1;
nodes = (
(171,0,l),
(171,300,ls),
(171,369,o),
(224,434,o),
(281,434,cs),
(328,434,o),
(345,400,o),
(345,305,cs),
(345,0,l),
(451,0,l),
(451,300,ls),
(451,369,o),
(504,434,o),
(561,434,cs),
(608,434,o),
(625,400,o),
(625,305,cs),
(625,0,l),
(733,0,l),
(733,305,ls),
(733,459,o),
(688,530,o),
(591,530,cs),
(526,530,o),
(473,498,o),
(437,438,c),
(435,438,l),
(417,500,o),
(375,530,o),
(309,530,cs),
(243,530,o),
(194,500,o),
(157,438,c),
(155,438,l),
(151,468,o),
(139,499,o),
(118,534,c),
(13,492,l),
(51,423,o),
(63,370,o),
(63,271,cs),
(63,0,l)
);
}
);
width = 786;
},
{
layerId = "9E6B41AB-2970-4C41-8B35-4DBE0D296A43";
shapes = (
{
closed = 1;
nodes = (
(257,0,l),
(257,320,ls),
(257,346,o),
(275,370,o),
(295,370,cs),
(321,370,o),
(327,355,o),
(327,290,cs),
(327,0,l),
(515,0,l),
(515,320,ls),
(515,346,o),
(533,370,o),
(553,370,cs),
(579,370,o),
(585,355,o),
(585,290,cs),
(585,0,l),
(781,0,l),
(781,290,ls),
(781,455,o),
(735,530,o),
(635,530,cs),
(580,530,o),
(540,508,o),
(497,455,c),
(495,455,l),
(477,505,o),
(436,530,o),
(372,530,cs),
(317,530,o),
(283,511,o),
(239,455,c),
(237,455,l),
(228,487,o),
(217,513,o),
(203,536,c),
(11,460,l),
(47,399,o),
(61,332,o),
(61,220,cs),
(61,0,l)
);
}
);
width = 826;
},
{
associatedMasterId = "D65C9A1E-0FCA-4B2D-8EDF-9F36CA9182A1";
attr = {
coordinates = (
232
);
};
layerId = "0CBD3FAB-BA75-4DFC-AD86-B9F788B7BCE9";
name = "{232}";
shapes = (
{
closed = 1;
nodes = (
(114,0,l),
(114,346,ls),
(114,407,o),
(171,485,o),
(259,485,cs),
(332,485,o),
(359,435,o),
(359,315,cs),
(359,0,l),
(407,0,l),
(407,346,ls),
(407,407,o),
(464,485,o),
(552,485,cs),
(622,485,o),
(652,435,o),
(652,315,cs),
(652,0,l),
(701,0,l),
(701,315,ls),
(701,462,o),
(658,530,o),
(562,530,cs),
(488,530,o),
(427,495,o),
(395,435,c),
(393,435,l),
(375,499,o),
(334,530,o),
(268,530,cs),
(195,530,o),
(134,495,o),
(102,435,c),
(100,435,l),
(94,465,o),
(82,496,o),
(61,531,c),
(15,511,l),
(54,442,o),
(65,395,o),
(65,305,cs),
(65,0,l)
);
}
);
width = 760;
}
);
metricLeft = "=|d";
metricRight = "=h";
unicode = 109;
},
{
glyphname = n;
kernLeft = m;
kernRight = h;
lastChange = "2025-03-24 08:56:28 +0000";
layers = (
{
anchors = (
{
name = bottom;
pos = (306,0);
},
{
name = top;
pos = (306,520);
}
);
layerId = "D65C9A1E-0FCA-4B2D-8EDF-9F36CA9182A1";
shapes = (
{
closed = 1;
nodes = (
(116,0,l),
(116,368,ls),
(116,453,o),
(235,510,o),
(330,510,cs),
(419,510,o),
(476,438,o),
(476,320,cs),
(476,0,l),
(496,0,l),
(496,320,ls),
(496,448,o),
(431,530,o),
(330,530,cs),
(237,530,o),
(143,484,o),
(109,422,c),
(107,422,l),
(100,456,o),
(87,489,o),
(64,530,c),
(46,520,l),
(85,452,o),
(96,408,o),
(96,321,cs),
(96,0,l)
);
}
);
width = 557;
},
{
anchors = (
{
name = bottom;
pos = (293,0);
},
{
name = top;
pos = (293,520);
}
);
background = {
anchors = (
{
name = bottom;
pos = (294,0);
},
{
name = top;
pos = (294,520);
}
);
};
layerId = "9527F797-22C1-480E-A1FE-2CDBEBE1FD4C";
shapes = (
{
closed = 1;
nodes = (
(171,0,l),
(171,300,ls),
(171,371,o),
(241,436,o),
(318,436,cs),
(377,436,o),
(405,394,o),
(405,305,cs),
(405,0,l),
(513,0,l),
(513,305,ls),
(513,457,o),
(456,530,o),
(338,530,cs),
(262,530,o),
(203,500,o),
(157,438,c),
(155,438,l),
(151,468,o),
(139,499,o),
(118,534,c),
(13,492,l),
(51,423,o),
(63,370,o),
(63,271,cs),
(63,0,l)
);
}
);
width = 566;
},
{
anchors = (
{
name = bottom;
pos = (311,0);
},
{
name = top;
pos = (311,520);
}
);
layerId = "9E6B41AB-2970-4C41-8B35-4DBE0D296A43";
shapes = (
{
closed = 1;
nodes = (
(257,0,l),
(257,320,ls),
(257,343,o),
(297,370,o),
(331,370,cs),
(359,370,o),
(367,352,o),
(367,290,cs),
(367,0,l),
(561,0,l),
(561,290,ls),
(561,457,o),
(512,530,o),
(400,530,cs),
(337,530,o),
(288,507,o),
(239,455,c),
(237,455,l),
(228,487,o),
(217,513,o),
(203,536,c),
(11,460,l),
(47,399,o),
(61,332,o),
(61,220,cs),
(61,0,l)
);
}
);
width = 606;
},
{
anchors = (
{
name = bottom;
pos = (281,0);
},
{
name = top;
pos = (281,520);
}
);
associatedMasterId = "D65C9A1E-0FCA-4B2D-8EDF-9F36CA9182A1";
attr = {
coordinates = (
232
);
};
layerId = "899DC2DC-F451-4B84-9275-F30D30733E24";
name = "{232}";
shapes = (
{
closed = 1;
nodes = (
(114,0,l),
(114,346,ls),
(114,418,o),
(207,486,o),
(306,486,cs),
(385,486,o),
(432,423,o),
(432,315,cs),
(432,0,l),
(481,0,l),
(481,315,ls),
(481,451,o),
(419,530,o),
(312,530,cs),
(225,530,o),
(141,492,o),
(103,435,c),
(101,435,l),
(95,466,o),
(82,498,o),
(62,531,c),
(15,510,l),
(54,441,o),
(65,396,o),
(65,305,cs),
(65,0,l)
);
}
);
width = 540;
}
);
metricLeft = "=m";
metricRight = "=h";
unicode = 110;
},
{
color = 10;
glyphname = eng;
kernLeft = n;
kernRight = g;
lastChange = "2025-03-19 05:50:49 +0000";
layers = (
{
anchors = (
{
name = bottom;
pos = (300,0);
},
{
name = top;
pos = (300,520);
}
);
layerId = "D65C9A1E-0FCA-4B2D-8EDF-9F36CA9182A1";
shapes = (
{
closed = 1;
nodes = (
(466,-211,o),
(509,-164,o),
(509,-61,cs),
(509,300,ls),
(509,451,o),
(445,530,o),
(319,530,cs),
(223,530,o),
(151,484,o),
(121,409,c),
(119,409,l),
(119,520,l),
(99,520,l),
(99,0,l),
(119,0,l),
(119,310,ls),
(119,432,o),
(198,510,o),
(319,510,cs),
(433,510,o),
(489,441,o),
(489,300,cs),
(489,-61,ls),
(489,-153,o),
(454,-191,o),
(369,-191,cs),
(344,-191,o),
(318,-186,o),
(296,-177,c),
(290,-196,l),
(314,-205,o),
(342,-211,o),
(369,-211,cs)
);
}
);
width = 588;
},
{
anchors = (
{
name = bottom;
pos = (308,0);
},
{
name = top;
pos = (308,520);
}
);
layerId = "9527F797-22C1-480E-A1FE-2CDBEBE1FD4C";
shapes = (
{
closed = 1;
nodes = (
(495,-221,o),
(547,-163,o),
(547,-26,cs),
(547,300,ls),
(547,458,o),
(490,530,o),
(364,530,cs),
(288,530,o),
(229,504,o),
(183,450,c),
(181,450,l),
(180,520,l),
(77,520,l),
(77,0,l),
(185,0,l),
(185,290,ls),
(185,372,o),
(252,440,o),
(334,440,cs),
(405,440,o),
(439,388,o),
(439,280,cs),
(439,-26,ls),
(439,-97,o),
(413,-126,o),
(349,-126,cs),
(324,-126,o),
(298,-122,o),
(274,-114,c),
(259,-205,l),
(296,-216,o),
(334,-221,o),
(371,-221,cs)
);
}
);
width = 609;
},
{
anchors = (
{
name = bottom;
pos = (316,0);
},
{
name = top;
pos = (316,520);
}
);
layerId = "9E6B41AB-2970-4C41-8B35-4DBE0D296A43";
shapes = (
{
closed = 1;
nodes = (
(529,-229,o),
(584,-169,o),
(584,0,cs),
(584,300,ls),
(584,464,o),
(534,530,o),
(409,530,cs),
(337,530,o),
(291,508,o),
(244,450,c),
(242,450,l),
(240,520,l),
(54,520,l),
(54,0,l),
(250,0,l),
(250,290,ls),
(250,334,o),
(285,370,o),
(329,370,cs),
(371,370,o),
(388,338,o),
(388,260,cs),
(388,0,ls),
(388,-54,o),
(375,-70,o),
(329,-70,cs),
(307,-70,o),
(274,-66,o),
(246,-59,c),
(226,-214,l),
(274,-223,o),
(324,-229,o),
(372,-229,cs)
);
}
);
width = 627;
},
{
anchors = (
{
name = bottom;
pos = (303,0);
},
{
name = top;
pos = (303,520);
}
);
associatedMasterId = "D65C9A1E-0FCA-4B2D-8EDF-9F36CA9182A1";
attr = {
coordinates = (
232
);
};
layerId = "79FE56B5-3AAC-4AE6-A914-FF8F134DF163";
name = "{232}";
shapes = (
{
closed = 1;
nodes = (
(476,-214,o),
(522,-164,o),
(522,-49,cs),
(522,300,ls),
(522,453,o),
(460,530,o),
(334,530,cs),
(249,530,o),
(178,495,o),
(143,436,c),
(141,436,l),
(141,520,l),
(92,520,l),
(92,0,l),
(141,0,l),
(141,303,ls),
(141,412,o),
(216,487,o),
(324,487,cs),
(424,487,o),
(472,424,o),
(472,293,cs),
(472,-49,ls),
(472,-135,o),
(440,-170,o),
(363,-170,cs),
(338,-170,o),
(312,-165,o),
(289,-156,c),
(280,-199,l),
(309,-209,o),
(340,-214,o),
(370,-214,cs)
);
}
);
width = 596;
}
);
metricLeft = "=h";
metricRight = "=h";
unicode = 331;
},
{
glyphname = o;
kernLeft = o;
kernRight = o;
lastChange = "2025-03-24 08:44:46 +0000";
layers = (
{
anchors = (
{
name = bottom;
pos = (260,0);
},
{
name = center;
pos = (260,260);
},
{
name = ogonek;
pos = (307,0);
},
{
name = top;
pos = (260,520);
},
{
name = topright;
pos = (386,450);
}
);
background = {
anchors = (
{
name = bottom;
pos = (262,0);
},
{
name = center;
pos = (262,260);
},
{
name = ogonek;
pos = (348,0);
},
{
name = top;
pos = (262,520);
},
{
name = topright;
pos = (417,454);
}
);
};
layerId = "D65C9A1E-0FCA-4B2D-8EDF-9F36CA9182A1";
shapes = (
{
closed = 1;
nodes = (
(401,-10,o),
(490,94,o),
(490,260,cs),
(490,426,o),
(401,530,o),
(260,530,cs),
(119,530,o),
(30,426,o),
(30,260,cs),
(30,94,o),
(119,-10,o),
(260,-10,cs)
);
},
{
closed = 1;
nodes = (
(131,10,o),
(50,104,o),
(50,260,cs),
(50,416,o),
(131,510,o),
(260,510,cs),
(389,510,o),
(470,416,o),
(470,260,cs),
(470,104,o),
(389,10,o),
(260,10,cs)
);
}
);
width = 520;
},
{
anchors = (
{
name = bottom;
pos = (281,0);
},
{
name = center;
pos = (281,260);
},
{
name = ogonek;
pos = (348,0);
},
{
name = top;
pos = (281,520);
},
{
name = topright;
pos = (422,452);
}
);
background = {
anchors = (
{
name = bottom;
pos = (294,0);
},
{
name = center;
pos = (294,260);
},
{
name = ogonek;
pos = (360,0);
},
{
name = top;
pos = (294,520);
},
{
name = topright;
pos = (434,452);
}
);
};
layerId = "9527F797-22C1-480E-A1FE-2CDBEBE1FD4C";
shapes = (
{
closed = 1;
nodes = (
(438,-10,o),
(536,94,o),
(536,260,cs),
(536,426,o),
(438,530,o),
(281,530,cs),
(124,530,o),
(26,426,o),
(26,260,cs),
(26,94,o),
(124,-10,o),
(281,-10,cs)
);
},
{
closed = 1;
nodes = (
(188,80,o),
(134,146,o),
(134,260,cs),
(134,374,o),
(188,440,o),
(281,440,cs),
(374,440,o),
(428,374,o),
(428,260,cs),
(428,146,o),
(374,80,o),
(281,80,cs)
);
}
);
width = 562;
},
{
anchors = (
{
name = bottom;
pos = (302,0);
},
{
name = center;
pos = (302,260);
},
{
name = ogonek;
pos = (388,0);
},
{
name = top;
pos = (302,520);
},
{
name = topright;
pos = (457,454);
}
);
layerId = "9E6B41AB-2970-4C41-8B35-4DBE0D296A43";
shapes = (
{
closed = 1;
nodes = (
(474,-10,o),
(582,94,o),
(582,260,cs),
(582,426,o),
(474,530,o),
(302,530,cs),
(130,530,o),
(22,426,o),
(22,260,cs),
(22,94,o),
(130,-10,o),
(302,-10,cs)
);
},
{
closed = 1;
nodes = (
(246,130,o),
(218,173,o),
(218,260,cs),
(218,347,o),
(246,390,o),
(302,390,cs),
(358,390,o),
(386,347,o),
(386,260,cs),
(386,173,o),
(358,130,o),
(302,130,cs)
);
}
);
width = 604;
},
{
anchors = (
{
name = bottom;
pos = (292,0);
},
{
name = center;
pos = (292,260);
},
{
name = ogonek;
pos = (378,0);
},
{
name = top;
pos = (292,520);
},
{
name = topright;
pos = (447,454);
}
);
associatedMasterId = "9E6B41AB-2970-4C41-8B35-4DBE0D296A43";
layerId = "5A261D00-AEB0-439E-AD78-E77BB954A546";
name = "Mar 23, 25 at 20:34";
shapes = (
{
closed = 1;
nodes = (
(458,-10,o),
(562,94,o),
(562,260,cs),
(562,426,o),
(458,530,o),
(292,530,cs),
(126,530,o),
(22,426,o),
(22,260,cs),
(22,94,o),
(126,-10,o),
(292,-10,cs)
);
},
{
closed = 1;
nodes = (
(243,130,o),
(218,173,o),
(218,260,cs),
(218,347,o),
(243,390,o),
(292,390,cs),
(341,390,o),
(366,347,o),
(366,260,cs),
(366,173,o),
(341,130,o),
(292,130,cs)
);
}
);
width = 584;
},
{
anchors = (
{
name = bottom;
pos = (281,0);
},
{
name = center;
pos = (281,260);
},
{
name = ogonek;
pos = (348,0);
},
{
name = top;
pos = (281,520);
},
{
name = topright;
pos = (422,452);
}
);
associatedMasterId = "9527F797-22C1-480E-A1FE-2CDBEBE1FD4C";
background = {
anchors = (
{
name = bottom;
pos = (299,0);
},
{
name = center;
pos = (299,260);
},
{
name = ogonek;
pos = (365,0);
},
{
name = top;
pos = (299,520);
},
{
name = topright;
pos = (439,452);
}
);
};
layerId = "C849EF60-8C0A-4F22-B583-4D5E54F5D746";
name = "Mar 23, 25 at 20:35";
shapes = (
{
closed = 1;
nodes = (
(435,-10,o),
(531,94,o),
(531,260,cs),
(531,426,o),
(435,530,o),
(281,530,cs),
(127,530,o),
(31,426,o),
(31,260,cs),
(31,94,o),
(127,-10,o),
(281,-10,cs)
);
},
{
closed = 1;
nodes = (
(191,80,o),
(139,146,o),
(139,260,cs),
(139,374,o),
(191,440,o),
(281,440,cs),
(371,440,o),
(423,374,o),
(423,260,cs),
(423,146,o),
(371,80,o),
(281,80,cs)
);
}
);
width = 562;
}
);
metricLeft = "=h*.4";
metricRight = "=|";
unicode = 111;
},
{
color = 10;
glyphname = oogonek;
kernLeft = o;
kernRight = o;
lastChange = "2025-03-19 05:50:49 +0000";
layers = (
{
layerId = "D65C9A1E-0FCA-4B2D-8EDF-9F36CA9182A1";
shapes = (
{
closed = 1;
nodes = (
(322,-220,o),
(344,-214,o),
(362,-203,c),
(354,-185,l),
(335,-195,o),
(316,-200,o),
(298,-200,cs),
(256,-200,o),
(235,-178,o),
(235,-135,cs),
(235,-79,o),
(280,-32,o),
(367,1,c),
(343.493,10.235,l),
(258.577,-25.997,o),
(215,-75.154,o),
(215,-135,cs),
(215,-191,o),
(243,-220,o),
(298,-220,cs)
);
},
{
ref = o;
}
);
width = 580;
},
{
layerId = "9527F797-22C1-480E-A1FE-2CDBEBE1FD4C";
shapes = (
{
closed = 1;
nodes = (
(338,-217,o),
(364,-213,o),
(387,-205,c),
(370,-120,l),
(357,-127,o),
(343,-130,o),
(328,-130,cs),
(303,-130,o),
(290,-117,o),
(290,-93,cs),
(290,-65,o),
(328,-29,o),
(393,4,c),
(287.095,25.887,l),
(221.459,-16.674,o),
(188,-62.85,o),
(188,-112,cs),
(188,-179,o),
(232,-217,o),
(309,-217,cs)
);
},
{
ref = o;
}
);
width = 598;
},
{
layerId = "9E6B41AB-2970-4C41-8B35-4DBE0D296A43";
shapes = (
{
closed = 1;
nodes = (
(398,-220,o),
(422,-217,o),
(445,-210,c),
(430,-75,l),
(415,-81,o),
(396,-85,o),
(382,-85,cs),
(355,-85,o),
(341,-75,o),
(341,-57,cs),
(341,-33,o),
(369,-12,o),
(427,10,c),
(261.068,52.505,l),
(194.222,4.112,o),
(165,-34.187,o),
(165,-82,cs),
(165,-170,o),
(238,-220,o),
(370,-220,cs)
);
},
{
ref = o;
}
);
width = 614;
}
);
unicode = 491;
},
{
color = 10;
glyphname = oslash;
kernLeft = o;
kernRight = o;
lastChange = "2025-03-19 05:50:49 +0000";
layers = (
{
anchors = (
{
name = bottom;
pos = (292,0);
},
{
name = center;
pos = (292,260);
},
{
name = ogonek;
pos = (339,0);
},
{
name = top;
pos = (292,520);
},
{
name = topright;
pos = (438,480);
}
);
layerId = "D65C9A1E-0FCA-4B2D-8EDF-9F36CA9182A1";
shapes = (
{
closed = 1;
nodes = (
(146,46,l),
(146,46,l),
(454,462,l),
(454,462,l),
(500,524,l),
(484,536,l),
(438,474,l),
(438,474,l),
(130,58,l),
(130,58,l),
(84,-4,l),
(100,-16,l)
);
},
{
ref = o;
}
);
width = 546;
},
{
anchors = (
{
name = bottom;
pos = (303,0);
},
{
name = center;
pos = (303,260);
},
{
name = ogonek;
pos = (369,0);
},
{
name = top;
pos = (303,520);
},
{
name = topright;
pos = (463,482);
}
);
layerId = "9527F797-22C1-480E-A1FE-2CDBEBE1FD4C";
shapes = (
{
closed = 1;
nodes = (
(186,35,l),
(186,35,l),
(484,437,l),
(484,437,l),
(535,506,l),
(471,554,l),
(420,485,l),
(420,485,l),
(122,83,l),
(122,83,l),
(71,14,l),
(135,-34,l)
);
},
{
ref = o;
}
);
width = 578;
},
{
anchors = (
{
name = bottom;
pos = (314,0);
},
{
name = center;
pos = (314,260);
},
{
name = ogonek;
pos = (400,0);
},
{
name = top;
pos = (314,520);
},
{
name = topright;
pos = (489,484);
}
);
layerId = "9E6B41AB-2970-4C41-8B35-4DBE0D296A43";
shapes = (
{
closed = 1;
nodes = (
(194,14,l),
(186,20,l),
(506,452,l),
(514,446,l),
(554,500,l),
(474,560,l),
(434,506,l),
(442,500,l),
(122,68,l),
(114,74,l),
(74,20,l),
(154,-40,l)
);
},
{
ref = o;
}
);
width = 610;
}
);
unicode = 248;
},
{
color = 10;
glyphname = oe;
kernLeft = o;
kernRight = o;
lastChange = "2025-03-19 05:50:49 +0000";
layers = (
{
anchors = (
{
name = bottom;
pos = (505,0);
},
{
name = top;
pos = (505,520);
}
);
layerId = "D65C9A1E-0FCA-4B2D-8EDF-9F36CA9182A1";
shapes = (
{
closed = 1;
nodes = (
(824,-10,o),
(890,11,o),
(940,50,c),
(928,66,l),
(881,29,o),
(820,10,o),
(752,10,cs),
(609,10,o),
(530,97,o),
(530,260,c),
(530,260,l),
(530,418,o),
(610,510,o),
(745,510,cs),
(873,510,o),
(940,428,o),
(940,268,c),
(950,278,l),
(520,278,l),
(520,258,l),
(960,258,l),
(960,263,o),
(960,263,o),
(960,268,cs),
(960,438,o),
(885,530,o),
(745,530,cs),
(598,530,o),
(510,428,o),
(510,260,cs),
(510,87,o),
(597,-10,o),
(752,-10,cs)
);
},
{
ref = o;
}
);
width = 1008;
},
{
anchors = (
{
name = bottom;
pos = (489,0);
},
{
name = top;
pos = (489,520);
}
);
layerId = "9527F797-22C1-480E-A1FE-2CDBEBE1FD4C";
shapes = (
{
closed = 1;
nodes = (
(797,-10,o),
(865,8,o),
(916,39,c),
(897,126,l),
(847,97,o),
(785,80,o),
(723,80,cs),
(613,80,o),
(557,134,o),
(557,240,cs),
(557,270,l),
(557,382,o),
(608,442,o),
(704,442,cs),
(795,442,o),
(840,387,o),
(840,274,c),
(857,300,l),
(511,300,l),
(511,215,l),
(939,215,l),
(940,227,o),
(941,251,o),
(941,269,cs),
(941,436,o),
(856,530,o),
(704,530,cs),
(546,530,o),
(451,428,o),
(451,260,cs),
(451,87,o),
(548,-10,o),
(722,-10,cs)
);
},
{
ref = o;
}
);
width = 978;
},
{
anchors = (
{
name = bottom;
pos = (474,0);
},
{
name = top;
pos = (474,520);
}
);
layerId = "9E6B41AB-2970-4C41-8B35-4DBE0D296A43";
shapes = (
{
closed = 1;
nodes = (
(767,-10,o),
(842,5,o),
(891,28,c),
(871,168,l),
(824,146,o),
(752,130,o),
(693,130,cs),
(616,130,o),
(583,157,o),
(583,220,cs),
(583,280,ls),
(583,367,o),
(607,405,o),
(661,405,cs),
(715,405,o),
(739,367,o),
(739,280,c),
(762,315,l),
(501,315,l),
(501,200,l),
(917,200,l),
(919,211,o),
(921,246,o),
(921,270,cs),
(921,434,o),
(825,530,o),
(661,530,cs),
(493,530,o),
(391,428,o),
(391,260,cs),
(391,87,o),
(499,-10,o),
(691,-10,cs)
);
},
{
ref = o;
}
);
width = 947;
}
);
metricLeft = "=o";
metricRight = "=e";
unicode = 339;
},
{
color = 10;
glyphname = thorn;
kernLeft = b;
kernRight = o;
lastChange = "2025-03-22 12:04:40 +0000";
layers = (
{
layerId = "D65C9A1E-0FCA-4B2D-8EDF-9F36CA9182A1";
shapes = (
{
closed = 1;
nodes = (
(119,-240,l),
(119,120,l),
(121,120,l),
(155,39,o),
(226,-10,o),
(319,-10,cs),
(454,-10,o),
(533,91,o),
(533,260,cs),
(533,429,o),
(454,530,o),
(319,530,cs),
(226,530,o),
(155,481,o),
(121,400,c),
(119,400,l),
(119,760,l),
(99,760,l),
(99,-240,l)
);
},
{
closed = 1;
nodes = (
(197,10,o),
(119,100,o),
(119,235,cs),
(119,285,ls),
(119,420,o),
(197,510,o),
(319,510,cs),
(442,510,o),
(513,419,o),
(513,260,cs),
(513,101,o),
(442,10,o),
(319,10,cs)
);
}
);
width = 583;
},
{
layerId = "9527F797-22C1-480E-A1FE-2CDBEBE1FD4C";
shapes = (
{
closed = 1;
nodes = (
(185,-240,l),
(185,68,l),
(187,68,l),
(228,16,o),
(283,-10,o),
(354,-10,cs),
(493,-10,o),
(574,89,o),
(574,260,cs),
(574,431,o),
(494,530,o),
(354,530,cs),
(283,530,o),
(228,504,o),
(187,452,c),
(185,452,l),
(185,760,l),
(77,760,l),
(77,-240,l)
);
},
{
closed = 1;
nodes = (
(238,80,o),
(185,146,o),
(185,240,cs),
(185,280,ls),
(185,374,o),
(238,440,o),
(327,440,cs),
(416,440,o),
(467,375,o),
(467,260,cs),
(467,145,o),
(416,80,o),
(327,80,cs)
);
}
);
width = 613;
},
{
layerId = "9E6B41AB-2970-4C41-8B35-4DBE0D296A43";
shapes = (
{
closed = 1;
nodes = (
(250,-240,l),
(250,60,l),
(252,60,l),
(297,11,o),
(343,-10,o),
(405,-10,cs),
(538,-10,o),
(614,88,o),
(614,260,cs),
(614,432,o),
(538,530,o),
(405,530,cs),
(343,530,o),
(297,509,o),
(252,460,c),
(250,460,l),
(250,760,l),
(54,760,l),
(54,-240,l)
);
},
{
closed = 1;
nodes = (
(276,140,o),
(250,177,o),
(250,240,cs),
(250,280,ls),
(250,343,o),
(276,380,o),
(334,380,cs),
(394,380,o),
(422,341,o),
(422,260,cs),
(422,179,o),
(394,140,o),
(334,140,cs)
);
}
);
width = 641;
},
{
associatedMasterId = "D65C9A1E-0FCA-4B2D-8EDF-9F36CA9182A1";
attr = {
coordinates = (
232
);
};
layerId = "0BCAABAB-37FB-445D-B33E-60B4C38D96A8";
name = "{232}";
shapes = (
{
closed = 1;
nodes = (
(141,-240,l),
(141,90,l),
(143,90,l),
(179,27,o),
(247,-10,o),
(331,-10,cs),
(469,-10,o),
(547,88,o),
(547,260,cs),
(547,432,o),
(469,530,o),
(331,530,cs),
(247,530,o),
(179,493,o),
(143,430,c),
(141,430,l),
(141,760,l),
(92,760,l),
(92,-240,l)
);
},
{
closed = 1;
nodes = (
(211,33,o),
(141,115,o),
(141,237,cs),
(141,283,ls),
(141,405,o),
(211,487,o),
(322,487,cs),
(433,487,o),
(498,404,o),
(498,260,cs),
(498,116,o),
(433,33,o),
(322,33,cs)
);
}
);
width = 593;
}
);
unicode = 254;
},
{
glyphname = r;
kernLeft = n;
kernRight = f;
lastChange = "2025-03-24 08:49:15 +0000";
layers = (
{
anchors = (
{
name = bottom;
pos = (184,0);
},
{
name = top;
pos = (273,520);
}
);
layerId = "D65C9A1E-0FCA-4B2D-8EDF-9F36CA9182A1";
shapes = (
{
closed = 1;
nodes = (
(116,0,l),
(116,355,ls),
(116,419,o),
(286,510,o),
(436,510,c),
(436,530,l),
(315,530,o),
(171,473,o),
(113,402,c),
(111,402,l),
(104,445,o),
(92,479,o),
(64,530,c),
(46,520,l),
(85,452,o),
(96,408,o),
(96,321,cs),
(96,0,l)
);
}
);
width = 454;
},
{
anchors = (
{
name = bottom;
pos = (155,0);
},
{
name = top;
pos = (244,520);
}
);
background = {
anchors = (
{
name = bottom;
pos = (156,0);
},
{
name = top;
pos = (245,520);
}
);
};
layerId = "9527F797-22C1-480E-A1FE-2CDBEBE1FD4C";
shapes = (
{
closed = 1;
nodes = (
(172,0,l),
(171,324,ls),
(171,372,o),
(328,432,o),
(453,432,c),
(453,530,l),
(349,530,o),
(213,483,o),
(160,429,c),
(158,429,l),
(148,474,o),
(137,503,o),
(118,534,c),
(13,492,l),
(51,423,o),
(63,370,o),
(63,271,cs),
(63,0,l)
);
}
);
width = 469;
},
{
anchors = (
{
name = bottom;
pos = (154,0);
},
{
name = top;
pos = (243,520);
}
);
associatedMasterId = "D65C9A1E-0FCA-4B2D-8EDF-9F36CA9182A1";
attr = {
coordinates = (
232
);
};
layerId = "657C252B-5EEF-4E2C-9A2A-557819CBA416";
metricRight = "=|*.2";
name = "{232}";
shapes = (
{
closed = 1;
nodes = (
(114,0,l),
(114,345,ls),
(114,406,o),
(286,484,o),
(421,484,c),
(421,530,l),
(305,530,o),
(163,479,o),
(107,417,c),
(105,417,l),
(98,454,o),
(83,493,o),
(61,531,c),
(15,510,l),
(54,441,o),
(65,396,o),
(65,305,cs),
(65,0,l)
);
}
);
width = 424;
},
{
anchors = (
{
name = bottom;
pos = (158,0);
},
{
name = top;
pos = (247,520);
}
);
layerId = "9E6B41AB-2970-4C41-8B35-4DBE0D296A43";
shapes = (
{
closed = 1;
nodes = (
(259,0,l),
(257,304,ls),
(257,337,o),
(386,374,o),
(501,374,c),
(501,530,l),
(414,530,o),
(288,494,o),
(239,455,c),
(237,455,l),
(228,487,o),
(217,513,o),
(203,536,c),
(11,460,l),
(47,399,o),
(61,332,o),
(61,220,cs),
(61,0,l)
);
}
);
width = 515;
}
);
metricLeft = "=|d";
metricRight = "=f*.8";
unicode = 114;
},
{
glyphname = s;
kernLeft = s;
kernRight = s;
lastChange = "2025-03-24 08:49:38 +0000";
layers = (
{
anchors = (
{
name = bottom;
pos = (232,0);
},
{
name = cedi;
pos = (181,-1);
},
{
name = top;
pos = (232,520);
}
);
layerId = "D65C9A1E-0FCA-4B2D-8EDF-9F36CA9182A1";
shapes = (
{
closed = 1;
nodes = (
(353,-10,o),
(428,43,o),
(428,132,cs),
(428,330,o),
(58,235,o),
(58,398,cs),
(58,466,o),
(120,510,o),
(231,510,cs),
(296,510,o),
(363,495,o),
(401,473,c),
(411,490,l),
(370,514,o),
(299,530,o),
(231,530,cs),
(111,530,o),
(38,480,o),
(38,398,cs),
(38,211,o),
(408,311,o),
(408,132,cs),
(408,56,o),
(344,10,o),
(228,10,cs),
(163,10,o),
(97,25,o),
(48,51,c),
(39,33,l),
(90,6,o),
(160,-10,o),
(228,-10,cs)
);
}
);
width = 466;
},
{
anchors = (
{
name = bottom;
pos = (238,0);
},
{
name = cedi;
pos = (187,-1);
},
{
name = top;
pos = (238,520);
}
);
layerId = "9527F797-22C1-480E-A1FE-2CDBEBE1FD4C";
shapes = (
{
closed = 1;
nodes = (
(388,-10,o),
(473,47,o),
(473,143,cs),
(473,331,o),
(143,281,o),
(143,383,cs),
(143,420,o),
(183,440,o),
(255,440,cs),
(313,440,o),
(377,427,o),
(436,404,c),
(455,491,l),
(396,517,o),
(330,530,o),
(258,530,cs),
(114,530,o),
(33,478,o),
(33,385,cs),
(33,198,o),
(361,251,o),
(361,144,cs),
(361,101,o),
(326,80,o),
(249,80,cs),
(186,80,o),
(116,94,o),
(54,119,c),
(35,32,l),
(93,6,o),
(171,-10,o),
(246,-10,cs)
);
}
);
width = 506;
},
{
anchors = (
{
name = bottom;
pos = (245,0);
},
{
name = cedi;
pos = (194,-1);
},
{
name = top;
pos = (245,520);
}
);
layerId = "9E6B41AB-2970-4C41-8B35-4DBE0D296A43";
name = Black;
shapes = (
{
closed = 1;
nodes = (
(426,-10,o),
(518,49,o),
(518,153,cs),
(518,336,o),
(228,302,o),
(228,367,cs),
(228,384,o),
(242,390,o),
(280,390,cs),
(331,390,o),
(393,379,o),
(470,356,c),
(500,492,l),
(424,519,o),
(362,530,o),
(286,530,cs),
(118,530,o),
(28,475,o),
(28,372,cs),
(28,188,o),
(315,215,o),
(315,155,cs),
(315,135,o),
(306,130,o),
(270,130,cs),
(212,130,o),
(137,143,o),
(62,166,c),
(32,30,l),
(96,5,o),
(183,-10,o),
(265,-10,cs)
);
}
);
width = 546;
}
);
metricLeft = "=h*.5";
metricRight = "=|";
unicode = 115;
},
{
color = 10;
glyphname = germandbls;
kernLeft = h;
kernRight = X;
lastChange = "2025-03-22 12:04:40 +0000";
layers = (
{
layerId = "D65C9A1E-0FCA-4B2D-8EDF-9F36CA9182A1";
metricRight = "=X*.7";
shapes = (
{
closed = 1;
nodes = (
(465,-10,o),
(539,57,o),
(539,160,cs),
(539,224,o),
(514,264,o),
(411,360,cs),
(369,400,o),
(359,411,o),
(359,420,cs),
(359,427,o),
(365,436,o),
(398,473,cs),
(459,540,o),
(479,574,o),
(479,620,cs),
(479,712,o),
(421,760,o),
(309,760,cs),
(171,760,o),
(99,683,o),
(99,535,cs),
(99,0,l),
(119,0,l),
(119,535,ls),
(119,670,o),
(184,740,o),
(309,740,cs),
(408,740,o),
(459,699,o),
(459,620,cs),
(459,580,o),
(442,550,o),
(383,486,cs),
(353,453,o),
(339,436,o),
(339,420,cs),
(339,401,o),
(357,383,o),
(397,345,cs),
(495,252,o),
(519,218,o),
(519,160,cs),
(519,69,o),
(455,10,o),
(354,10,cs),
(312,10,o),
(248,20,o),
(197,35,c),
(191,15,l),
(246,0,o),
(310,-10,o),
(354,-10,cs)
);
}
);
width = 590;
},
{
layerId = "9527F797-22C1-480E-A1FE-2CDBEBE1FD4C";
metricRight = "=X*.9";
shapes = (
{
closed = 1;
nodes = (
(496,-10,o),
(569,51,o),
(569,153,cs),
(569,209,o),
(547,252,o),
(475,329,cs),
(429,378,o),
(419,391,o),
(419,403,cs),
(419,412,o),
(431,426,o),
(463,469,cs),
(508,528,o),
(514,560,o),
(514,595,cs),
(514,703,o),
(443,760,o),
(308,760,cs),
(156,760,o),
(77,674,o),
(77,508,cs),
(77,0,l),
(185,0,l),
(185,507,ls),
(185,611,o),
(229,665,o),
(313,665,cs),
(375,665,o),
(408,639,o),
(408,589,cs),
(408,567,o),
(401,541,o),
(358,489,cs),
(319,440,o),
(308,420,o),
(308,398,cs),
(308,372,o),
(324,345,o),
(366,300,cs),
(448,214,o),
(463,193,o),
(463,164,cs),
(463,116,o),
(422,85,o),
(358,85,cs),
(329,85,o),
(291,92,o),
(255,103,c),
(240,8,l),
(288,-4,o),
(337,-10,o),
(375,-10,cs)
);
}
);
width = 610;
},
{
layerId = "9E6B41AB-2970-4C41-8B35-4DBE0D296A43";
metricRight = "=X*1.1";
shapes = (
{
closed = 1;
nodes = (
(524,-10,o),
(599,47,o),
(599,145,cs),
(599,192,o),
(582,232,o),
(539,288,cs),
(508,327,o),
(485,365,o),
(485,377,cs),
(485,386,o),
(497,407,o),
(535,465,cs),
(563,508,o),
(565,541,o),
(565,570,cs),
(565,689,o),
(472,760,o),
(314,760,cs),
(151,760,o),
(54,671,o),
(54,520,cs),
(54,0,l),
(250,0,l),
(250,513,ls),
(250,568,o),
(277,600,o),
(322,600,cs),
(355,600,o),
(375,581,o),
(375,548,cs),
(375,531,o),
(368,500,o),
(347,474,cs),
(308,425,o),
(295,400,o),
(295,375,cs),
(295,351,o),
(307,330,o),
(349,274,cs),
(391,218,o),
(403,196,o),
(403,177,cs),
(403,156,o),
(388,145,o),
(360,145,cs),
(346,145,o),
(326,148,o),
(300,155,c),
(290,0,l),
(334,-7,o),
(366,-10,o),
(395,-10,cs)
);
}
);
width = 628;
}
);
metricRight = "=X*1.1";
unicode = 223;
},
{
glyphname = t;
kernLeft = f;
kernRight = c;
lastChange = "2025-03-24 08:56:45 +0000";
layers = (
{
anchors = (
{
name = bottom;
pos = (236,0);
},
{
name = cedi;
pos = (254,0);
},
{
name = center;
pos = (236,260);
},
{
name = top;
pos = (236,520);
},
{
name = topright;
pos = (423,520);
}
);
background = {
anchors = (
{
name = bottom;
pos = (243,0);
},
{
name = cedi;
pos = (214,0);
},
{
name = center;
pos = (243,260);
},
{
name = top;
pos = (243,520);
},
{
name = topright;
pos = (495,520);
}
);
};
layerId = "D65C9A1E-0FCA-4B2D-8EDF-9F36CA9182A1";
metricLeft = "=f*1.4";
shapes = (
{
closed = 1;
nodes = (
(357,-10,o),
(396,-4,o),
(429,7,c),
(423,26,l),
(391,15,o),
(355,10,o),
(318,10,cs),
(224,10,o),
(193,44,o),
(193,150,cs),
(193,500,l),
(432,500,l),
(432,520,l),
(193,520,l),
(193,690,l),
(173,690,l),
(173,520,l),
(32,520,l),
(32,500,l),
(173,500,l),
(173,150,ls),
(173,33,o),
(212,-10,o),
(318,-10,cs)
);
}
);
width = 487;
},
{
anchors = (
{
name = bottom;
pos = (237,0);
},
{
name = cedi;
pos = (231,0);
},
{
name = center;
pos = (237,260);
},
{
name = top;
pos = (237,520);
},
{
name = topright;
pos = (456,520);
}
);
layerId = "9527F797-22C1-480E-A1FE-2CDBEBE1FD4C";
shapes = (
{
closed = 1;
nodes = (
(357,-10,o),
(398,-4,o),
(443,9,c),
(424,96,l),
(395,87,o),
(361,82,o),
(330,82,cs),
(264,82,o),
(244,104,o),
(244,175,cs),
(244,430,l),
(446,430,l),
(446,520,l),
(244,520,l),
(244,690,l),
(135,690,l),
(135,520,l),
(16,520,l),
(16,430,l),
(135,430,l),
(135,160,ls),
(135,38,o),
(185,-10,o),
(312,-10,cs)
);
}
);
width = 494;
},
{
anchors = (
{
name = bottom;
pos = (252,0);
},
{
name = cedi;
pos = (223,0);
},
{
name = center;
pos = (252,260);
},
{
name = top;
pos = (252,520);
},
{
name = topright;
pos = (504,520);
}
);
layerId = "9E6B41AB-2970-4C41-8B35-4DBE0D296A43";
shapes = (
{
closed = 1;
nodes = (
(371,-10,o),
(416,-4,o),
(471,10,c),
(439,155,l),
(414,146,o),
(383,140,o),
(356,140,cs),
(320,140,o),
(309,154,o),
(309,200,cs),
(309,380,l),
(474,380,l),
(474,520,l),
(309,520,l),
(309,690,l),
(111,690,l),
(111,520,l),
(14,520,l),
(14,380,l),
(111,380,l),
(111,170,ls),
(111,42,o),
(171,-10,o),
(320,-10,cs)
);
}
);
width = 515;
}
);
metricLeft = "=f*.8";
metricRight = "=c";
unicode = 116;
},
{
color = 10;
glyphname = tbar;
kernLeft = f;
kernRight = c;
lastChange = "2025-03-19 05:50:49 +0000";
layers = (
{
layerId = "D65C9A1E-0FCA-4B2D-8EDF-9F36CA9182A1";
shapes = (
{
closed = 1;
nodes = (
(419,258,l),
(419,278,l),
(42,278,l),
(42,258,l)
);
},
{
ref = t;
}
);
width = 421;
},
{
layerId = "9527F797-22C1-480E-A1FE-2CDBEBE1FD4C";
shapes = (
{
closed = 1;
nodes = (
(428,220,l),
(428,310,l),
(18,310,l),
(18,220,l)
);
},
{
alignment = -1;
ref = t;
}
);
width = 473;
},
{
layerId = "9E6B41AB-2970-4C41-8B35-4DBE0D296A43";
shapes = (
{
closed = 1;
nodes = (
(453,192,l),
(453,332,l),
(13,332,l),
(13,192,l)
);
},
{
ref = t;
}
);
width = 525;
}
);
unicode = 359;
},
{
glyphname = u;
kernLeft = u;
kernRight = u;
lastChange = "2025-03-24 09:01:30 +0000";
layers = (
{
anchors = (
{
name = bottom;
pos = (288,0);
},
{
name = ogonek;
pos = (514,0);
},
{
name = top;
pos = (288,520);
},
{
name = top_ring;
pos = (288,540);
},
{
name = topright;
pos = (449,480);
}
);
background = {
anchors = (
{
name = bottom;
pos = (275,0);
},
{
name = ogonek;
pos = (534,0);
},
{
name = top;
pos = (275,520);
},
{
name = top_ring;
pos = (275,540);
},
{
name = topright;
pos = (444,480);
}
);
};
layerId = "9527F797-22C1-480E-A1FE-2CDBEBE1FD4C";
shapes = (
{
closed = 1;
nodes = (
(287,-10,o),
(355,24,o),
(399,82,c),
(401,82,l),
(405,52,o),
(417,21,o),
(438,-14,c),
(543,28,l),
(505,97,o),
(493,150,o),
(493,249,cs),
(493,520,l),
(385,520,l),
(385,220,ls),
(385,148,o),
(321,84,o),
(248,84,cs),
(189,84,o),
(161,126,o),
(161,215,cs),
(161,520,l),
(53,520,l),
(53,215,ls),
(53,63,o),
(105,-10,o),
(213,-10,cs)
);
}
);
width = 556;
},
{
anchors = (
{
name = bottom;
pos = (288,0);
},
{
name = ogonek;
pos = (547,0);
},
{
name = top;
pos = (288,520);
},
{
name = top_ring;
pos = (288,540);
},
{
name = topright;
pos = (457,480);
}
);
layerId = "9E6B41AB-2970-4C41-8B35-4DBE0D296A43";
shapes = (
{
closed = 1;
nodes = (
(261,-10,o),
(309,13,o),
(357,65,c),
(359,65,l),
(368,33,o),
(379,7,o),
(393,-16,c),
(585,60,l),
(549,121,o),
(535,188,o),
(535,300,cs),
(535,520,l),
(339,520,l),
(339,200,ls),
(339,177,o),
(303,150,o),
(272,150,cs),
(246,150,o),
(239,167,o),
(239,230,cs),
(239,520,l),
(45,520,l),
(45,230,ls),
(45,64,o),
(93,-10,o),
(201,-10,cs)
);
}
);
width = 596;
},
{
anchors = (
{
name = bottom;
pos = (262,0);
},
{
name = ogonek;
pos = (521,0);
},
{
name = top;
pos = (262,520);
},
{
name = top_ring;
pos = (262,540);
},
{
name = topright;
pos = (431,480);
}
);
associatedMasterId = "D65C9A1E-0FCA-4B2D-8EDF-9F36CA9182A1";
attr = {
coordinates = (
232
);
};
background = {
anchors = (
{
name = bottom;
pos = (271,0);
},
{
name = ogonek;
pos = (519,0);
},
{
name = top;
pos = (271,520);
},
{
name = top_ring;
pos = (271,540);
},
{
name = topright;
pos = (437,480);
}
);
};
layerId = "245D3822-9188-491B-8A3B-367571E408B0";
name = "{232}";
shapes = (
{
closed = 1;
nodes = (
(308,-10,o),
(390,29,o),
(427,85,c),
(429,85,l),
(435,54,o),
(448,22,o),
(468,-11,c),
(515,10,l),
(476,79,o),
(465,124,o),
(465,215,cs),
(465,520,l),
(416,520,l),
(416,174,ls),
(416,102,o),
(326,34,o),
(230,34,cs),
(148,34,o),
(108,90,o),
(108,205,cs),
(108,520,l),
(59,520,l),
(59,205,ls),
(59,59,o),
(112,-10,o),
(224,-10,cs)
);
}
);
width = 530;
},
{
anchors = (
{
name = bottom;
pos = (262,0);
},
{
name = ogonek;
pos = (521,0);
},
{
name = top;
pos = (262,520);
},
{
name = top_ring;
pos = (262,540);
},
{
name = topright;
pos = (431,480);
}
);
background = {
anchors = (
{
name = bottom;
pos = (318,0);
},
{
name = ogonek;
pos = (514,0);
},
{
name = top;
pos = (318,520);
},
{
name = top_ring;
pos = (318,540);
},
{
name = topright;
pos = (494,480);
}
);
};
layerId = "D65C9A1E-0FCA-4B2D-8EDF-9F36CA9182A1";
name = Thin;
shapes = (
{
closed = 1;
nodes = (
(312,-10,o),
(405,37,o),
(438,98,c),
(440,98,l),
(447,64,o),
(460,31,o),
(483,-10,c),
(501,0,l),
(462,68,o),
(451,112,o),
(451,199,cs),
(451,520,l),
(431,520,l),
(431,152,ls),
(431,68,o),
(313,10,o),
(224,10,cs),
(129,10,o),
(81,71,o),
(81,200,cs),
(81,520,l),
(61,520,l),
(61,200,ls),
(61,61,o),
(116,-10,o),
(224,-10,cs)
);
}
);
width = 547;
}
);
metricLeft = "=|n";
metricRight = "=|n";
unicode = 117;
},
{
glyphname = v;
kernLeft = v;
kernRight = v;
lastChange = "2025-03-24 08:44:55 +0000";
layers = (
{
layerId = "D65C9A1E-0FCA-4B2D-8EDF-9F36CA9182A1";
shapes = (
{
closed = 1;
nodes = (
(268,0,l),
(498,520,l),
(476,520,l),
(254,17,l),
(252,17,l),
(30,520,l),
(8,520,l),
(238,0,l)
);
}
);
width = 506;
},
{
layerId = "9527F797-22C1-480E-A1FE-2CDBEBE1FD4C";
shapes = (
{
closed = 1;
nodes = (
(348,0,l),
(537,520,l),
(421,520,l),
(273,78,l),
(271,78,l),
(123,520,l),
(7,520,l),
(196,0,l)
);
}
);
width = 544;
},
{
layerId = "9E6B41AB-2970-4C41-8B35-4DBE0D296A43";
shapes = (
{
closed = 1;
nodes = (
(428,0,l),
(576,520,l),
(374,520,l),
(292,120,l),
(290,120,l),
(208,520,l),
(6,520,l),
(154,0,l)
);
}
);
width = 582;
}
);
metricLeft = "=h*.1";
metricRight = "=|";
unicode = 118;
},
{
glyphname = w;
kernLeft = v;
kernRight = v;
lastChange = "2025-03-24 08:51:08 +0000";
layers = (
{
anchors = (
{
name = bottom;
pos = (356,0);
},
{
name = top;
pos = (356,520);
}
);
layerId = "D65C9A1E-0FCA-4B2D-8EDF-9F36CA9182A1";
metricLeft = "=v*2";
shapes = (
{
closed = 1;
nodes = (
(207,0,l),
(232,142,o),
(286,281,o),
(363,401,c),
(365,401,l),
(496,0,l),
(526,0,l),
(696,520,l),
(675,520,l),
(512,23,l),
(510,23,l),
(347,520,l),
(326,520,l),
(357,425,l),
(280,312,o),
(225,179,o),
(195,42,c),
(193,42,l),
(37,520,l),
(16,520,l),
(186,0,l)
);
}
);
width = 712;
},
{
anchors = (
{
name = bottom;
pos = (377,0);
},
{
name = top;
pos = (377,520);
}
);
layerId = "9527F797-22C1-480E-A1FE-2CDBEBE1FD4C";
metricLeft = "=v*2.4";
shapes = (
{
closed = 1;
nodes = (
(277,0,l),
(288,104,o),
(317,206,o),
(359,287,c),
(361,287,l),
(441,0,l),
(587,0,l),
(737,520,l),
(625,520,l),
(513,90,l),
(511,90,l),
(406,520,l),
(296,520,l),
(326,414,l),
(277,341,o),
(242,262,o),
(221,175,c),
(219,175,l),
(129,520,l),
(17,520,l),
(167,0,l)
);
}
);
width = 754;
},
{
anchors = (
{
name = bottom;
pos = (387,0);
},
{
name = top;
pos = (387,520);
}
);
layerId = "9E6B41AB-2970-4C41-8B35-4DBE0D296A43";
name = Black;
shapes = (
{
closed = 1;
nodes = (
(301,0,l),
(301,61,o),
(320,132,o),
(350,182,c),
(352,182,l),
(385,0,l),
(637,0,l),
(767,520,l),
(573,520,l),
(503,150,l),
(501,150,l),
(455,520,l),
(291,520,l),
(311,411,l),
(281,354,o),
(262,303,o),
(248,241,c),
(246,241,l),
(201,520,l),
(7,520,l),
(137,0,l)
);
}
);
width = 774;
}
);
metricLeft = "=v*1.1";
metricRight = "=|";
unicode = 119;
},
{
glyphname = x;
kernLeft = x;
kernRight = x;
lastChange = "2025-03-24 08:51:25 +0000";
layers = (
{
layerId = "D65C9A1E-0FCA-4B2D-8EDF-9F36CA9182A1";
shapes = (
{
closed = 1;
nodes = (
(41,0,l),
(234,247,l),
(236,247,l),
(429,0,l),
(455,0,l),
(248,263,l),
(450,520,l),
(424,520,l),
(236,279,l),
(234,279,l),
(46,520,l),
(20,520,l),
(222,263,l),
(15,0,l)
);
}
);
width = 470;
},
{
layerId = "9527F797-22C1-480E-A1FE-2CDBEBE1FD4C";
shapes = (
{
closed = 1;
nodes = (
(137,0,l),
(257,204,l),
(259,204,l),
(379,0,l),
(503,0,l),
(332,262,l),
(501,520,l),
(377,520,l),
(259,320,l),
(257,320,l),
(139,520,l),
(15,520,l),
(184,262,l),
(13,0,l)
);
}
);
width = 516;
},
{
layerId = "9E6B41AB-2970-4C41-8B35-4DBE0D296A43";
shapes = (
{
closed = 1;
nodes = (
(213,0,l),
(280,160,l),
(282,160,l),
(349,0,l),
(551,0,l),
(416,260,l),
(551,520,l),
(349,520,l),
(282,360,l),
(280,360,l),
(213,520,l),
(11,520,l),
(146,260,l),
(11,0,l)
);
}
);
width = 562;
}
);
metricLeft = "=|k";
metricRight = "=|";
unicode = 120;
},
{
glyphname = y;
kernLeft = y;
kernRight = v;
lastChange = "2025-03-24 08:52:40 +0000";
layers = (
{
anchors = (
{
name = bottom;
pos = (270,0);
},
{
name = dotR;
pos = (412,20);
},
{
name = top;
pos = (270,520);
}
);
background = {
anchors = (
{
name = bottom;
pos = (275,0);
},
{
name = dotR;
pos = (425,20);
},
{
name = top;
pos = (275,520);
}
);
shapes = (
{
closed = 0;
nodes = (
(133,-518,ls),
(537,520,l)
);
}
);
};
layerId = "9527F797-22C1-480E-A1FE-2CDBEBE1FD4C";
shapes = (
{
closed = 1;
nodes = (
(216,-193,o),
(281,-137,o),
(335,1,cs),
(537,520,l),
(421,520,l),
(281,112,l),
(279,112,l),
(123,520,l),
(7,520,l),
(246,-35,l),
(244,45,l),
(216,-68,o),
(173,-110,o),
(67,-127,c),
(86,-214,l)
);
}
);
width = 544;
},
{
anchors = (
{
name = bottom;
pos = (301,0);
},
{
name = dotR;
pos = (502,20);
},
{
name = top;
pos = (301,520);
}
);
background = {
shapes = (
{
closed = 0;
nodes = (
(224,-518,l),
(596,520,l)
);
}
);
};
layerId = "9E6B41AB-2970-4C41-8B35-4DBE0D296A43";
name = Black;
shapes = (
{
closed = 1;
nodes = (
(286,-194,o),
(360,-138,o),
(410,1,cs),
(596,520,l),
(386,520,l),
(309,181,l),
(307,181,l),
(216,520,l),
(6,520,l),
(249,-60,l),
(250,63,l),
(250,-33,o),
(216,-64,o),
(91,-82,c),
(121,-218,l)
);
}
);
width = 602;
},
{
anchors = (
{
name = bottom;
pos = (238,0);
},
{
name = dotR;
pos = (322,20);
},
{
name = top;
pos = (238,520);
}
);
background = {
anchors = (
{
name = bottom;
pos = (273,0);
},
{
name = dotR;
pos = (474,20);
},
{
name = top;
pos = (273,520);
}
);
shapes = (
{
closed = 0;
nodes = (
(40,-518,ls),
(478,520,l)
);
}
);
};
layerId = "D65C9A1E-0FCA-4B2D-8EDF-9F36CA9182A1";
name = Thin;
shapes = (
{
closed = 1;
nodes = (
(145,-192,o),
(202,-134,o),
(259,1,cs),
(478,520,l),
(456,520,l),
(249,26,l),
(247,26,l),
(30,520,l),
(8,520,l),
(242,-10,l),
(241,9,l),
(186,-121,o),
(133,-174,o),
(46,-190,c),
(50,-210,l)
);
}
);
width = 486;
}
);
metricLeft = "=v";
metricRight = "=|";
unicode = 121;
},
{
glyphname = z;
kernLeft = z;
kernRight = z;
lastChange = "2025-03-24 08:57:11 +0000";
layers = (
{
anchors = (
{
name = bottom;
pos = (256,0);
},
{
name = center;
pos = (256,260);
},
{
name = top;
pos = (256,520);
}
);
background = {
anchors = (
{
name = bottom;
pos = (281,0);
},
{
name = center;
pos = (281,260);
},
{
name = top;
pos = (281,520);
}
);
};
layerId = "D65C9A1E-0FCA-4B2D-8EDF-9F36CA9182A1";
shapes = (
{
closed = 1;
nodes = (
(461,0,l),
(461,20,l),
(88,20,l),
(88,22,l),
(461,500,l),
(461,520,l),
(61,520,l),
(61,500,l),
(434,500,l),
(434,498,l),
(61,20,l),
(61,0,l)
);
}
);
width = 522;
},
{
anchors = (
{
name = bottom;
pos = (268,0);
},
{
name = center;
pos = (268,260);
},
{
name = top;
pos = (268,520);
}
);
background = {
anchors = (
{
name = bottom;
pos = (274,0);
},
{
name = center;
pos = (274,260);
},
{
name = top;
pos = (274,520);
}
);
};
layerId = "9527F797-22C1-480E-A1FE-2CDBEBE1FD4C";
shapes = (
{
closed = 1;
nodes = (
(483,0,l),
(483,90,l),
(194,90,l),
(194,92,l),
(483,430,l),
(483,520,l),
(53,520,l),
(53,430,l),
(342,430,l),
(342,428,l),
(53,90,l),
(53,0,l)
);
}
);
width = 536;
},
{
anchors = (
{
name = bottom;
pos = (275,0);
},
{
name = center;
pos = (275,260);
},
{
name = top;
pos = (275,520);
}
);
layerId = "9E6B41AB-2970-4C41-8B35-4DBE0D296A43";
name = Black;
shapes = (
{
closed = 1;
nodes = (
(505,0,l),
(505,140,l),
(297,140,l),
(297,142,l),
(505,380,l),
(505,520,l),
(45,520,l),
(45,380,l),
(253,380,l),
(253,378,l),
(45,140,l),
(45,0,l)
);
}
);
width = 550;
}
);
metricLeft = "=h*.8";
metricRight = "=|";
unicode = 122;
},
{
color = 4;
export = 0;
glyphname = b.001;
kernLeft = h;
kernRight = o;
lastChange = "2025-03-18 11:18:14 +0000";
layers = (
{
layerId = "D65C9A1E-0FCA-4B2D-8EDF-9F36CA9182A1";
shapes = (
{
closed = 1;
nodes = (
(119,0,l),
(178,-6,o),
(245,-10,o),
(287,-10,cs),
(451,-10,o),
(499,51,o),
(499,260,cs),
(499,440,o),
(444,530,o),
(333,530,cs),
(256,530,o),
(173,482,o),
(121,407,c),
(119,407,l),
(119,730,l),
(99,730,l),
(99,0,l)
);
},
{
closed = 1;
nodes = (
(246,10,o),
(119,18,o),
(119,22,cs),
(119,360,ls),
(119,384,o),
(209,510,o),
(333,510,cs),
(430,510,o),
(479,432,o),
(479,260,cs),
(479,62,o),
(438,10,o),
(287,10,cs)
);
}
);
width = 521;
},
{
layerId = "9527F797-22C1-480E-A1FE-2CDBEBE1FD4C";
name = Medium;
shapes = (
{
closed = 1;
nodes = (
(184,0,l),
(246,-6,o),
(307,-10,o),
(336,-10,cs),
(479,-10,o),
(537,68,o),
(537,260,cs),
(537,447,o),
(485,530,o),
(368,530,cs),
(300,530,o),
(237,502,o),
(187,450,c),
(185,450,l),
(185,730,l),
(77,730,l),
(77,0,l)
);
},
{
closed = 1;
nodes = (
(234,78,o),
(185,87,o),
(185,99,cs),
(185,294,ls),
(185,356,o),
(259,434,o),
(336,434,cs),
(399,434,o),
(431,380,o),
(431,250,cs),
(431,107,o),
(409,78,o),
(299,78,cs)
);
}
);
width = 580;
},
{
layerId = "9E6B41AB-2970-4C41-8B35-4DBE0D296A43";
name = Black;
shapes = (
{
closed = 1;
nodes = (
(248,0,l),
(284,-5,o),
(352,-10,o),
(384,-10,cs),
(513,-10,o),
(574,76,o),
(574,260,cs),
(574,440,o),
(517,530,o),
(402,530,cs),
(343,530,o),
(298,506,o),
(252,450,c),
(250,450,l),
(250,730,l),
(54,730,l),
(54,0,l)
);
},
{
closed = 1;
nodes = (
(274,110,o),
(250,122,o),
(250,140,cs),
(250,320,ls),
(250,345,o),
(285,370,o),
(320,370,cs),
(366,370,o),
(382,336,o),
(382,240,cs),
(382,142,o),
(364,110,o),
(310,110,cs)
);
}
);
width = 600;
}
);
metricLeft = "=h";
metricRight = "=o*1.2";
},
{
color = 4;
export = 0;
glyphname = b.002;
kernLeft = h;
kernRight = o;
lastChange = "2025-03-24 07:25:49 +0000";
layers = (
{
background = {
shapes = (
{
closed = 1;
nodes = (
(119,0,l),
(178,-6,o),
(245,-10,o),
(287,-10,cs),
(451,-10,o),
(499,51,o),
(499,260,cs),
(499,440,o),
(444,530,o),
(333,530,cs),
(256,530,o),
(173,482,o),
(121,407,c),
(119,407,l),
(119,730,l),
(99,730,l),
(99,0,l)
);
},
{
closed = 1;
nodes = (
(246,10,o),
(119,18,o),
(119,22,cs),
(119,360,ls),
(119,384,o),
(209,510,o),
(333,510,cs),
(430,510,o),
(479,432,o),
(479,260,cs),
(479,62,o),
(438,10,o),
(287,10,cs)
);
}
);
};
layerId = "D65C9A1E-0FCA-4B2D-8EDF-9F36CA9182A1";
shapes = (
{
pos = (578,0);
ref = d;
scale = (-1,1);
}
);
width = 578;
},
{
background = {
shapes = (
{
closed = 1;
nodes = (
(184,0,l),
(246,-6,o),
(307,-10,o),
(336,-10,cs),
(479,-10,o),
(537,68,o),
(537,260,cs),
(537,447,o),
(485,530,o),
(368,530,cs),
(300,530,o),
(237,502,o),
(187,450,c),
(185,450,l),
(185,730,l),
(77,730,l),
(77,0,l)
);
},
{
closed = 1;
nodes = (
(234,78,o),
(185,87,o),
(185,99,cs),
(185,294,ls),
(185,356,o),
(259,434,o),
(336,434,cs),
(399,434,o),
(431,380,o),
(431,250,cs),
(431,107,o),
(409,78,o),
(299,78,cs)
);
}
);
};
layerId = "9527F797-22C1-480E-A1FE-2CDBEBE1FD4C";
name = Medium;
shapes = (
{
pos = (579,0);
ref = d;
scale = (-1,1);
}
);
width = 579;
},
{
background = {
shapes = (
{
closed = 1;
nodes = (
(248,0,l),
(284,-5,o),
(352,-10,o),
(384,-10,cs),
(513,-10,o),
(574,76,o),
(574,260,cs),
(574,440,o),
(517,530,o),
(402,530,cs),
(343,530,o),
(298,506,o),
(252,450,c),
(250,450,l),
(250,730,l),
(54,730,l),
(54,0,l)
);
},
{
closed = 1;
nodes = (
(274,110,o),
(250,122,o),
(250,140,cs),
(250,320,ls),
(250,345,o),
(285,370,o),
(320,370,cs),
(366,370,o),
(382,336,o),
(382,240,cs),
(382,142,o),
(364,110,o),
(310,110,cs)
);
}
);
};
layerId = "9E6B41AB-2970-4C41-8B35-4DBE0D296A43";
name = Black;
shapes = (
{
pos = (632,0);
ref = d;
scale = (-1,1);
}
);
width = 632;
}
);
metricLeft = "=h";
metricRight = "=o*1.2";
},
{
color = 4;
export = 0;
glyphname = c.001;
kernLeft = o;
kernRight = c;
lastChange = "2025-03-20 02:58:41 +0000";
layers = (
{
anchors = (
{
name = bottom;
pos = (262,0);
},
{
name = cedi;
pos = (203,0);
},
{
name = top;
pos = (262,520);
}
);
layerId = "9527F797-22C1-480E-A1FE-2CDBEBE1FD4C";
shapes = (
{
closed = 1;
nodes = (
(351,-10,o),
(410,3,o),
(462,28,c),
(443,115,l),
(395,92,o),
(346,80,o),
(299,80,cs),
(192,80,o),
(132,145,o),
(132,260,cs),
(132,375,o),
(192,440,o),
(299,440,cs),
(335,440,o),
(374,432,o),
(410,417,c),
(352,483,l),
(352,310,l),
(460,310,l),
(460,487,l),
(409,516,o),
(354,530,o),
(290,530,cs),
(120,530,o),
(22,431,o),
(22,260,cs),
(22,89,o),
(120,-10,o),
(290,-10,cs)
);
}
);
width = 518;
},
{
anchors = (
{
name = bottom;
pos = (242,0);
},
{
name = cedi;
pos = (198,0);
},
{
name = top;
pos = (242,520);
}
);
layerId = "D65C9A1E-0FCA-4B2D-8EDF-9F36CA9182A1";
shapes = (
{
closed = 1;
nodes = (
(329,-10,o),
(375,1,o),
(422,25,c),
(413,43,l),
(369,20,o),
(326,10,o),
(278,10,cs),
(131,10,o),
(42,105,o),
(42,260,cs),
(42,415,o),
(131,510,o),
(278,510,cs),
(325,510,o),
(368,500,o),
(411,477,c),
(400,495,l),
(400,330,l),
(420,330,l),
(420,495,l),
(374,519,o),
(328,530,o),
(278,530,cs),
(120,530,o),
(22,426,o),
(22,260,cs),
(22,94,o),
(120,-10,o),
(278,-10,cs)
);
}
);
width = 493;
},
{
anchors = (
{
name = bottom;
pos = (282,0);
},
{
name = cedi;
pos = (208,0);
},
{
name = top;
pos = (282,520);
}
);
layerId = "9E6B41AB-2970-4C41-8B35-4DBE0D296A43";
name = Black;
shapes = (
{
closed = 1;
nodes = (
(377,-10,o),
(446,4,o),
(502,30,c),
(472,170,l),
(420,145,o),
(363,130,o),
(320,130,cs),
(252,130,o),
(222,170,o),
(222,260,cs),
(222,350,o),
(252,390,o),
(320,390,cs),
(344,390,o),
(379,384,o),
(408,375,c),
(320,470,l),
(320,330,l),
(500,330,l),
(500,478,l),
(441,513,o),
(377,530,o),
(301,530,cs),
(119,530,o),
(22,437,o),
(22,260,cs),
(22,83,o),
(119,-10,o),
(304,-10,cs)
);
}
);
width = 541;
},
{
anchors = (
{
name = bottom;
pos = (282,0);
},
{
name = cedi;
pos = (208,0);
},
{
name = top;
pos = (282,520);
}
);
associatedMasterId = "9E6B41AB-2970-4C41-8B35-4DBE0D296A43";
layerId = "77E87F8C-353B-4387-A7AC-CF66C6EE63D5";
name = "Mar 20, 25 at 11:58";
shapes = (
{
closed = 1;
nodes = (
(377,-10,o),
(446,4,o),
(502,30,c),
(472,170,l),
(420,145,o),
(363,130,o),
(320,130,cs),
(252,130,o),
(222,170,o),
(222,260,cs),
(222,350,o),
(252,390,o),
(320,390,cs),
(344,390,o),
(379,384,o),
(408,375,c),
(320,470,l),
(320,290,l),
(500,290,l),
(500,478,l),
(441,513,o),
(377,530,o),
(301,530,cs),
(119,530,o),
(22,437,o),
(22,260,cs),
(22,83,o),
(119,-10,o),
(304,-10,cs)
);
}
);
width = 541;
}
);
metricLeft = "=o";
metricRight = "=h*.9";
},
{
color = 4;
export = 0;
glyphname = f.001;
kernLeft = f;
kernRight = f;
lastChange = "2025-03-20 02:58:53 +0000";
layers = (
{
layerId = "9527F797-22C1-480E-A1FE-2CDBEBE1FD4C";
shapes = (
{
closed = 1;
nodes = (
(270,0,l),
(270,385,l),
(482,385,l),
(482,475,l),
(270,475,l),
(270,585,ls),
(270,652,o),
(295,677,o),
(362,677,cs),
(392,677,o),
(427,672,o),
(465,663,c),
(413,733,l),
(413,560,l),
(513,560,l),
(513,738,l),
(466,759,o),
(410,770,o),
(355,770,cs),
(224,770,o),
(160,709,o),
(160,585,cs),
(160,475,l),
(23,475,l),
(23,385,l),
(160,385,l),
(160,0,l)
);
}
);
width = 517;
},
{
layerId = "D65C9A1E-0FCA-4B2D-8EDF-9F36CA9182A1";
shapes = (
{
closed = 1;
nodes = (
(214,0,l),
(214,440,l),
(460,440,l),
(460,460,l),
(214,460,l),
(214,620,ls),
(214,712,o),
(253,750,o),
(349,750,cs),
(386,750,o),
(428,744,o),
(466,736,c),
(450,755,l),
(450,590,l),
(470,590,l),
(470,755,l),
(431,764,o),
(387,770,o),
(349,770,cs),
(242,770,o),
(194,723,o),
(194,620,cs),
(194,460,l),
(30,460,l),
(30,440,l),
(194,440,l),
(194,0,l)
);
}
);
width = 475;
},
{
layerId = "9E6B41AB-2970-4C41-8B35-4DBE0D296A43";
name = Black;
shapes = (
{
closed = 1;
nodes = (
(324,0,l),
(324,340,l),
(504,340,l),
(504,480,l),
(314,480,l),
(314,550,ls),
(314,604,o),
(328,620,o),
(375,620,cs),
(399,620,o),
(434,614,o),
(463,605,c),
(376,710,l),
(376,560,l),
(556,560,l),
(556,720,l),
(500,753,o),
(433,770,o),
(360,770,cs),
(206,770,o),
(126,695,o),
(126,550,cs),
(126,480,l),
(16,480,l),
(16,340,l),
(126,340,l),
(126,0,l)
);
}
);
width = 559;
},
{
associatedMasterId = "9E6B41AB-2970-4C41-8B35-4DBE0D296A43";
layerId = "41EC7414-2A71-443B-8025-F1BB67CA1BB7";
name = "Mar 20, 25 at 11:58";
shapes = (
{
closed = 1;
nodes = (
(324,0,l),
(324,340,l),
(504,340,l),
(504,480,l),
(314,480,l),
(314,550,ls),
(314,604,o),
(328,620,o),
(375,620,cs),
(399,620,o),
(434,614,o),
(463,605,c),
(376,710,l),
(376,530,l),
(556,530,l),
(556,720,l),
(500,753,o),
(433,770,o),
(360,770,cs),
(206,770,o),
(126,695,o),
(126,550,cs),
(126,480,l),
(16,480,l),
(16,340,l),
(126,340,l),
(126,0,l)
);
}
);
width = 559;
}
);
metricLeft = "=h*.3";
metricRight = "=d*.3";
},
{
color = 4;
export = 0;
glyphname = g.001;
kernLeft = o;
kernRight = g;
lastChange = "2025-03-20 06:45:38 +0000";
layers = (
{
anchors = (
{
name = bottom;
pos = (304,-140);
},
{
name = top;
pos = (304,520);
}
);
associatedMasterId = "D65C9A1E-0FCA-4B2D-8EDF-9F36CA9182A1";
attr = {
coordinates = (
232
);
};
background = {
anchors = (
{
name = bottom;
pos = (304,-140);
},
{
name = top;
pos = (304,520);
}
);
shapes = (
{
closed = 1;
nodes = (
(390,157,o),
(462,216,o),
(462,328,cs),
(462,403,o),
(476,452,o),
(512,510,c),
(466,531,l),
(442,493,o),
(429,463,o),
(421,424,c),
(419,424,l),
(388,490,o),
(318,530,o),
(228,530,cs),
(106,530,o),
(29,458,o),
(29,345,cs),
(29,224,o),
(110,157,o),
(253,157,cs)
);
},
{
closed = 1;
nodes = (
(141,197,o),
(79,250,o),
(79,342,cs),
(79,431,o),
(141,488,o),
(238,488,cs),
(342,488,o),
(415,423,o),
(415,330,cs),
(415,244,o),
(360,197,o),
(254,197,cs)
);
},
{
closed = 1;
nodes = (
(388,-212,o),
(464,-158,o),
(464,-53,cs),
(464,43,o),
(398,88,o),
(252,88,cs),
(156,88,o),
(105,107,o),
(105,144,cs),
(105,162,o),
(118,180,o),
(145,202,c),
(105,227,l),
(71,197,o),
(55,170,o),
(55,138,cs),
(55,74,o),
(120,44,o),
(239,44,cs),
(364,44,o),
(415,15,o),
(415,-52,cs),
(415,-127,o),
(354,-169,o),
(233,-169,cs),
(167,-169,o),
(106,-156,o),
(43,-129,c),
(31,-171,l),
(90,-198,o),
(160,-212,o),
(237,-212,cs)
);
}
);
};
layerId = "2CB2E316-DF26-4020-8926-4C268D4E13F3";
name = "{232}";
shapes = (
{
closed = 1;
nodes = (
(390,157,o),
(462,216,o),
(462,328,cs),
(462,403,o),
(476,452,o),
(512,510,c),
(466,531,l),
(445,496,o),
(432,468,o),
(425,432,c),
(423,432,l),
(392,493,o),
(319,530,o),
(228,530,cs),
(106,530,o),
(29,458,o),
(29,345,cs),
(29,224,o),
(110,157,o),
(253,157,cs)
);
},
{
closed = 1;
nodes = (
(141,197,o),
(79,250,o),
(79,342,cs),
(79,431,o),
(141,488,o),
(238,488,cs),
(342,488,o),
(415,423,o),
(415,330,cs),
(415,244,o),
(360,197,o),
(254,197,cs)
);
},
{
closed = 1;
nodes = (
(387,-212,o),
(464,-158,o),
(464,-53,cs),
(464,43,o),
(399,88,o),
(252,88,cs),
(156,88,o),
(105,107,o),
(105,144,cs),
(105,162,o),
(118,180,o),
(145,202,c),
(105,227,l),
(71,197,o),
(55,170,o),
(55,138,cs),
(55,74,o),
(120,44,o),
(239,44,cs),
(364,44,o),
(414,15,o),
(414,-52,cs),
(414,-127,o),
(353,-169,o),
(233,-169,cs),
(166,-169,o),
(107,-156,o),
(44,-129,c),
(31,-171,l),
(90,-198,o),
(160,-212,o),
(237,-212,cs)
);
}
);
width = 510;
},
{
anchors = (
{
name = bottom;
pos = (320,-140);
},
{
name = top;
pos = (320,520);
}
);
layerId = "9E6B41AB-2970-4C41-8B35-4DBE0D296A43";
name = Black;
shapes = (
{
closed = 1;
nodes = (
(471,140,o),
(526,175,o),
(526,298,cs),
(526,367,o),
(543,422,o),
(576,460,c),
(384,536,l),
(370,513,o),
(359,487,o),
(350,455,c),
(348,455,l),
(320,505,o),
(272,530,o),
(205,530,cs),
(93,530,o),
(26,461,o),
(26,345,cs),
(26,212,o),
(114,140,o),
(277,140,cs)
);
},
{
closed = 1;
nodes = (
(240,245,o),
(226,267,o),
(226,325,cs),
(226,383,o),
(240,405,o),
(276,405,cs),
(312,405,o),
(326,383,o),
(326,325,cs),
(326,267,o),
(312,245,o),
(276,245,cs)
);
},
{
closed = 1;
nodes = (
(433,-220,o),
(520,-159,o),
(520,-42,cs),
(520,57,o),
(457,105,o),
(325,105,cs),
(256,105,o),
(234,111,o),
(234,130,cs),
(234,142,o),
(261,173,o),
(281,184,c),
(153,247,l),
(86,200,o),
(54,152,o),
(54,99,cs),
(54,24,o),
(119,-16,o),
(243,-16,cs),
(296,-16,o),
(320,-25,o),
(320,-45,cs),
(320,-68,o),
(301,-76,o),
(244,-76,cs),
(176,-76,o),
(130,-66,o),
(60,-36,c),
(40,-180,l),
(104,-205,o),
(189,-220,o),
(266,-220,cs)
);
}
);
width = 583;
},
{
anchors = (
{
name = bottom;
pos = (326,-140);
},
{
name = top;
pos = (326,520);
}
);
layerId = "9527F797-22C1-480E-A1FE-2CDBEBE1FD4C";
name = Medium;
shapes = (
{
closed = 1;
nodes = (
(431,150,o),
(503,205,o),
(503,324,cs),
(503,385,o),
(522,449,o),
(553,491,c),
(448,533,l),
(428,508,o),
(416,484,o),
(408,455,c),
(406,455,l),
(376,505,o),
(321,530,o),
(242,530,cs),
(113,530,o),
(43,465,o),
(43,345,cs),
(43,216,o),
(123,150,o),
(278,150,cs)
);
},
{
closed = 1;
nodes = (
(198,233,o),
(153,270,o),
(153,337,cs),
(153,404,o),
(197,443,o),
(272,443,cs),
(351,443,o),
(401,400,o),
(401,331,cs),
(401,267,o),
(360,233,o),
(281,233,cs)
);
},
{
closed = 1;
nodes = (
(427,-215,o),
(502,-162,o),
(502,-48,cs),
(502,53,o),
(431,99,o),
(274,99,cs),
(205,99,o),
(180,108,o),
(180,133,cs),
(180,152,o),
(196,171,o),
(231,195,c),
(140,243,l),
(89,201,o),
(70,169,o),
(70,123,cs),
(70,45,o),
(124,13,o),
(256,13,cs),
(353,13,o),
(392,-4,o),
(392,-48,cs),
(392,-98,o),
(341,-127,o),
(253,-127,cs),
(199,-127,o),
(148,-116,o),
(70,-87,c),
(50,-174,l),
(114,-202,o),
(182,-215,o),
(264,-215,cs)
);
}
);
width = 563;
},
{
anchors = (
{
name = bottom;
pos = (293,-140);
},
{
name = top;
pos = (293,520);
}
);
layerId = "D65C9A1E-0FCA-4B2D-8EDF-9F36CA9182A1";
name = Thin;
shapes = (
{
closed = 1;
nodes = (
(370,160,o),
(442,221,o),
(442,330,cs),
(442,412,o),
(453,454,o),
(492,520,c),
(475,530,l),
(449,486,o),
(435,451,o),
(428,409,c),
(426,409,l),
(394,483,o),
(317,530,o),
(221,530,cs),
(103,530,o),
(22,455,o),
(22,345,cs),
(22,228,o),
(103,160,o),
(240,160,cs)
);
},
{
closed = 1;
nodes = (
(113,180,o),
(42,240,o),
(42,345,cs),
(42,444,o),
(113,510,o),
(221,510,cs),
(338,510,o),
(422,435,o),
(422,330,cs),
(422,233,o),
(360,180,o),
(240,180,cs)
);
},
{
closed = 1;
nodes = (
(369,-210,o),
(446,-156,o),
(446,-55,cs),
(446,38,o),
(379,80,o),
(230,80,cs),
(124,80,o),
(68,103,o),
(68,146,cs),
(68,164,o),
(79,183,o),
(102,205,c),
(88,219,l),
(63,195,o),
(48,171,o),
(48,146,cs),
(48,87,o),
(117,60,o),
(230,60,cs),
(370,60,o),
(426,25,o),
(426,-55,cs),
(426,-143,o),
(360,-190,o),
(223,-190,cs),
(151,-190,o),
(86,-177,o),
(30,-151,c),
(22,-169,l),
(80,-196,o),
(149,-210,o),
(223,-210,cs)
);
}
);
width = 485;
}
);
metricLeft = "=d";
metricRight = "=u*.8";
},
{
color = 4;
export = 0;
glyphname = g.002;
kernLeft = o;
kernRight = g;
lastChange = "2025-03-22 11:25:54 +0000";
layers = (
{
anchors = (
{
name = bottom;
pos = (304,-140);
},
{
name = top;
pos = (304,520);
}
);
associatedMasterId = "D65C9A1E-0FCA-4B2D-8EDF-9F36CA9182A1";
background = {
anchors = (
{
name = bottom;
pos = (304,-140);
},
{
name = top;
pos = (304,520);
}
);
shapes = (
{
closed = 1;
nodes = (
(390,157,o),
(462,216,o),
(462,328,cs),
(462,403,o),
(476,452,o),
(512,510,c),
(466,531,l),
(442,493,o),
(429,463,o),
(421,424,c),
(419,424,l),
(388,490,o),
(318,530,o),
(228,530,cs),
(106,530,o),
(29,458,o),
(29,345,cs),
(29,224,o),
(110,157,o),
(253,157,cs)
);
},
{
closed = 1;
nodes = (
(141,197,o),
(79,250,o),
(79,342,cs),
(79,431,o),
(141,488,o),
(238,488,cs),
(342,488,o),
(415,423,o),
(415,330,cs),
(415,244,o),
(360,197,o),
(254,197,cs)
);
},
{
closed = 1;
nodes = (
(388,-212,o),
(464,-158,o),
(464,-53,cs),
(464,43,o),
(398,88,o),
(252,88,cs),
(156,88,o),
(105,107,o),
(105,144,cs),
(105,162,o),
(118,180,o),
(145,202,c),
(105,227,l),
(71,197,o),
(55,170,o),
(55,138,cs),
(55,74,o),
(120,44,o),
(239,44,cs),
(364,44,o),
(415,15,o),
(415,-52,cs),
(415,-127,o),
(354,-169,o),
(233,-169,cs),
(167,-169,o),
(106,-156,o),
(43,-129,c),
(31,-171,l),
(90,-198,o),
(160,-212,o),
(237,-212,cs)
);
}
);
};
layerId = "2CB2E316-DF26-4020-8926-4C268D4E13F3";
name = "{232}";
shapes = (
{
closed = 1;
nodes = (
(390,157,o),
(462,216,o),
(462,328,cs),
(462,403,o),
(476,452,o),
(512,510,c),
(466,531,l),
(445,496,o),
(432,468,o),
(425,432,c),
(423,432,l),
(392,493,o),
(319,530,o),
(228,530,cs),
(106,530,o),
(29,458,o),
(29,345,cs),
(29,224,o),
(110,157,o),
(253,157,cs)
);
},
{
closed = 1;
nodes = (
(141,197,o),
(79,250,o),
(79,342,cs),
(79,431,o),
(141,488,o),
(238,488,cs),
(342,488,o),
(415,423,o),
(415,330,cs),
(415,244,o),
(360,197,o),
(254,197,cs)
);
},
{
closed = 1;
nodes = (
(387,-212,o),
(464,-158,o),
(464,-53,cs),
(464,43,o),
(399,88,o),
(252,88,cs),
(156,88,o),
(105,107,o),
(105,144,cs),
(105,162,o),
(118,180,o),
(145,202,c),
(105,227,l),
(71,197,o),
(55,170,o),
(55,138,cs),
(55,74,o),
(120,44,o),
(239,44,cs),
(364,44,o),
(414,15,o),
(414,-52,cs),
(414,-127,o),
(353,-169,o),
(233,-169,cs),
(166,-169,o),
(107,-156,o),
(44,-129,c),
(31,-171,l),
(90,-198,o),
(160,-212,o),
(237,-212,cs)
);
}
);
width = 510;
},
{
anchors = (
{
name = bottom;
pos = (360,-140);
},
{
name = top;
pos = (360,520);
}
);
layerId = "9E6B41AB-2970-4C41-8B35-4DBE0D296A43";
name = Black;
shapes = (
{
closed = 1;
nodes = (
(474,140,o),
(566,203,o),
(566,321,cs),
(566,520,l),
(372,520,l),
(370,450,l),
(368,450,l),
(335,508,o),
(294,530,o),
(219,530,cs),
(93,530,o),
(26,468,o),
(26,351,cs),
(26,213,o),
(122,140,o),
(303,140,cs)
);
},
{
closed = 1;
nodes = (
(244,249,o),
(218,273,o),
(218,319,cs),
(218,365,o),
(244,389,o),
(294,389,cs),
(338,389,o),
(370,370,o),
(370,344,cs),
(370,294,ls),
(370,268,o),
(338,249,o),
(294,249,cs)
);
},
{
closed = 1;
nodes = (
(477,-220,o),
(566,-159,o),
(566,-42,cs),
(566,179,o),
(240,67,o),
(240,130,cs),
(240,142,o),
(267,173,o),
(287,184,c),
(159,247,l),
(92,199,o),
(60,151,o),
(60,99,cs),
(60,-64,o),
(366,15,o),
(366,-45,cs),
(366,-68,o),
(343,-76,o),
(276,-76,cs),
(201,-76,o),
(146,-66,o),
(77,-40,c),
(46,-180,l),
(119,-205,o),
(217,-220,o),
(306,-220,cs)
);
}
);
width = 573;
},
{
anchors = (
{
name = bottom;
pos = (381,-140);
},
{
name = top;
pos = (381,520);
}
);
layerId = "9527F797-22C1-480E-A1FE-2CDBEBE1FD4C";
name = Medium;
shapes = (
{
closed = 1;
nodes = (
(443,150,o),
(523,213,o),
(523,340,cs),
(523,520,l),
(416,520,l),
(415,450,l),
(413,450,l),
(372,505,o),
(320,530,o),
(248,530,cs),
(122,530,o),
(43,455,o),
(43,334,cs),
(43,212,o),
(124,150,o),
(283,150,cs)
);
},
{
closed = 1;
nodes = (
(193,224,o),
(149,265,o),
(149,334,cs),
(149,403,o),
(193,444,o),
(268,444,cs),
(343,444,o),
(415,402,o),
(415,359,cs),
(415,309,ls),
(415,265,o),
(344,224,o),
(268,224,cs)
);
},
{
closed = 1;
nodes = (
(443,-215,o),
(523,-156,o),
(523,-48,cs),
(523,177,o),
(171,59,o),
(171,138,cs),
(171,153,o),
(181,167,o),
(212,195,c),
(141,233,l),
(91,194,o),
(71,162,o),
(71,122,cs),
(71,-44,o),
(413,85,o),
(413,-50,cs),
(413,-98,o),
(366,-125,o),
(283,-125,cs),
(217,-125,o),
(141,-108,o),
(78,-79,c),
(56,-166,l),
(119,-196,o),
(212,-215,o),
(296,-215,cs)
);
}
);
width = 533;
},
{
anchors = (
{
name = bottom;
pos = (364,-140);
},
{
name = top;
pos = (364,520);
}
);
layerId = "D65C9A1E-0FCA-4B2D-8EDF-9F36CA9182A1";
name = Thin;
shapes = (
{
closed = 1;
nodes = (
(364,160,o),
(442,229,o),
(442,345,cs),
(442,520,l),
(422,520,l),
(422,438,l),
(420,438,l),
(378,498,o),
(310,530,o),
(225,530,cs),
(99,530,o),
(22,460,o),
(22,345,cs),
(22,229,o),
(100,160,o),
(232,160,cs)
);
},
{
closed = 1;
nodes = (
(110,180,o),
(42,241,o),
(42,345,cs),
(42,449,o),
(109,510,o),
(225,510,cs),
(366,510,o),
(422,418,o),
(422,375,cs),
(422,345,ls),
(422,241,o),
(354,180,o),
(232,180,cs)
);
},
{
closed = 1;
nodes = (
(366,-210,o),
(442,-157,o),
(442,-55,cs),
(442,163,o),
(64,20,o),
(64,146,cs),
(64,164,o),
(72,179,o),
(98,205,c),
(84,219,l),
(56,191,o),
(44,170,o),
(44,146,cs),
(44,-7,o),
(422,142,o),
(422,-55,cs),
(422,-143,o),
(356,-190,o),
(226,-190,cs),
(155,-190,o),
(89,-177,o),
(34,-151,c),
(26,-169,l),
(81,-195,o),
(153,-210,o),
(226,-210,cs)
);
}
);
width = 435;
}
);
metricLeft = "=d";
metricRight = "=u*.8";
},
{
color = 4;
export = 0;
glyphname = g.003;
kernLeft = o;
kernRight = g;
lastChange = "2025-03-23 01:49:42 +0000";
layers = (
{
anchors = (
{
name = bottom;
pos = (304,-140);
},
{
name = top;
pos = (304,520);
}
);
associatedMasterId = "D65C9A1E-0FCA-4B2D-8EDF-9F36CA9182A1";
background = {
anchors = (
{
name = bottom;
pos = (304,-140);
},
{
name = top;
pos = (304,520);
}
);
shapes = (
{
closed = 1;
nodes = (
(390,157,o),
(462,216,o),
(462,328,cs),
(462,403,o),
(476,452,o),
(512,510,c),
(466,531,l),
(442,493,o),
(429,463,o),
(421,424,c),
(419,424,l),
(388,490,o),
(318,530,o),
(228,530,cs),
(106,530,o),
(29,458,o),
(29,345,cs),
(29,224,o),
(110,157,o),
(253,157,cs)
);
},
{
closed = 1;
nodes = (
(141,197,o),
(79,250,o),
(79,342,cs),
(79,431,o),
(141,488,o),
(238,488,cs),
(342,488,o),
(415,423,o),
(415,330,cs),
(415,244,o),
(360,197,o),
(254,197,cs)
);
},
{
closed = 1;
nodes = (
(388,-212,o),
(464,-158,o),
(464,-53,cs),
(464,43,o),
(398,88,o),
(252,88,cs),
(156,88,o),
(105,107,o),
(105,144,cs),
(105,162,o),
(118,180,o),
(145,202,c),
(105,227,l),
(71,197,o),
(55,170,o),
(55,138,cs),
(55,74,o),
(120,44,o),
(239,44,cs),
(364,44,o),
(415,15,o),
(415,-52,cs),
(415,-127,o),
(354,-169,o),
(233,-169,cs),
(167,-169,o),
(106,-156,o),
(43,-129,c),
(31,-171,l),
(90,-198,o),
(160,-212,o),
(237,-212,cs)
);
}
);
};
layerId = "2CB2E316-DF26-4020-8926-4C268D4E13F3";
name = "{232}";
shapes = (
{
closed = 1;
nodes = (
(390,157,o),
(462,216,o),
(462,328,cs),
(462,403,o),
(476,452,o),
(512,510,c),
(466,531,l),
(445,496,o),
(432,468,o),
(425,432,c),
(423,432,l),
(392,493,o),
(319,530,o),
(228,530,cs),
(106,530,o),
(29,458,o),
(29,345,cs),
(29,224,o),
(110,157,o),
(253,157,cs)
);
},
{
closed = 1;
nodes = (
(141,197,o),
(79,250,o),
(79,342,cs),
(79,431,o),
(141,488,o),
(238,488,cs),
(342,488,o),
(415,423,o),
(415,330,cs),
(415,244,o),
(360,197,o),
(254,197,cs)
);
},
{
closed = 1;
nodes = (
(387,-212,o),
(464,-158,o),
(464,-53,cs),
(464,43,o),
(399,88,o),
(252,88,cs),
(156,88,o),
(105,107,o),
(105,144,cs),
(105,162,o),
(118,180,o),
(145,202,c),
(105,227,l),
(71,197,o),
(55,170,o),
(55,138,cs),
(55,74,o),
(120,44,o),
(239,44,cs),
(364,44,o),
(414,15,o),
(414,-52,cs),
(414,-127,o),
(353,-169,o),
(233,-169,cs),
(166,-169,o),
(107,-156,o),
(44,-129,c),
(31,-171,l),
(90,-198,o),
(160,-212,o),
(237,-212,cs)
);
}
);
width = 510;
},
{
anchors = (
{
name = bottom;
pos = (381,-140);
},
{
name = top;
pos = (381,520);
}
);
layerId = "9527F797-22C1-480E-A1FE-2CDBEBE1FD4C";
name = Medium;
shapes = (
{
closed = 1;
nodes = (
(443,150,o),
(523,213,o),
(523,340,cs),
(523,520,l),
(416,520,l),
(415,450,l),
(413,450,l),
(372,505,o),
(320,530,o),
(248,530,cs),
(122,530,o),
(43,455,o),
(43,334,cs),
(43,212,o),
(124,150,o),
(283,150,cs)
);
},
{
closed = 1;
nodes = (
(193,224,o),
(149,265,o),
(149,334,cs),
(149,403,o),
(193,444,o),
(268,444,cs),
(343,444,o),
(415,402,o),
(415,359,cs),
(415,309,ls),
(415,265,o),
(344,224,o),
(268,224,cs)
);
},
{
closed = 1;
nodes = (
(443,-215,o),
(523,-156,o),
(523,-48,cs),
(523,177,o),
(171,59,o),
(171,138,cs),
(171,153,o),
(181,167,o),
(212,195,c),
(141,233,l),
(91,194,o),
(71,162,o),
(71,122,cs),
(71,-44,o),
(413,85,o),
(413,-50,cs),
(413,-98,o),
(366,-125,o),
(283,-125,cs),
(217,-125,o),
(141,-108,o),
(78,-79,c),
(56,-166,l),
(119,-196,o),
(212,-215,o),
(296,-215,cs)
);
}
);
width = 533;
},
{
anchors = (
{
name = bottom;
pos = (364,-140);
},
{
name = top;
pos = (364,520);
}
);
layerId = "D65C9A1E-0FCA-4B2D-8EDF-9F36CA9182A1";
name = Thin;
shapes = (
{
closed = 1;
nodes = (
(364,160,o),
(442,229,o),
(442,345,cs),
(442,520,l),
(422,520,l),
(422,438,l),
(420,438,l),
(378,498,o),
(310,530,o),
(225,530,cs),
(99,530,o),
(22,460,o),
(22,345,cs),
(22,229,o),
(100,160,o),
(232,160,cs)
);
},
{
closed = 1;
nodes = (
(110,180,o),
(42,241,o),
(42,345,cs),
(42,449,o),
(109,510,o),
(225,510,cs),
(366,510,o),
(422,418,o),
(422,375,cs),
(422,345,ls),
(422,241,o),
(354,180,o),
(232,180,cs)
);
},
{
closed = 1;
nodes = (
(366,-210,o),
(442,-157,o),
(442,-55,cs),
(442,163,o),
(64,20,o),
(64,146,cs),
(64,164,o),
(72,179,o),
(98,205,c),
(84,219,l),
(56,191,o),
(44,170,o),
(44,146,cs),
(44,-7,o),
(422,142,o),
(422,-55,cs),
(422,-143,o),
(356,-190,o),
(226,-190,cs),
(155,-190,o),
(89,-177,o),
(34,-151,c),
(26,-169,l),
(81,-195,o),
(153,-210,o),
(226,-210,cs)
);
}
);
width = 435;
},
{
anchors = (
{
name = bottom;
pos = (360,-140);
},
{
name = top;
pos = (360,520);
}
);
associatedMasterId = "9E6B41AB-2970-4C41-8B35-4DBE0D296A43";
layerId = "C74BA4B8-5ED5-4460-B884-DD34BED518B0";
name = "Mar 22, 25 at 20:33";
shapes = (
{
closed = 1;
nodes = (
(331,391,o),
(370,353,o),
(370,313,cs),
(370,229,ls),
(370,189,o),
(331,151,o),
(290,151,cs),
(240,151,o),
(218,187,o),
(218,271,cs),
(218,355,o),
(240,391,o),
(290,391,cs)
);
},
{
closed = 1;
nodes = (
(480,-200,o),
(566,-77,o),
(566,70,cs),
(566,220,ls),
(566,332,o),
(580,400,o),
(616,462,c),
(424,538,l),
(410,514,o),
(399,488,o),
(390,455,c),
(388,455,l),
(341,506,o),
(288,530,o),
(223,530,cs),
(95,530,o),
(26,439,o),
(26,270,cs),
(26,101,o),
(95,10,o),
(223,10,cs),
(289,10,o),
(334,34,o),
(368,87,c),
(370,87,l),
(370,70,ls),
(370,4,o),
(339,-53,o),
(150,-60,c),
(176,-220,l)
);
}
);
width = 623;
},
{
anchors = (
{
name = bottom;
pos = (360,-140);
},
{
name = top;
pos = (360,520);
}
);
associatedMasterId = "9E6B41AB-2970-4C41-8B35-4DBE0D296A43";
layerId = "7B91D1E3-0B99-4C08-B16C-A0E86630EA3F";
name = "Mar 22, 25 at 20:37";
shapes = (
{
closed = 1;
nodes = (
(331,391,o),
(370,356,o),
(370,320,cs),
(370,243,ls),
(370,206,o),
(331,171,o),
(290,171,cs),
(240,171,o),
(218,204,o),
(218,281,cs),
(218,358,o),
(240,391,o),
(290,391,cs)
);
},
{
closed = 1;
nodes = (
(484,-199,o),
(566,-46,o),
(566,90,cs),
(566,220,ls),
(566,332,o),
(580,400,o),
(616,462,c),
(424,538,l),
(410,514,o),
(399,488,o),
(390,455,c),
(388,455,l),
(341,506,o),
(288,530,o),
(223,530,cs),
(95,530,o),
(26,443,o),
(26,280,cs),
(26,117,o),
(95,30,o),
(223,30,cs),
(289,30,o),
(334,53,o),
(368,104,c),
(370,104,l),
(370,70,ls),
(370,4,o),
(342,-46,o),
(170,-60,c),
(196,-220,l)
);
}
);
width = 623;
},
{
anchors = (
{
name = bottom;
pos = (360,-140);
},
{
name = top;
pos = (360,520);
}
);
associatedMasterId = "9E6B41AB-2970-4C41-8B35-4DBE0D296A43";
layerId = "8EA1E662-D67E-4891-ABE0-991E93F46CA3";
name = "Mar 22, 25 at 20:41";
shapes = (
{
closed = 1;
nodes = (
(331,391,o),
(370,356,o),
(370,320,cs),
(370,243,ls),
(370,206,o),
(331,171,o),
(290,171,cs),
(240,171,o),
(218,204,o),
(218,281,cs),
(218,358,o),
(240,391,o),
(290,391,cs)
);
},
{
closed = 1;
nodes = (
(475,-209,o),
(566,-66,o),
(566,90,cs),
(566,220,ls),
(566,332,o),
(580,400,o),
(616,462,c),
(424,538,l),
(410,514,o),
(399,488,o),
(390,455,c),
(388,455,l),
(341,506,o),
(288,530,o),
(223,530,cs),
(95,530,o),
(26,443,o),
(26,280,cs),
(26,117,o),
(95,30,o),
(223,30,cs),
(289,30,o),
(334,53,o),
(368,104,c),
(370,104,l),
(370,70,ls),
(370,-16,o),
(336,-50,o),
(130,-60,c),
(156,-220,l)
);
}
);
width = 623;
},
{
anchors = (
{
name = bottom;
pos = (360,-140);
},
{
name = top;
pos = (360,520);
}
);
associatedMasterId = "9E6B41AB-2970-4C41-8B35-4DBE0D296A43";
layerId = "74CB06E8-DF2F-44E1-9B00-16F6758CF11A";
name = "Mar 22, 25 at 20:51";
shapes = (
{
closed = 1;
nodes = (
(331,391,o),
(370,355,o),
(370,318,cs),
(370,238,ls),
(370,201,o),
(331,165,o),
(290,165,cs),
(240,165,o),
(218,199,o),
(218,278,cs),
(218,357,o),
(240,391,o),
(290,391,cs)
);
},
{
closed = 1;
nodes = (
(475,-209,o),
(566,-66,o),
(566,90,cs),
(566,220,ls),
(566,332,o),
(580,400,o),
(616,462,c),
(424,538,l),
(410,514,o),
(399,488,o),
(390,455,c),
(388,455,l),
(341,506,o),
(288,530,o),
(223,530,cs),
(95,530,o),
(26,441,o),
(26,275,cs),
(26,109,o),
(95,20,o),
(223,20,cs),
(289,20,o),
(334,44,o),
(368,96,c),
(370,95,l),
(370,70,ls),
(370,-23,o),
(336,-59,o),
(130,-70,c),
(156,-220,l)
);
}
);
width = 623;
},
{
anchors = (
{
name = bottom;
pos = (360,-140);
},
{
name = top;
pos = (360,520);
}
);
associatedMasterId = "9E6B41AB-2970-4C41-8B35-4DBE0D296A43";
layerId = "7D409047-27C4-4B1E-B1CD-E67224AE4B2E";
name = "Mar 22, 25 at 20:51";
shapes = (
{
closed = 1;
nodes = (
(331,391,o),
(370,355,o),
(370,318,cs),
(370,238,ls),
(370,201,o),
(331,165,o),
(290,165,cs),
(240,165,o),
(218,199,o),
(218,278,cs),
(218,357,o),
(240,391,o),
(290,391,cs)
);
},
{
closed = 1;
nodes = (
(475,-209,o),
(566,-66,o),
(566,90,cs),
(566,220,ls),
(566,332,o),
(580,400,o),
(616,462,c),
(424,538,l),
(410,514,o),
(399,488,o),
(390,455,c),
(388,455,l),
(341,506,o),
(288,530,o),
(223,530,cs),
(95,530,o),
(26,441,o),
(26,275,cs),
(26,109,o),
(95,20,o),
(223,20,cs),
(289,20,o),
(334,44,o),
(368,96,c),
(370,95,l),
(370,70,ls),
(370,-23,o),
(336,-59,o),
(130,-70,c),
(156,-220,l)
);
}
);
width = 623;
},
{
anchors = (
{
name = bottom;
pos = (360,-140);
},
{
name = top;
pos = (360,520);
}
);
associatedMasterId = "9E6B41AB-2970-4C41-8B35-4DBE0D296A43";
layerId = "48961C81-00E6-464D-8FB0-762FE60C6012";
name = "Mar 22, 25 at 21:20";
shapes = (
{
closed = 1;
nodes = (
(331,391,o),
(370,355,o),
(370,318,cs),
(370,238,ls),
(370,201,o),
(331,165,o),
(290,165,cs),
(240,165,o),
(218,199,o),
(218,278,cs),
(218,357,o),
(240,391,o),
(290,391,cs)
);
},
{
closed = 1;
nodes = (
(370,455,l),
(368,455,l),
(327,506,o),
(280,530,o),
(223,530,cs),
(95,530,o),
(26,441,o),
(26,275,cs),
(26,109,o),
(95,20,o),
(223,20,cs),
(289,20,o),
(334,44,o),
(368,96,c),
(370,95,l),
(370,70,ls),
(370,-23,o),
(340,-59,o),
(150,-70,c),
(176,-220,l),
(481,-209,o),
(566,-66,o),
(566,90,cs),
(566,220,l),
(566,520,l),
(372,519,l)
);
}
);
width = 623;
},
{
anchors = (
{
name = bottom;
pos = (360,-140);
},
{
name = top;
pos = (360,520);
}
);
associatedMasterId = "9E6B41AB-2970-4C41-8B35-4DBE0D296A43";
layerId = "AA827E2F-4956-4B33-83D7-1171B8577671";
name = "Mar 23, 25 at 10:49";
shapes = (
{
closed = 1;
nodes = (
(331,391,o),
(370,355,o),
(370,318,cs),
(370,238,ls),
(370,201,o),
(331,165,o),
(290,165,cs),
(240,165,o),
(218,199,o),
(218,278,cs),
(218,357,o),
(240,391,o),
(290,391,cs)
);
},
{
closed = 1;
nodes = (
(370,455,l),
(368,455,l),
(327,506,o),
(280,530,o),
(223,530,cs),
(95,530,o),
(26,441,o),
(26,275,cs),
(26,109,o),
(95,20,o),
(223,20,cs),
(289,20,o),
(334,44,o),
(368,96,c),
(370,95,l),
(370,70,ls),
(370,-39,o),
(341,-66,o),
(154,-80,c),
(186,-220,l),
(483,-209,o),
(566,-66,o),
(566,90,cs),
(566,220,l),
(566,520,l),
(372,519,l)
);
}
);
width = 609;
},
{
anchors = (
{
name = bottom;
pos = (360,-140);
},
{
name = top;
pos = (360,520);
}
);
layerId = "9E6B41AB-2970-4C41-8B35-4DBE0D296A43";
name = Black;
shapes = (
{
closed = 1;
nodes = (
(331,391,o),
(370,355,o),
(370,318,cs),
(370,238,ls),
(370,201,o),
(331,165,o),
(290,165,cs),
(240,165,o),
(218,199,o),
(218,278,cs),
(218,357,o),
(240,391,o),
(290,391,cs)
);
},
{
closed = 1;
nodes = (
(480,-209,o),
(566,-66,o),
(566,90,cs),
(566,220,ls),
(566,332,o),
(580,400,o),
(616,462,c),
(424,538,l),
(410,514,o),
(399,488,o),
(390,455,c),
(388,455,l),
(341,506,o),
(288,530,o),
(223,530,cs),
(95,530,o),
(26,441,o),
(26,275,cs),
(26,109,o),
(95,20,o),
(223,20,cs),
(289,20,o),
(334,44,o),
(368,96,c),
(370,95,l),
(370,70,ls),
(370,-23,o),
(339,-59,o),
(150,-70,c),
(176,-220,l)
);
}
);
width = 623;
}
);
metricLeft = "=d";
metricRight = "=|h*.8";
},
{
color = 4;
export = 0;
glyphname = g.004;
kernLeft = o;
kernRight = g;
lastChange = "2025-03-23 08:12:18 +0000";
layers = (
{
anchors = (
{
name = bottom;
pos = (293,-140);
},
{
name = top;
pos = (293,520);
}
);
associatedMasterId = "D65C9A1E-0FCA-4B2D-8EDF-9F36CA9182A1";
attr = {
coordinates = (
232
);
};
layerId = "2CB2E316-DF26-4020-8926-4C268D4E13F3";
name = "{232}";
shapes = (
{
closed = 1;
nodes = (
(359,-202,o),
(469,-89,o),
(469,101,cs),
(469,520,l),
(420,520,l),
(420,450,l),
(418,450,l),
(386,497,o),
(309,530,o),
(232,530,cs),
(102,530,o),
(29,437,o),
(29,270,cs),
(29,103,o),
(102,10,o),
(232,10,cs),
(309,10,o),
(386,43,o),
(418,90,c),
(420,90,l),
(420,-77,o),
(328,-161,o),
(157,-169,c),
(164,-211,l)
);
},
{
closed = 1;
nodes = (
(138,54,o),
(78,131,o),
(78,270,cs),
(78,409,o),
(138,486,o),
(242,486,cs),
(334,486,o),
(420,424,o),
(420,350,cs),
(420,190,ls),
(420,116,o),
(334,54,o),
(242,54,cs)
);
}
);
width = 543;
},
{
anchors = (
{
name = bottom;
pos = (306,-140);
},
{
name = top;
pos = (306,520);
}
);
layerId = "9527F797-22C1-480E-A1FE-2CDBEBE1FD4C";
name = Medium;
shapes = (
{
closed = 1;
nodes = (
(403,-205,o),
(523,-92,o),
(523,99,cs),
(523,520,l),
(416,520,l),
(415,444,l),
(413,444,l),
(376,500,o),
(317,530,o),
(244,530,cs),
(114,530,o),
(43,438,o),
(43,270,cs),
(43,103,o),
(115,10,o),
(244,10,cs),
(317,10,o),
(376,40,o),
(413,95,c),
(415,95,l),
(415,-47,o),
(338,-117,o),
(172,-127,c),
(191,-214,l)
);
},
{
closed = 1;
nodes = (
(193,104,o),
(149,165,o),
(149,270,cs),
(149,375,o),
(193,436,o),
(268,436,cs),
(347,436,o),
(415,378,o),
(415,311,cs),
(415,229,ls),
(415,162,o),
(347,104,o),
(268,104,cs)
);
}
);
width = 585;
},
{
anchors = (
{
name = bottom;
pos = (287,-140);
},
{
name = top;
pos = (287,520);
}
);
layerId = "D65C9A1E-0FCA-4B2D-8EDF-9F36CA9182A1";
name = Thin;
shapes = (
{
closed = 1;
nodes = (
(336,-201,o),
(442,-88,o),
(442,102,cs),
(442,520,l),
(422,520,l),
(422,438,l),
(420,438,l),
(381,494,o),
(305,530,o),
(226,530,cs),
(96,530,o),
(22,436,o),
(22,270,cs),
(22,104,o),
(96,10,o),
(226,10,cs),
(305,10,o),
(381,46,o),
(420,102,c),
(422,102,l),
(422,-77,o),
(324,-182,o),
(149,-190,c),
(150,-210,l)
);
},
{
closed = 1;
nodes = (
(109,30,o),
(42,114,o),
(42,270,cs),
(42,426,o),
(109,510,o),
(226,510,cs),
(326,510,o),
(422,448,o),
(422,370,cs),
(422,170,ls),
(422,92,o),
(326,30,o),
(226,30,cs)
);
}
);
width = 521;
},
{
anchors = (
{
name = bottom;
pos = (287,-140);
},
{
name = top;
pos = (287,520);
}
);
layerId = "9E6B41AB-2970-4C41-8B35-4DBE0D296A43";
name = Black;
shapes = (
{
closed = 1;
nodes = (
(431,-209,o),
(566,-96,o),
(566,95,cs),
(566,520,l),
(372,520,l),
(370,450,l),
(368,450,l),
(334,505,o),
(290,530,o),
(223,530,cs),
(95,530,o),
(26,439,o),
(26,270,cs),
(26,101,o),
(95,10,o),
(223,10,cs),
(289,10,o),
(334,34,o),
(368,87,c),
(370,87,l),
(370,-27,o),
(319,-69,o),
(164,-82,c),
(194,-218,l)
);
},
{
closed = 1;
nodes = (
(242,155,o),
(218,194,o),
(218,270,cs),
(218,346,o),
(242,385,o),
(290,385,cs),
(335,385,o),
(370,352,o),
(370,310,cs),
(370,230,ls),
(370,188,o),
(335,155,o),
(290,155,cs)
);
}
);
width = 609;
}
);
metricLeft = "=d";
metricRight = "=|h*.8";
},
{
color = 4;
export = 0;
glyphname = k.001;
kernLeft = b;
kernRight = x;
lastChange = "2025-03-20 11:31:49 +0000";
layers = (
{
anchors = (
{
name = bottom;
pos = (267,0);
},
{
name = top;
pos = (267,730);
}
);
layerId = "9527F797-22C1-480E-A1FE-2CDBEBE1FD4C";
metricRight = "=d*.3";
shapes = (
{
closed = 1;
nodes = (
(186,0,l),
(186,244,l),
(188,244,l),
(414,0,l),
(547,0,l),
(287,280,l),
(542,520,l),
(407,520,l),
(188,317,l),
(186,317,l),
(186,730,l),
(77,730,l),
(77,0,l)
);
}
);
width = 551;
},
{
anchors = (
{
name = bottom;
pos = (285,0);
},
{
name = top;
pos = (285,730);
}
);
layerId = "9E6B41AB-2970-4C41-8B35-4DBE0D296A43";
metricRight = "=d*.2";
shapes = (
{
closed = 1;
nodes = (
(250,0,l),
(250,215,l),
(252,215,l),
(369,0,l),
(594,0,l),
(434,270,l),
(589,520,l),
(364,520,l),
(252,325,l),
(250,325,l),
(250,730,l),
(54,730,l),
(54,0,l)
);
}
);
width = 596;
},
{
anchors = (
{
name = bottom;
pos = (249,0);
},
{
name = top;
pos = (249,730);
}
);
background = {
shapes = (
{
closed = 0;
nodes = (
(487,-16,l),
(102,292,l),
(483,537,l)
);
}
);
};
layerId = "D65C9A1E-0FCA-4B2D-8EDF-9F36CA9182A1";
metricRight = "=d*.4";
name = Thin;
shapes = (
{
closed = 1;
nodes = (
(121,0,l),
(121,276,l),
(123,276,l),
(467,0,l),
(499,0,l),
(136,290,l),
(494,520,l),
(457,520,l),
(123,305,l),
(121,305,l),
(121,730,l),
(99,730,l),
(99,0,l)
);
}
);
width = 505;
}
);
metricLeft = "=h";
metricRight = "=d*.2";
},
{
color = 4;
export = 0;
glyphname = k.002;
kernLeft = b;
kernRight = x;
lastChange = "2025-03-21 07:26:15 +0000";
layers = (
{
anchors = (
{
name = bottom;
pos = (267,0);
},
{
name = top;
pos = (267,730);
}
);
background = {
shapes = (
{
closed = 1;
nodes = (
(185,730,l),
(77,730,l),
(77,0,l),
(185,0,l)
);
},
{
closed = 1;
nodes = (
(235,274,l),
(445,0,l),
(567,0,l),
(309,336,l)
);
},
{
closed = 1;
nodes = (
(135,159,l),
(567,520,l),
(427,520,l),
(135,276,l)
);
}
);
};
layerId = "9527F797-22C1-480E-A1FE-2CDBEBE1FD4C";
metricRight = "=d*.3";
shapes = (
{
closed = 1;
nodes = (
(185,0,l),
(185,201,l),
(250,255,l),
(250,255,l),
(445,0,l),
(567,0,l),
(324,317,l),
(567,520,l),
(427,520,l),
(187,319,l),
(185,319,l),
(185,730,l),
(77,730,l),
(77,0,l)
);
}
);
width = 571;
},
{
anchors = (
{
name = bottom;
pos = (285,0);
},
{
name = top;
pos = (285,730);
}
);
background = {
shapes = (
{
closed = 1;
nodes = (
(359,209,l),
(614,520,l),
(378,520,l),
(181,280,l),
(181,112,l),
(359,329,l)
);
},
{
closed = 1;
nodes = (
(250,730,l),
(54,730,l),
(54,0,l),
(250,0,l)
);
},
{
closed = 1;
nodes = (
(192,362,l),
(398,0,l),
(614,0,l),
(390,362,l)
);
}
);
};
layerId = "9E6B41AB-2970-4C41-8B35-4DBE0D296A43";
metricRight = "=d*.2";
shapes = (
{
closed = 1;
nodes = (
(250,0,l),
(250,196,l),
(270,221,l),
(272,221,l),
(398,0,l),
(614,0,l),
(431,296,l),
(614,520,l),
(378,520,l),
(252,366,l),
(250,366,l),
(250,730,l),
(54,730,l),
(54,0,l)
);
}
);
width = 616;
},
{
anchors = (
{
name = bottom;
pos = (249,0);
},
{
name = top;
pos = (249,730);
}
);
background = {
shapes = (
{
closed = 1;
nodes = (
(119,730,l),
(99,730,l),
(99,0,l),
(119,0,l)
);
},
{
closed = 1;
nodes = (
(109,232,l),
(519,520,l),
(485,520,l),
(109,256,l)
);
},
{
closed = 1;
nodes = (
(211,308,l),
(492,0,l),
(519,0,l),
(227,320,l)
);
}
);
};
layerId = "D65C9A1E-0FCA-4B2D-8EDF-9F36CA9182A1";
metricRight = "=d*.4";
name = Thin;
shapes = (
{
closed = 1;
nodes = (
(119,0,l),
(119,239,l),
(213,305,l),
(213,305,l),
(492,0,l),
(519,0,l),
(230,317,l),
(519,520,l),
(485,520,l),
(121,264,l),
(119,264,l),
(119,730,l),
(99,730,l),
(99,0,l)
);
}
);
width = 525;
}
);
metricLeft = "=h";
metricRight = "=d*.2";
},
{
color = 4;
export = 0;
glyphname = k.003;
kernLeft = b;
kernRight = x;
lastChange = "2025-03-23 10:11:08 +0000";
layers = (
{
anchors = (
{
name = bottom;
pos = (285,0);
},
{
name = top;
pos = (285,730);
}
);
background = {
shapes = (
{
closed = 1;
nodes = (
(185,730,l),
(77,730,l),
(77,0,l),
(185,0,l)
);
},
{
closed = 1;
nodes = (
(227,262,l),
(444,0,l),
(567,0,l),
(299,323,l)
);
},
{
closed = 1;
nodes = (
(135,127,l),
(567,520,l),
(432,520,l),
(135,266,l)
);
}
);
};
layerId = "9527F797-22C1-480E-A1FE-2CDBEBE1FD4C";
metricRight = "=d*.3";
shapes = (
{
closed = 1;
nodes = (
(185,0,l),
(185,182,l),
(246,239,l),
(246,239,l),
(444,0,l),
(567,0,l),
(321,296,l),
(567,520,l),
(432,520,l),
(187,310,l),
(185,310,l),
(185,730,l),
(77,730,l),
(77,0,l)
);
}
);
width = 571;
},
{
anchors = (
{
name = bottom;
pos = (285,0);
},
{
name = top;
pos = (285,730);
}
);
background = {
shapes = (
{
closed = 1;
nodes = (
(359,209,l),
(614,520,l),
(378,520,l),
(181,280,l),
(181,112,l),
(359,329,l)
);
},
{
closed = 1;
nodes = (
(250,730,l),
(54,730,l),
(54,0,l),
(250,0,l)
);
},
{
closed = 1;
nodes = (
(192,362,l),
(398,0,l),
(614,0,l),
(390,362,l)
);
}
);
};
layerId = "9E6B41AB-2970-4C41-8B35-4DBE0D296A43";
metricRight = "=d*.2";
shapes = (
{
closed = 1;
nodes = (
(250,0,l),
(250,196,l),
(270,221,l),
(272,221,l),
(398,0,l),
(614,0,l),
(431,296,l),
(614,520,l),
(378,520,l),
(252,366,l),
(250,366,l),
(250,730,l),
(54,730,l),
(54,0,l)
);
}
);
width = 616;
},
{
anchors = (
{
name = bottom;
pos = (267,0);
},
{
name = top;
pos = (267,730);
}
);
background = {
shapes = (
{
closed = 1;
nodes = (
(119,730,l),
(99,730,l),
(99,0,l),
(119,0,l)
);
},
{
closed = 1;
nodes = (
(109,222,l),
(519,520,l),
(485,520,l),
(109,247,l)
);
},
{
closed = 1;
nodes = (
(191,288,l),
(490,0,l),
(519,0,l),
(207,300,l)
);
}
);
};
layerId = "D65C9A1E-0FCA-4B2D-8EDF-9F36CA9182A1";
metricRight = "=d*.4";
name = Thin;
shapes = (
{
closed = 1;
nodes = (
(119,0,l),
(119,229,l),
(195,284,l),
(195,284,l),
(490,0,l),
(519,0,l),
(211,296,l),
(519,520,l),
(485,520,l),
(121,255,l),
(119,255,l),
(119,730,l),
(99,730,l),
(99,0,l)
);
}
);
width = 525;
}
);
metricLeft = "=h";
metricRight = "=d*.2";
},
{
color = 4;
export = 0;
glyphname = l.001;
kernLeft = l;
kernRight = l;
lastChange = "2025-03-21 07:19:43 +0000";
layers = (
{
anchors = (
{
name = bottom;
pos = (109,0);
},
{
name = center;
pos = (109,430);
},
{
name = pdcenter;
pos = (370,375);
},
{
name = top;
pos = (109,730);
},
{
name = topright;
pos = (254,730);
}
);
layerId = "D65C9A1E-0FCA-4B2D-8EDF-9F36CA9182A1";
shapes = (
{
closed = 1;
nodes = (
(169,-8,l),
(130,77,o),
(119,130,o),
(119,234,cs),
(119,730,l),
(99,730,l),
(99,234,ls),
(99,129,o),
(111,71,o),
(151,-16,c)
);
}
);
width = 160;
},
{
anchors = (
{
name = bottom;
pos = (132,0);
},
{
name = center;
pos = (132,430);
},
{
name = pdcenter;
pos = (393,375);
},
{
name = top;
pos = (132,730);
},
{
name = topright;
pos = (277,730);
}
);
layerId = "9527F797-22C1-480E-A1FE-2CDBEBE1FD4C";
shapes = (
{
closed = 1;
nodes = (
(237,26,l),
(199,100,o),
(187,158,o),
(187,267,cs),
(187,730,l),
(77,730,l),
(77,267,ls),
(77,138,o),
(89,74,o),
(130,-16,c)
);
}
);
width = 249;
},
{
anchors = (
{
name = bottom;
pos = (154,0);
},
{
name = center;
pos = (154,430);
},
{
name = pdcenter;
pos = (415,375);
},
{
name = top;
pos = (154,730);
},
{
name = topright;
pos = (299,730);
}
);
layerId = "9E6B41AB-2970-4C41-8B35-4DBE0D296A43";
name = Black;
shapes = (
{
closed = 1;
nodes = (
(304,60,l),
(268,121,o),
(254,188,o),
(254,300,cs),
(254,730,l),
(54,730,l),
(54,300,ls),
(54,146,o),
(66,76,o),
(108,-16,c)
);
}
);
width = 313;
}
);
metricLeft = "=h*1";
metricRight = "=u";
},
{
color = 4;
export = 0;
glyphname = r.001;
kernLeft = n;
kernRight = r;
lastChange = "2025-03-24 01:39:22 +0000";
layers = (
{
anchors = (
{
name = bottom;
pos = (156,0);
},
{
name = top;
pos = (245,520);
}
);
background = {
anchors = (
{
name = bottom;
pos = (109,0);
},
{
name = top;
pos = (215,520);
}
);
shapes = (
{
closed = 1;
nodes = (
(119,0,l),
(119,280,ls),
(119,408,o),
(230,510,o),
(369,510,c),
(369,530,l),
(258,530,o),
(159,466,o),
(121,370,c),
(119,370,l),
(119,520,l),
(99,520,l),
(99,0,l)
);
}
);
};
layerId = "D65C9A1E-0FCA-4B2D-8EDF-9F36CA9182A1";
metricRight = "=|*.2";
shapes = (
{
closed = 1;
nodes = (
(255,0,l),
(246,290,ls),
(245,338,o),
(297,380,o),
(359,380,cs),
(378,380,o),
(400,377,o),
(418,372,c),
(359,450,l),
(359,290,l),
(539,290,l),
(539,480,l),
(501,515,o),
(462,530,o),
(410,530,cs),
(344,530,o),
(288,506,o),
(237,455,c),
(235,455,l),
(226,487,o),
(215,513,o),
(201,536,c),
(9,460,l),
(45,399,o),
(59,332,o),
(59,220,cs),
(59,0,l)
);
}
);
width = 541;
},
{
anchors = (
{
name = bottom;
pos = (155,0);
},
{
name = top;
pos = (244,520);
}
);
background = {
anchors = (
{
name = bottom;
pos = (128,0);
},
{
name = top;
pos = (233,520);
}
);
shapes = (
{
closed = 1;
nodes = (
(186,0,l),
(186,250,ls),
(186,353,o),
(289,435,o),
(417,435,c),
(417,530,l),
(320,530,o),
(233,489,o),
(184,420,c),
(182,420,l),
(181,520,l),
(77,520,l),
(77,0,l)
);
}
);
};
layerId = "9527F797-22C1-480E-A1FE-2CDBEBE1FD4C";
metricRight = "=|*.25";
shapes = (
{
closed = 1;
nodes = (
(254,0,l),
(245,290,ls),
(244,338,o),
(296,380,o),
(358,380,cs),
(377,380,o),
(399,377,o),
(417,372,c),
(358,450,l),
(358,290,l),
(538,290,l),
(538,480,l),
(500,515,o),
(461,530,o),
(409,530,cs),
(343,530,o),
(287,506,o),
(236,455,c),
(234,455,l),
(225,487,o),
(214,513,o),
(200,536,c),
(8,460,l),
(44,399,o),
(58,332,o),
(58,220,cs),
(58,0,l)
);
}
);
width = 436;
},
{
anchors = (
{
name = bottom;
pos = (119,0);
},
{
name = top;
pos = (235,520);
}
);
associatedMasterId = "D65C9A1E-0FCA-4B2D-8EDF-9F36CA9182A1";
layerId = "657C252B-5EEF-4E2C-9A2A-557819CBA416";
metricRight = "=|*.2";
name = "{232}";
shapes = (
{
closed = 1;
nodes = (
(141,0,l),
(141,270,ls),
(141,390,o),
(249,485,o),
(385,485,c),
(385,530,l),
(279,530,o),
(183,479,o),
(142,402,c),
(140,402,l),
(140,520,l),
(92,520,l),
(92,0,l)
);
}
);
width = 403;
},
{
anchors = (
{
name = bottom;
pos = (157,0);
},
{
name = top;
pos = (246,520);
}
);
layerId = "9E6B41AB-2970-4C41-8B35-4DBE0D296A43";
metricRight = "=|";
shapes = (
{
closed = 1;
nodes = (
(256,0,l),
(247,290,ls),
(246,338,o),
(298,380,o),
(360,380,cs),
(379,380,o),
(401,377,o),
(419,372,c),
(360,450,l),
(360,290,l),
(540,290,l),
(540,480,l),
(502,515,o),
(463,530,o),
(411,530,cs),
(345,530,o),
(289,506,o),
(238,455,c),
(236,455,l),
(227,487,o),
(216,513,o),
(202,536,c),
(10,460,l),
(46,399,o),
(60,332,o),
(60,220,cs),
(60,0,l)
);
}
);
width = 548;
}
);
metricLeft = "=n";
metricRight = "=|*.3";
},
{
color = 4;
export = 0;
glyphname = s.001;
kernLeft = s;
kernRight = s;
lastChange = "2025-03-24 02:25:35 +0000";
layers = (
{
anchors = (
{
name = bottom;
pos = (248,0);
},
{
name = cedi;
pos = (186,0);
},
{
name = top;
pos = (248,520);
}
);
background = {
anchors = (
{
name = bottom;
pos = (234,0);
},
{
name = cedi;
pos = (186,-1);
},
{
name = top;
pos = (234,520);
}
);
shapes = (
{
closed = 1;
nodes = (
(348,-10,o),
(420,43,o),
(420,132,cs),
(420,237,o),
(322,260,o),
(233,281,cs),
(147,301,o),
(70,319,o),
(70,398,cs),
(70,468,o),
(129,510,o),
(230,510,cs),
(290,510,o),
(358,494,o),
(394,472,c),
(404,490,l),
(364,514,o),
(293,530,o),
(230,530,cs),
(119,530,o),
(50,480,o),
(50,398,cs),
(50,303,o),
(142,281,o),
(228,261,cs),
(317,240,o),
(400,221,o),
(400,132,cs),
(400,55,o),
(338,10,o),
(230,10,cs),
(167,10,o),
(106,25,o),
(61,51,c),
(51,33,l),
(99,6,o),
(165,-10,o),
(230,-10,cs)
);
}
);
};
layerId = "D65C9A1E-0FCA-4B2D-8EDF-9F36CA9182A1";
shapes = (
{
closed = 1;
nodes = (
(429,-10,o),
(517,44,o),
(517,143,cs),
(517,338,o),
(227,305,o),
(227,367,cs),
(227,382,o),
(247,390,o),
(285,390,cs),
(312,390,o),
(336,388,o),
(357,384,c),
(325,440,l),
(325,330,l),
(505,330,l),
(505,510,l),
(432,523,o),
(357,530,o),
(291,530,cs),
(116,530,o),
(27,477,o),
(27,372,cs),
(27,183,o),
(317,196,o),
(317,153,cs),
(317,139,o),
(290,130,o),
(249,130,cs),
(195,130,o),
(121,145,o),
(51,170,c),
(31,30,l),
(99,6,o),
(194,-10,o),
(269,-10,cs)
);
}
);
width = 470;
},
{
anchors = (
{
name = bottom;
pos = (248,0);
},
{
name = cedi;
pos = (186,0);
},
{
name = top;
pos = (248,520);
}
);
background = {
anchors = (
{
name = bottom;
pos = (248,0);
},
{
name = cedi;
pos = (186,0);
},
{
name = top;
pos = (248,520);
}
);
shapes = (
{
closed = 1;
nodes = (
(379,-10,o),
(459,46,o),
(459,143,cs),
(459,228,o),
(398,279,o),
(258,311,cs),
(178,329,o),
(149,348,o),
(149,383,cs),
(149,422,o),
(183,440,o),
(254,440,cs),
(312,440,o),
(370,428,o),
(425,403,c),
(442,491,l),
(385,517,o),
(318,530,o),
(250,530,cs),
(114,530,o),
(39,478,o),
(39,384,cs),
(39,302,o),
(97,254,o),
(236,221,cs),
(324,201,o),
(349,183,o),
(349,144,cs),
(349,101,o),
(312,80,o),
(239,80,cs),
(179,80,o),
(119,94,o),
(58,121,c),
(41,32,l),
(97,5,o),
(168,-10,o),
(240,-10,cs)
);
}
);
};
layerId = "9527F797-22C1-480E-A1FE-2CDBEBE1FD4C";
shapes = (
{
closed = 1;
nodes = (
(429,-10,o),
(517,44,o),
(517,143,cs),
(517,338,o),
(227,305,o),
(227,367,cs),
(227,382,o),
(247,390,o),
(285,390,cs),
(312,390,o),
(336,388,o),
(357,384,c),
(325,440,l),
(325,330,l),
(505,330,l),
(505,510,l),
(432,523,o),
(357,530,o),
(291,530,cs),
(116,530,o),
(27,477,o),
(27,372,cs),
(27,183,o),
(317,196,o),
(317,153,cs),
(317,139,o),
(290,130,o),
(249,130,cs),
(195,130,o),
(121,145,o),
(51,170,c),
(31,30,l),
(99,6,o),
(194,-10,o),
(269,-10,cs)
);
}
);
width = 498;
},
{
associatedMasterId = "9E6B41AB-2970-4C41-8B35-4DBE0D296A43";
layerId = "E2186EB0-F990-4B65-B5C4-B4E475A0D79A";
name = "Mar 5, 25 at 16:49";
shapes = (
{
closed = 1;
nodes = (
(422,-10,o),
(517,50,o),
(517,153,cs),
(517,235,o),
(445,282,o),
(292,317,cs),
(241,329,o),
(227,337,o),
(227,357,cs),
(227,381,o),
(254,390,o),
(325,390,c),
(325,330,l),
(505,330,l),
(505,520,l),
(325,520,l),
(295,525,o),
(247,530,o),
(210,530,cs),
(128,530,o),
(27,480,o),
(27,372,cs),
(27,276,o),
(94,220,o),
(253,181,cs),
(306,169,o),
(317,167,o),
(317,153,cs),
(317,136,o),
(300,130,o),
(248,130,cs),
(193,130,o),
(121,145,o),
(51,170,c),
(31,30,l),
(93,5,o),
(176,-10,o),
(260,-10,cs)
);
}
);
width = 544;
},
{
associatedMasterId = "9E6B41AB-2970-4C41-8B35-4DBE0D296A43";
layerId = "591F7119-2CFE-4547-A058-760017B01E44";
name = "Mar 6, 25 at 15:52";
shapes = (
{
closed = 1;
nodes = (
(422,-10,o),
(517,50,o),
(517,153,cs),
(517,235,o),
(445,282,o),
(292,317,cs),
(241,329,o),
(227,337,o),
(227,357,cs),
(227,381,o),
(254,390,o),
(325,390,c),
(325,330,l),
(505,330,l),
(505,510,l),
(415,525,o),
(352,530,o),
(280,530,cs),
(113,530,o),
(27,476,o),
(27,372,cs),
(27,276,o),
(94,220,o),
(253,181,cs),
(306,169,o),
(317,167,o),
(317,153,cs),
(317,136,o),
(300,130,o),
(248,130,cs),
(193,130,o),
(121,145,o),
(51,170,c),
(31,30,l),
(93,5,o),
(176,-10,o),
(260,-10,cs)
);
}
);
width = 544;
},
{
associatedMasterId = "9E6B41AB-2970-4C41-8B35-4DBE0D296A43";
layerId = "F339702B-B911-4607-9485-2D6C188FFF89";
name = "Mar 10, 25 at 16:05";
shapes = (
{
closed = 1;
nodes = (
(429,-10,o),
(517,44,o),
(517,143,cs),
(517,330,o),
(227,297,o),
(227,357,cs),
(227,379,o),
(260,390,o),
(325,390,cs),
(352,390,o),
(376,388,o),
(397,384,c),
(325,440,l),
(325,330,l),
(505,330,l),
(505,510,l),
(432,523,o),
(357,530,o),
(291,530,cs),
(116,530,o),
(27,477,o),
(27,372,cs),
(27,183,o),
(317,196,o),
(317,153,cs),
(317,139,o),
(290,130,o),
(249,130,cs),
(195,130,o),
(121,145,o),
(51,170,c),
(31,30,l),
(99,6,o),
(194,-10,o),
(269,-10,cs)
);
}
);
width = 544;
},
{
anchors = (
{
name = bottom;
pos = (248,0);
},
{
name = cedi;
pos = (186,0);
},
{
name = top;
pos = (248,520);
}
);
associatedMasterId = "9E6B41AB-2970-4C41-8B35-4DBE0D296A43";
layerId = "2D74EDDB-9C8D-42D9-AC10-4F13DFC25848";
name = "Mar 20, 25 at 12:01";
shapes = (
{
closed = 1;
nodes = (
(429,-10,o),
(517,44,o),
(517,143,cs),
(517,338,o),
(227,305,o),
(227,367,cs),
(227,382,o),
(247,390,o),
(285,390,cs),
(312,390,o),
(336,388,o),
(357,384,c),
(325,440,l),
(325,340,l),
(505,340,l),
(505,510,l),
(432,523,o),
(357,530,o),
(291,530,cs),
(116,530,o),
(27,477,o),
(27,372,cs),
(27,183,o),
(317,196,o),
(317,153,cs),
(317,139,o),
(290,130,o),
(249,130,cs),
(195,130,o),
(121,145,o),
(51,170,c),
(31,30,l),
(99,6,o),
(194,-10,o),
(269,-10,cs)
);
}
);
width = 544;
},
{
anchors = (
{
name = bottom;
pos = (248,0);
},
{
name = cedi;
pos = (186,0);
},
{
name = top;
pos = (248,520);
}
);
layerId = "9E6B41AB-2970-4C41-8B35-4DBE0D296A43";
name = Black;
shapes = (
{
closed = 1;
nodes = (
(429,-10,o),
(517,44,o),
(517,143,cs),
(517,338,o),
(227,305,o),
(227,367,cs),
(227,382,o),
(247,390,o),
(285,390,cs),
(312,390,o),
(336,388,o),
(357,384,c),
(325,440,l),
(325,330,l),
(505,330,l),
(505,510,l),
(432,523,o),
(357,530,o),
(291,530,cs),
(116,530,o),
(27,477,o),
(27,372,cs),
(27,183,o),
(317,196,o),
(317,153,cs),
(317,139,o),
(290,130,o),
(249,130,cs),
(195,130,o),
(121,145,o),
(51,170,c),
(31,30,l),
(99,6,o),
(194,-10,o),
(269,-10,cs)
);
}
);
width = 544;
}
);
metricLeft = "=h*.5";
metricRight = "=|";
},
{
color = 4;
export = 0;
glyphname = w.001;
kernLeft = v;
kernRight = v;
lastChange = "2025-03-24 04:08:57 +0000";
layers = (
{
anchors = (
{
name = bottom;
pos = (383,0);
},
{
name = top;
pos = (383,520);
}
);
background = {
anchors = (
{
name = bottom;
pos = (372,0);
},
{
name = top;
pos = (372,520);
}
);
shapes = (
{
closed = 1;
nodes = (
(222,0,l),
(371,499,l),
(373,499,l),
(522,0,l),
(552,0,l),
(712,520,l),
(691,520,l),
(538,21,l),
(536,21,l),
(387,520,l),
(357,520,l),
(208,21,l),
(206,21,l),
(53,520,l),
(32,520,l),
(192,0,l)
);
}
);
};
layerId = "D65C9A1E-0FCA-4B2D-8EDF-9F36CA9182A1";
metricLeft = "=v*2";
shapes = (
{
closed = 1;
nodes = (
(281,0,l),
(285,62,o),
(315,130,o),
(350,157,c),
(352,157,l),
(378,0,l),
(633,0,l),
(763,520,l),
(569,520,l),
(499,150,l),
(497,150,l),
(451,520,l),
(293,520,l),
(312,387,l),
(278,334,o),
(258,291,o),
(244,241,c),
(242,241,l),
(197,520,l),
(3,520,l),
(133,0,l)
);
}
);
width = 744;
},
{
anchors = (
{
name = bottom;
pos = (383,0);
},
{
name = top;
pos = (383,520);
}
);
background = {
anchors = (
{
name = bottom;
pos = (392,0);
},
{
name = top;
pos = (392,520);
}
);
shapes = (
{
closed = 1;
nodes = (
(302,0,l),
(391,405,l),
(393,405,l),
(482,0,l),
(622,0,l),
(762,520,l),
(644,520,l),
(556,105,l),
(554,105,l),
(465,520,l),
(319,520,l),
(230,105,l),
(228,105,l),
(140,520,l),
(22,520,l),
(162,0,l)
);
}
);
};
layerId = "9527F797-22C1-480E-A1FE-2CDBEBE1FD4C";
metricLeft = "=v*2.4";
shapes = (
{
closed = 1;
nodes = (
(281,0,l),
(285,62,o),
(315,130,o),
(350,157,c),
(352,157,l),
(378,0,l),
(633,0,l),
(763,520,l),
(569,520,l),
(499,150,l),
(497,150,l),
(451,520,l),
(293,520,l),
(312,387,l),
(278,334,o),
(258,291,o),
(244,241,c),
(242,241,l),
(197,520,l),
(3,520,l),
(133,0,l)
);
}
);
width = 784;
},
{
anchors = (
{
name = bottom;
pos = (421,0);
},
{
name = top;
pos = (421,520);
}
);
associatedMasterId = "9E6B41AB-2970-4C41-8B35-4DBE0D296A43";
background = {
shapes = (
{
closed = 1;
nodes = (
(376,0,l),
(420,350,l),
(422,350,l),
(466,0,l),
(701,0,l),
(821,520,l),
(627,520,l),
(587,170,l),
(585,170,l),
(539,520,l),
(303,520,l),
(257,170,l),
(255,170,l),
(215,520,l),
(21,520,l),
(141,0,l)
);
}
);
};
layerId = "F3432C33-70EA-4BBD-B41A-3FA13AA8DD72";
metricLeft = "=v*2.8";
name = "Mar 7, 25 at 16:21";
shapes = (
{
closed = 1;
nodes = (
(346,0,l),
(430,304,l),
(343,450,l),
(267,170,l),
(265,170,l),
(195,520,l),
(11,520,l),
(131,0,l)
);
},
{
closed = 1;
nodes = (
(671,0,l),
(791,520,l),
(587,520,l),
(537,170,l),
(535,170,l),
(469,520,l),
(282,520,l),
(436,0,l)
);
}
);
width = 802;
},
{
anchors = (
{
name = bottom;
pos = (383,0);
},
{
name = top;
pos = (383,520);
}
);
background = {
shapes = (
{
closed = 0;
nodes = (
(293,520,l),
(378,0,l)
);
},
{
closed = 0;
nodes = (
(281,0,l),
(197,520,l)
);
}
);
};
layerId = "9E6B41AB-2970-4C41-8B35-4DBE0D296A43";
metricLeft = "=v*2.8";
name = Black;
shapes = (
{
closed = 1;
nodes = (
(281,0,l),
(285,62,o),
(315,130,o),
(350,157,c),
(352,157,l),
(378,0,l),
(633,0,l),
(763,520,l),
(569,520,l),
(499,150,l),
(497,150,l),
(451,520,l),
(293,520,l),
(312,387,l),
(278,334,o),
(258,291,o),
(244,241,c),
(242,241,l),
(197,520,l),
(3,520,l),
(133,0,l)
);
}
);
width = 766;
},
{
anchors = (
{
name = bottom;
pos = (411,0);
},
{
name = top;
pos = (411,520);
}
);
associatedMasterId = "9E6B41AB-2970-4C41-8B35-4DBE0D296A43";
layerId = "2BE903AD-F43B-4DDE-94B1-2597E57E0735";
metricLeft = "=v*2.8";
name = "Mar 7, 25 at 16:21";
shapes = (
{
closed = 1;
nodes = (
(366,0,l),
(410,350,l),
(412,350,l),
(456,0,l),
(691,0,l),
(811,520,l),
(617,520,l),
(577,170,l),
(575,170,l),
(529,520,l),
(293,520,l),
(247,170,l),
(245,170,l),
(205,520,l),
(11,520,l),
(131,0,l)
);
}
);
width = 822;
},
{
anchors = (
{
name = bottom;
pos = (391,0);
},
{
name = top;
pos = (391,520);
}
);
associatedMasterId = "9E6B41AB-2970-4C41-8B35-4DBE0D296A43";
background = {
shapes = (
{
closed = 1;
nodes = (
(622,0,l),
(752,520,l),
(558,520,l),
(508,170,l),
(506,170,l),
(460,520,l),
(312,520,l),
(377,0,l)
);
},
{
closed = 1;
nodes = (
(321,0,l),
(206,520,l),
(12,520,l),
(142,0,l)
);
},
{
closed = 1;
nodes = (
(290,0,l),
(293,42,o),
(326,168,o),
(377,215,c),
(347,433,l),
(255,332,o),
(182,94,o),
(182,0,c)
);
}
);
};
layerId = "0D50A1E3-8D67-44AE-BDA1-CDB820C27916";
metricLeft = "=v*2.8";
name = "Mar 8, 25 at 10:54";
shapes = (
{
closed = 1;
nodes = (
(309,0,l),
(312,64,o),
(333,139,o),
(352,187,c),
(354,187,l),
(376,0,l),
(621,0,l),
(771,520,l),
(577,520,l),
(507,150,l),
(505,150,l),
(459,520,l),
(311,520,l),
(324,427,l),
(298,376,o),
(279,324,o),
(266,263,c),
(264,263,l),
(205,520,l),
(11,520,l),
(161,0,l)
);
}
);
width = 782;
},
{
anchors = (
{
name = bottom;
pos = (391,0);
},
{
name = top;
pos = (391,520);
}
);
associatedMasterId = "9E6B41AB-2970-4C41-8B35-4DBE0D296A43";
background = {
shapes = (
{
closed = 1;
nodes = (
(622,0,l),
(752,520,l),
(558,520,l),
(508,170,l),
(506,170,l),
(460,520,l),
(312,520,l),
(377,0,l)
);
},
{
closed = 1;
nodes = (
(299,0,l),
(206,520,l),
(12,520,l),
(142,0,l)
);
},
{
closed = 1;
nodes = (
(290,0,l),
(293,42,o),
(326,168,o),
(377,215,c),
(347,433,l),
(255,332,o),
(182,94,o),
(182,0,c)
);
}
);
};
layerId = "C9EB3771-3224-4B6F-9C8F-47652A3FB6A6";
metricLeft = "=v*2.8";
name = "Mar 10, 25 at 15:12";
shapes = (
{
closed = 1;
nodes = (
(299,0,l),
(302,53,o),
(323,127,o),
(352,187,c),
(354,187,l),
(386,0,l),
(631,0,l),
(771,520,l),
(577,520,l),
(507,150,l),
(505,150,l),
(459,520,l),
(311,520,l),
(324,427,l),
(292,376,o),
(270,324,o),
(254,263,c),
(252,263,l),
(205,520,l),
(11,520,l),
(151,0,l)
);
}
);
width = 782;
}
);
metricLeft = "=v*2.8";
metricRight = "=|";
},
{
color = 10;
glyphname = f_f;
kernLeft = f;
kernRight = f;
lastChange = "2025-03-17 02:52:50 +0000";
layers = (
{
layerId = "D65C9A1E-0FCA-4B2D-8EDF-9F36CA9182A1";
shapes = (
{
closed = 1;
nodes = (
(214,0,l),
(214,480,l),
(514,480,l),
(514,0,l),
(534,0,l),
(534,480,l),
(738,480,l),
(738,500,l),
(534,500,l),
(534,620,ls),
(534,711,o),
(571,750,o),
(658,750,cs),
(685,750,o),
(706,746,o),
(733,736,c),
(740,755,l),
(710,766,o),
(686,770,o),
(658,770,cs),
(560,770,o),
(514,722,o),
(514,620,cs),
(514,500,l),
(214,500,l),
(214,620,ls),
(214,711,o),
(251,750,o),
(338,750,cs),
(365,750,o),
(386,746,o),
(413,736,c),
(420,755,l),
(390,766,o),
(366,770,o),
(338,770,cs),
(240,770,o),
(194,722,o),
(194,620,cs),
(194,500,l),
(30,500,l),
(30,480,l),
(194,480,l),
(194,0,l)
);
}
);
width = 770;
},
{
layerId = "9527F797-22C1-480E-A1FE-2CDBEBE1FD4C";
shapes = (
{
closed = 1;
nodes = (
(270,0,l),
(270,410,l),
(521,410,l),
(521,0,l),
(630,0,l),
(630,410,l),
(800,410,l),
(800,500,l),
(630,500,l),
(630,577,ls),
(630,650,o),
(654,677,o),
(719,677,cs),
(743,677,o),
(766,673,o),
(790,665,c),
(803,755,l),
(775,764,o),
(739,770,o),
(702,770,cs),
(582,770,o),
(521,708,o),
(521,585,cs),
(521,500,l),
(270,500,l),
(270,577,ls),
(270,650,o),
(294,677,o),
(359,677,cs),
(383,677,o),
(406,673,o),
(430,665,c),
(443,755,l),
(415,764,o),
(379,770,o),
(342,770,cs),
(222,770,o),
(161,708,o),
(161,585,cs),
(161,500,l),
(23,500,l),
(23,410,l),
(161,410,l),
(161,0,l)
);
}
);
width = 826;
},
{
layerId = "9E6B41AB-2970-4C41-8B35-4DBE0D296A43";
shapes = (
{
closed = 1;
nodes = (
(325,0,l),
(325,360,l),
(525,360,l),
(525,0,l),
(723,0,l),
(723,360,l),
(859,360,l),
(859,500,l),
(723,500,l),
(723,550,ls),
(723,605,o),
(736,620,o),
(778,620,cs),
(797,620,o),
(819,617,o),
(844,610,c),
(864,755,l),
(825,765,o),
(779,770,o),
(743,770,cs),
(601,770,o),
(525,693,o),
(525,550,cs),
(525,500,l),
(325,500,l),
(325,550,ls),
(325,605,o),
(338,620,o),
(380,620,cs),
(399,620,o),
(421,617,o),
(446,610,c),
(466,755,l),
(427,765,o),
(381,770,o),
(345,770,cs),
(203,770,o),
(127,693,o),
(127,550,cs),
(127,500,l),
(16,500,l),
(16,360,l),
(127,360,l),
(127,0,l)
);
}
);
width = 880;
}
);
metricLeft = f;
metricRight = f;
},
